<?xml version="1.0" encoding="UTF-8" standalone="no"?>
<!-- Created with Inkscape (http://www.inkscape.org/) -->

<svg
   width="20.902082mm"
   height="32.543751mm"
   viewBox="0 0 20.902082 32.543751"
   version="1.1"
   id="svg9554"
   sodipodi:docname="10_0.svg"
   inkscape:version="1.2 (dc2aedaf03, 2022-05-15)"
   xmlns:inkscape="http://www.inkscape.org/namespaces/inkscape"
   xmlns:sodipodi="http://sodipodi.sourceforge.net/DTD/sodipodi-0.dtd"
   xmlns="http://www.w3.org/2000/svg"
   xmlns:svg="http://www.w3.org/2000/svg">
  <sodipodi:namedview
     id="namedview9556"
     pagecolor="#ffffff"
     bordercolor="#000000"
     borderopacity="0.25"
     inkscape:showpageshadow="2"
     inkscape:pageopacity="0.0"
     inkscape:pagecheckerboard="0"
     inkscape:deskcolor="#d1d1d1"
     inkscape:document-units="mm"
     showgrid="false"
     inkscape:zoom="0.74564394"
     inkscape:cx="97.901956"
     inkscape:cy="139.47676"
     inkscape:window-width="1920"
     inkscape:window-height="1017"
     inkscape:window-x="1912"
     inkscape:window-y="-8"
     inkscape:window-maximized="1"
     inkscape:current-layer="layer1" />
  <defs
     id="defs9551" />
  <g
     inkscape:label="Livello 1"
     inkscape:groupmode="layer"
     id="layer1"
     transform="translate(-10.839278,-31.631352)">
    <path
       id="use1057"
       d="m 31.542923,62.653747 c 0,0.730779 -0.592137,1.322916 -1.322916,1.322916 H 12.360632 c -0.730515,0 -1.322917,-0.592137 -1.322917,-1.322916 V 33.152705 c 0,-0.730779 0.592402,-1.322916 1.322917,-1.322916 h 17.859375 c 0.730779,0 1.322916,0.592137 1.322916,1.322916 z"
       fill="#ffffff"
       stroke="#000000"
       stroke-width="0.396875" />
    <g
       id="use1059"
       fill="none"
       style="stroke:#df0000"
       transform="matrix(0.26458333,0,0,0.26458333,-177.01489,31.49906)">
      <path
         d="m 722.25,15.6 c 0,1.19 -1.01,2.15 -2.25,2.15 -1.24,0 -2.25,-0.96 -2.25,-2.15 V 7.4 c 0,-1.19 1.01,-2.15 2.25,-2.15 1.24,0 2.25,0.96 2.25,2.15 z"
         id="path24062" />
      <path
         d="m 714.75,4.75 v 13.5"
         id="path24064" />
    </g>
    <g
       id="use1061"
       fill="none"
       style="stroke:#df0000"
       transform="matrix(0.26458333,0,0,0.26458333,-177.54405,31.763643)">
      <path
         d="m 786.25,118.25 v -13.5"
         id="path24056" />
      <path
         d="m 778.75,107.4 c 0,-1.19 1.01,-2.15 2.25,-2.15 1.24,0 2.25,0.96 2.25,2.15 v 8.2 c 0,1.19 -1.01,2.15 -2.25,2.15 -1.24,0 -2.25,-0.96 -2.25,-2.15 z"
         id="path24058" />
    </g>
    <path
       id="use1063"
       d="m 13.63513,36.790726 c -0.4826,0 -0.546894,0.511175 -0.546894,0.511175 0,0 -0.06429,-0.511175 -0.546894,-0.511175 -0.337873,0 -0.643731,0.229129 -0.643731,0.661458 0,0.571236 1.07024,1.571096 1.190625,1.984375 0.121179,-0.413543 1.190625,-1.413139 1.190625,-1.984375 0,-0.432329 -0.305594,-0.661458 -0.643731,-0.661458 z"
       fill="#df0000"
       style="stroke-width:0.264583" />
    <path
       id="use1065"
       d="m 28.945509,59.015726 c 0.4826,0 0.546893,-0.511175 0.546893,-0.511175 0,0 0.06429,0.511175 0.546894,0.511175 0.337873,0 0.643731,-0.229129 0.643731,-0.661458 0,-0.571236 -1.070239,-1.571096 -1.190625,-1.984375 -0.121179,0.413543 -1.190625,1.413139 -1.190625,1.984375 0,0.432329 0.305594,0.661458 0.643732,0.661458 z"
       fill="#df0000"
       style="stroke-width:0.264583" />
    <path
       id="use1067"
       d="m 18.029594,34.938643 c -0.858044,0 -0.972608,0.919956 -0.972608,0.919956 0,0 -0.114565,-0.919956 -0.972608,-0.919956 -0.600605,0 -1.144059,0.412485 -1.144059,1.190625 0,1.028171 1.902619,2.828131 2.116667,3.571875 0.215106,-0.744538 2.116667,-2.543704 2.116667,-3.571875 0,-0.77814 -0.543455,-1.190625 -1.144059,-1.190625 z"
       fill="#df0000"
       style="stroke-width:0.264583" />
    <path
       id="use1069"
       d="m 18.029594,42.016247 c -0.858044,0 -0.972608,0.919956 -0.972608,0.919956 0,0 -0.114565,-0.919956 -0.972608,-0.919956 -0.600605,0 -1.144059,0.412485 -1.144059,1.190625 0,1.028171 1.902619,2.828131 2.116667,3.571875 0.215106,-0.744538 2.116667,-2.543704 2.116667,-3.571875 0,-0.77814 -0.543455,-1.190625 -1.144059,-1.190625 z"
       fill="#df0000"
       style="stroke-width:0.264583" />
    <path
       id="use1071"
       d="m 16.084378,53.790205 c 0.858043,0 0.972608,-0.919956 0.972608,-0.919956 0,0 0.114564,0.919956 0.972608,0.919956 0.600604,0 1.144059,-0.412485 1.144059,-1.190625 0,-1.028171 -1.902619,-2.828131 -2.116667,-3.571875 -0.215106,0.744538 -2.116667,2.543704 -2.116667,3.571875 0,0.77814 0.543454,1.190625 1.144059,1.190625 z"
       fill="#df0000"
       style="stroke-width:0.264583" />
    <path
       id="use1073"
       d="m 16.084378,60.867809 c 0.858043,0 0.972608,-0.919956 0.972608,-0.919956 0,0 0.114564,0.919956 0.972608,0.919956 0.600604,0 1.144059,-0.412485 1.144059,-1.190625 0,-1.028171 -1.902619,-2.828131 -2.116667,-3.571875 -0.215106,0.744538 -2.116667,2.543704 -2.116667,3.571875 0,0.77814 0.543454,1.190625 1.144059,1.190625 z"
       fill="#df0000"
       style="stroke-width:0.264583" />
    <path
       id="use1075"
       d="m 22.262927,38.478768 c -0.858043,0 -0.972608,0.919956 -0.972608,0.919956 0,0 -0.114564,-0.919956 -0.972608,-0.919956 -0.600604,0 -1.144058,0.412485 -1.144058,1.190625 0,1.028171 1.902618,2.828131 2.116666,3.571875 0.215106,-0.744538 2.116667,-2.543704 2.116667,-3.571875 0,-0.77814 -0.543454,-1.190625 -1.144059,-1.190625 z"
       fill="#df0000"
       style="stroke-width:0.264583" />
    <path
       id="use1077"
       d="m 20.317711,57.327684 c 0.858044,0 0.972608,-0.919956 0.972608,-0.919956 0,0 0.114565,0.919956 0.972608,0.919956 0.600605,0 1.144059,-0.412485 1.144059,-1.190625 0,-1.028171 -1.902619,-2.828131 -2.116667,-3.571875 -0.215106,0.744538 -2.116666,2.543704 -2.116666,3.571875 0,0.77814 0.543454,1.190625 1.144058,1.190625 z"
       fill="#df0000"
       style="stroke-width:0.264583" />
    <path
       id="use1079"
       d="m 26.496261,34.938643 c -0.858044,0 -0.972609,0.919956 -0.972609,0.919956 0,0 -0.114564,-0.919956 -0.972608,-0.919956 -0.600604,0 -1.144058,0.412485 -1.144058,1.190625 0,1.028171 1.902619,2.828131 2.116666,3.571875 0.215107,-0.744538 2.116667,-2.543704 2.116667,-3.571875 0,-0.77814 -0.543454,-1.190625 -1.144058,-1.190625 z"
       fill="#df0000"
       style="stroke-width:0.264583" />
    <path
       id="use1081"
       d="m 26.496261,42.016247 c -0.858044,0 -0.972609,0.919956 -0.972609,0.919956 0,0 -0.114564,-0.919956 -0.972608,-0.919956 -0.600604,0 -1.144058,0.412485 -1.144058,1.190625 0,1.028171 1.902619,2.828131 2.116666,3.571875 0.215107,-0.744538 2.116667,-2.543704 2.116667,-3.571875 0,-0.77814 -0.543454,-1.190625 -1.144058,-1.190625 z"
       fill="#df0000"
       style="stroke-width:0.264583" />
    <path
       id="use1083"
       d="m 24.551044,53.790205 c 0.858044,0 0.972608,-0.919956 0.972608,-0.919956 0,0 0.114565,0.919956 0.972609,0.919956 0.600604,0 1.144058,-0.412485 1.144058,-1.190625 0,-1.028171 -1.902619,-2.828131 -2.116667,-3.571875 -0.215106,0.744538 -2.116666,2.543704 -2.116666,3.571875 0,0.77814 0.543454,1.190625 1.144058,1.190625 z"
       fill="#df0000"
       style="stroke-width:0.264583" />
    <path
       id="use1085"
       d="m 24.551044,60.867809 c 0.858044,0 0.972608,-0.919956 0.972608,-0.919956 0,0 0.114565,0.919956 0.972609,0.919956 0.600604,0 1.144058,-0.412485 1.144058,-1.190625 0,-1.028171 -1.902619,-2.828131 -2.116667,-3.571875 -0.215106,0.744538 -2.116666,2.543704 -2.116666,3.571875 0,0.77814 0.543454,1.190625 1.144058,1.190625 z"
       fill="#df0000"
       style="stroke-width:0.264583" />
  </g>
</svg>
