<?xml version="1.0" encoding="UTF-8" standalone="no"?>
<!-- Created with Inkscape (http://www.inkscape.org/) -->

<svg
   width="20.902082mm"
   height="32.543751mm"
   viewBox="0 0 20.902082 32.543751"
   version="1.1"
   id="svg9554"
   sodipodi:docname="10_1.svg"
   inkscape:version="1.2 (dc2aedaf03, 2022-05-15)"
   xmlns:inkscape="http://www.inkscape.org/namespaces/inkscape"
   xmlns:sodipodi="http://sodipodi.sourceforge.net/DTD/sodipodi-0.dtd"
   xmlns="http://www.w3.org/2000/svg"
   xmlns:svg="http://www.w3.org/2000/svg">
  <sodipodi:namedview
     id="namedview9556"
     pagecolor="#ffffff"
     bordercolor="#000000"
     borderopacity="0.25"
     inkscape:showpageshadow="2"
     inkscape:pageopacity="0.0"
     inkscape:pagecheckerboard="0"
     inkscape:deskcolor="#d1d1d1"
     inkscape:document-units="mm"
     showgrid="false"
     inkscape:zoom="0.74564394"
     inkscape:cx="311.14046"
     inkscape:cy="227.99086"
     inkscape:window-width="1920"
     inkscape:window-height="1017"
     inkscape:window-x="1912"
     inkscape:window-y="-8"
     inkscape:window-maximized="1"
     inkscape:current-layer="layer1" />
  <defs
     id="defs9551" />
  <g
     inkscape:label="Livello 1"
     inkscape:groupmode="layer"
     id="layer1"
     transform="translate(96.676852,54.594455)">
    <path
       id="use1027"
       d="m -75.973207,-23.57206 c 0,0.730779 -0.592137,1.322917 -1.322916,1.322917 h -17.859375 c -0.730515,0 -1.322917,-0.592138 -1.322917,-1.322917 v -29.501041 c 0,-0.730779 0.592402,-1.322917 1.322917,-1.322917 h 17.859375 c 0.730779,0 1.322916,0.592138 1.322916,1.322917 z"
       fill="#ffffff"
       stroke="#000000"
       stroke-width="0.396875" />
    <g
       id="use1029"
       fill="none"
       style="stroke:#df0000"
       transform="matrix(0.26458333,0,0,0.26458333,-284.53102,-54.726747)">
      <path
         d="m 722.25,15.6 c 0,1.19 -1.01,2.15 -2.25,2.15 -1.24,0 -2.25,-0.96 -2.25,-2.15 V 7.4 c 0,-1.19 1.01,-2.15 2.25,-2.15 1.24,0 2.25,0.96 2.25,2.15 z"
         id="path16423" />
      <path
         d="m 714.75,4.75 v 13.5"
         id="path16425" />
    </g>
    <g
       id="use1031"
       fill="none"
       style="stroke:#df0000"
       transform="matrix(0.26458333,0,0,0.26458333,-285.06018,-54.462164)">
      <path
         d="m 786.25,118.25 v -13.5"
         id="path16417" />
      <path
         d="m 778.75,107.4 c 0,-1.19 1.01,-2.15 2.25,-2.15 1.24,0 2.25,0.96 2.25,2.15 v 8.2 c 0,1.19 -1.01,2.15 -2.25,2.15 -1.24,0 -2.25,-0.96 -2.25,-2.15 z"
         id="path16419" />
    </g>
    <path
       id="use1033"
       d="m -93.902696,-48.806695 c -0.315119,-0.396875 -0.525198,-0.760677 -0.525198,-0.760677 0,0 -0.210079,0.363802 -0.525198,0.760677 -0.315119,0.396875 -0.665427,0.694531 -0.665427,0.694531 0,0 0.350308,0.297656 0.665427,0.694531 0.315119,0.396875 0.525198,0.760677 0.525198,0.760677 0,0 0.210079,-0.363802 0.525198,-0.760677 0.315119,-0.396875 0.665427,-0.694531 0.665427,-0.694531 0,0 -0.350044,-0.297656 -0.665427,-0.694531 z"
       fill="#df0000"
       style="stroke-width:0.264583" />
    <path
       id="use1035"
       d="m -77.49853,-29.227529 c -0.315118,-0.396875 -0.525198,-0.760677 -0.525198,-0.760677 0,0 -0.210079,0.363802 -0.525198,0.760677 -0.315118,0.396875 -0.665427,0.694532 -0.665427,0.694532 0,0 0.350309,0.297656 0.665427,0.694531 0.315119,0.396875 0.525198,0.760677 0.525198,0.760677 0,0 0.21008,-0.363802 0.525198,-0.760677 0.315119,-0.396875 0.665427,-0.694531 0.665427,-0.694531 0,0 -0.350043,-0.297657 -0.665427,-0.694532 z"
       fill="#df0000"
       style="stroke-width:0.264583" />
    <path
       id="use1037"
       d="m -89.52543,-50.231741 c -0.560122,-0.757767 -0.933714,-1.452298 -0.933714,-1.452298 0,0 -0.373592,0.694531 -0.933715,1.452298 -0.560123,0.757767 -1.182952,1.325827 -1.182952,1.325827 0,0 0.622565,0.568061 1.182952,1.326092 0.560388,0.758031 0.933715,1.452033 0.933715,1.452033 0,0 0.373592,-0.694531 0.933714,-1.452033 0.560123,-0.757502 1.182953,-1.326092 1.182953,-1.326092 0,0 -0.622565,-0.568325 -1.182953,-1.325827 z"
       fill="#df0000"
       style="stroke-width:0.264583" />
    <path
       id="use1039"
       d="m -89.52543,-43.154137 c -0.560122,-0.757766 -0.933714,-1.452298 -0.933714,-1.452298 0,0 -0.373592,0.694532 -0.933715,1.452298 -0.560123,0.757767 -1.182952,1.325827 -1.182952,1.325827 0,0 0.622565,0.568061 1.182952,1.326092 0.560388,0.758031 0.933715,1.452033 0.933715,1.452033 0,0 0.373592,-0.694531 0.933714,-1.452033 0.560123,-0.757502 1.182953,-1.326092 1.182953,-1.326092 0,0 -0.622565,-0.568325 -1.182953,-1.325827 z"
       fill="#df0000"
       style="stroke-width:0.264583" />
    <path
       id="use1041"
       d="m -89.52543,-36.142679 c -0.560122,-0.757766 -0.933714,-1.452297 -0.933714,-1.452297 0,0 -0.373592,0.694531 -0.933715,1.452297 -0.560123,0.757767 -1.182952,1.325828 -1.182952,1.325828 0,0 0.622565,0.56806 1.182952,1.326091 0.560388,0.758031 0.933715,1.452033 0.933715,1.452033 0,0 0.373592,-0.694531 0.933714,-1.452033 0.560123,-0.757502 1.182953,-1.326091 1.182953,-1.326091 0,0 -0.622565,-0.568325 -1.182953,-1.325828 z"
       fill="#df0000"
       style="stroke-width:0.264583" />
    <path
       id="use1043"
       d="m -89.52543,-29.065074 c -0.560122,-0.757767 -0.933714,-1.452298 -0.933714,-1.452298 0,0 -0.373592,0.694531 -0.933715,1.452298 -0.560123,0.757766 -1.182952,1.325827 -1.182952,1.325827 0,0 0.622565,0.56806 1.182952,1.326091 0.560388,0.758031 0.933715,1.452034 0.933715,1.452034 0,0 0.373592,-0.694532 0.933714,-1.452034 0.560123,-0.757502 1.182953,-1.326091 1.182953,-1.326091 0,0 -0.622565,-0.568325 -1.182953,-1.325827 z"
       fill="#df0000"
       style="stroke-width:0.264583" />
    <path
       id="use1045"
       d="m -85.292096,-46.691616 c -0.560123,-0.757767 -0.933715,-1.452298 -0.933715,-1.452298 0,0 -0.373591,0.694531 -0.933714,1.452298 -0.560123,0.757767 -1.182952,1.325827 -1.182952,1.325827 0,0 0.622564,0.568061 1.182952,1.326092 0.560387,0.758031 0.933714,1.452033 0.933714,1.452033 0,0 0.373592,-0.694531 0.933715,-1.452033 0.560123,-0.757502 1.182952,-1.326092 1.182952,-1.326092 0,0 -0.622565,-0.568325 -1.182952,-1.325827 z"
       fill="#df0000"
       style="stroke-width:0.264583" />
    <path
       id="use1047"
       d="m -85.292096,-32.605199 c -0.560123,-0.757767 -0.933715,-1.452298 -0.933715,-1.452298 0,0 -0.373591,0.694531 -0.933714,1.452298 -0.560123,0.757766 -1.182952,1.325827 -1.182952,1.325827 0,0 0.622564,0.56806 1.182952,1.326091 0.560387,0.758032 0.933714,1.452034 0.933714,1.452034 0,0 0.373592,-0.694532 0.933715,-1.452034 0.560123,-0.757502 1.182952,-1.326091 1.182952,-1.326091 0,0 -0.622565,-0.568325 -1.182952,-1.325827 z"
       fill="#df0000"
       style="stroke-width:0.264583" />
    <path
       id="use1049"
       d="m -81.058763,-50.231741 c -0.560123,-0.757767 -0.933715,-1.452298 -0.933715,-1.452298 0,0 -0.373591,0.694531 -0.933714,1.452298 -0.560123,0.757767 -1.182952,1.325827 -1.182952,1.325827 0,0 0.622564,0.568061 1.182952,1.326092 0.560387,0.758031 0.933714,1.452033 0.933714,1.452033 0,0 0.373592,-0.694531 0.933715,-1.452033 0.560123,-0.757502 1.182952,-1.326092 1.182952,-1.326092 0,0 -0.622564,-0.568325 -1.182952,-1.325827 z"
       fill="#df0000"
       style="stroke-width:0.264583" />
    <path
       id="use1051"
       d="m -81.058763,-43.154137 c -0.560123,-0.757766 -0.933715,-1.452298 -0.933715,-1.452298 0,0 -0.373591,0.694532 -0.933714,1.452298 -0.560123,0.757767 -1.182952,1.325827 -1.182952,1.325827 0,0 0.622564,0.568061 1.182952,1.326092 0.560387,0.758031 0.933714,1.452033 0.933714,1.452033 0,0 0.373592,-0.694531 0.933715,-1.452033 0.560123,-0.757502 1.182952,-1.326092 1.182952,-1.326092 0,0 -0.622564,-0.568325 -1.182952,-1.325827 z"
       fill="#df0000"
       style="stroke-width:0.264583" />
    <path
       id="use1053"
       d="m -81.058763,-36.142679 c -0.560123,-0.757766 -0.933715,-1.452297 -0.933715,-1.452297 0,0 -0.373591,0.694531 -0.933714,1.452297 -0.560123,0.757767 -1.182952,1.325828 -1.182952,1.325828 0,0 0.622564,0.56806 1.182952,1.326091 0.560387,0.758031 0.933714,1.452033 0.933714,1.452033 0,0 0.373592,-0.694531 0.933715,-1.452033 0.560123,-0.757502 1.182952,-1.326091 1.182952,-1.326091 0,0 -0.622564,-0.568325 -1.182952,-1.325828 z"
       fill="#df0000"
       style="stroke-width:0.264583" />
    <path
       id="use1055"
       d="m -81.058763,-29.065074 c -0.560123,-0.757767 -0.933715,-1.452298 -0.933715,-1.452298 0,0 -0.373591,0.694531 -0.933714,1.452298 -0.560123,0.757766 -1.182952,1.325827 -1.182952,1.325827 0,0 0.622564,0.56806 1.182952,1.326091 0.560387,0.758031 0.933714,1.452034 0.933714,1.452034 0,0 0.373592,-0.694532 0.933715,-1.452034 0.560123,-0.757502 1.182952,-1.326091 1.182952,-1.326091 0,0 -0.622564,-0.568325 -1.182952,-1.325827 z"
       fill="#df0000"
       style="stroke-width:0.264583" />
  </g>
</svg>
