<?xml version="1.0" encoding="UTF-8" standalone="no"?>
<!-- Created with Inkscape (http://www.inkscape.org/) -->

<svg
   width="20.902075mm"
   height="32.543751mm"
   viewBox="0 0 20.902075 32.543751"
   version="1.1"
   id="svg9554"
   sodipodi:docname="10_2.svg"
   inkscape:version="1.2 (dc2aedaf03, 2022-05-15)"
   xmlns:inkscape="http://www.inkscape.org/namespaces/inkscape"
   xmlns:sodipodi="http://sodipodi.sourceforge.net/DTD/sodipodi-0.dtd"
   xmlns="http://www.w3.org/2000/svg"
   xmlns:svg="http://www.w3.org/2000/svg">
  <sodipodi:namedview
     id="namedview9556"
     pagecolor="#ffffff"
     bordercolor="#000000"
     borderopacity="0.25"
     inkscape:showpageshadow="2"
     inkscape:pageopacity="0.0"
     inkscape:pagecheckerboard="0"
     inkscape:deskcolor="#d1d1d1"
     inkscape:document-units="mm"
     showgrid="false"
     inkscape:zoom="0.74564394"
     inkscape:cx="-146.18237"
     inkscape:cy="131.43002"
     inkscape:window-width="1920"
     inkscape:window-height="1017"
     inkscape:window-x="1912"
     inkscape:window-y="-8"
     inkscape:window-maximized="1"
     inkscape:current-layer="layer1" />
  <defs
     id="defs9551" />
  <g
     inkscape:label="Livello 1"
     inkscape:groupmode="layer"
     id="layer1"
     transform="translate(-269.87154,-15.663609)">
    <path
       id="use885"
       d="m -56.81191,54.492456 c 0,0.73078 -0.592137,1.322917 -1.322917,1.322917 h -17.859374 c -0.730515,0 -1.322917,-0.592137 -1.322917,-1.322917 V 24.991415 c 0,-0.730779 0.592402,-1.322917 1.322917,-1.322917 h 17.859374 c 0.73078,0 1.322917,0.592138 1.322917,1.322917 z"
       fill="#ffffff"
       stroke="#000000"
       stroke-width="0.396875" />
    <g
       id="use887"
       fill="none"
       style="stroke:#000000"
       transform="matrix(0.26458333,0,0,0.26458333,-244.46764,23.337769)">
      <path
         d="m 642.75,9 v 5.5 c 0,0 0.25,3.25 -3.23,3.25 -1.08,0 -2.8,-0.5 -3.02,-2.25"
         id="path10565" />
      <path
         d="m 642.75,9 a 3.25,3.25 0 1 0 -6.5,0 3.25,3.25 0 1 0 6.5,0"
         id="path10567" />
    </g>
    <g
       id="use889"
       fill="none"
       style="stroke:#000000"
       transform="matrix(0.26458333,0,0,0.26458333,-244.9968,23.602353)">
      <path
         d="m 706.75,114 a 3.25,3.25 0 1 0 -6.5,0 3.25,3.25 0 1 0 6.5,0"
         id="path10559" />
      <path
         d="m 700.25,114 v -5.5 c 0,0 -0.25,-3.25 3.23,-3.25 1.08,0 2.8,0.5 3.02,2.25"
         id="path10561" />
    </g>
    <path
       id="use891"
       d="m -74.965766,29.831967 c 0,0 0.330729,-0.264583 0.330729,-0.631296 0,-0.214841 -0.191029,-0.571235 -0.63156,-0.571235 -0.440531,0 -0.631296,0.356658 -0.631296,0.571235 0,0.366713 0.330729,0.631296 0.330729,0.631296 -0.367506,-0.286014 -1.02235,-0.09075 -1.02235,0.481013 0,0.286279 0.233892,0.601398 0.601398,0.601398 0.440796,0 0.631296,-0.481013 0.631296,-0.481013 0,0 0.05583,0.548217 -0.270669,0.841904 h 0.721519 c -0.326496,-0.293423 -0.270404,-0.841904 -0.270404,-0.841904 0,0 0.190764,0.481013 0.63156,0.481013 0.367506,0 0.601134,-0.315119 0.601134,-0.601398 0,-0.571765 -0.655109,-0.767027 -1.022086,-0.481013 z"
       style="stroke-width:0.264583" />
    <path
       id="use893"
       d="m -59.163262,49.651904 c 0,0 -0.330729,0.264584 -0.330729,0.631296 0,0.214842 0.191029,0.571236 0.63156,0.571236 0.440532,0 0.631296,-0.356659 0.631296,-0.571236 0,-0.366712 -0.330729,-0.631296 -0.330729,-0.631296 0.367506,0.286015 1.02235,0.09075 1.02235,-0.481012 0,-0.286279 -0.233892,-0.601398 -0.601398,-0.601398 -0.440796,0 -0.631296,0.481013 -0.631296,0.481013 0,0 -0.05583,-0.548217 0.270669,-0.841905 h -0.721519 c 0.326496,0.293423 0.270404,0.841905 0.270404,0.841905 0,0 -0.190764,-0.481013 -0.63156,-0.481013 -0.367506,0 -0.601133,0.315119 -0.601133,0.601398 0,0.571765 0.655108,0.767027 1.022085,0.481012 z"
       style="stroke-width:0.264583" />
    <path
       id="use895"
       d="m -70.726612,28.930003 c 0,0 0.628386,-0.502709 0.628386,-1.199621 0,-0.407988 -0.362215,-1.085321 -1.199621,-1.085321 -0.837406,0 -1.199621,0.677598 -1.199621,1.085321 0,0.696912 0.628385,1.199621 0.628385,1.199621 -0.69797,-0.543719 -1.942306,-0.172509 -1.942306,0.914135 0,0.543983 0.4445,1.142471 1.142471,1.142471 0.837406,0 1.199621,-0.914136 1.199621,-0.914136 0,0 0.106362,1.04193 -0.514086,1.599671 h 1.371071 c -0.620448,-0.557477 -0.514085,-1.599671 -0.514085,-1.599671 0,0 0.362214,0.914136 1.199621,0.914136 0.698235,0 1.14247,-0.598752 1.14247,-1.142471 0,-1.086644 -1.244335,-1.457854 -1.942306,-0.914135 z"
       style="stroke-width:0.264583" />
    <path
       id="use897"
       d="m -70.726612,36.007607 c 0,0 0.628386,-0.502709 0.628386,-1.199621 0,-0.407988 -0.362215,-1.085321 -1.199621,-1.085321 -0.837406,0 -1.199621,0.677598 -1.199621,1.085321 0,0.696912 0.628385,1.199621 0.628385,1.199621 -0.69797,-0.543719 -1.942306,-0.172509 -1.942306,0.914135 0,0.543983 0.4445,1.142471 1.142471,1.142471 0.837406,0 1.199621,-0.914136 1.199621,-0.914136 0,0 0.106362,1.04193 -0.514086,1.599671 h 1.371071 c -0.620448,-0.557477 -0.514085,-1.599671 -0.514085,-1.599671 0,0 0.362214,0.914136 1.199621,0.914136 0.698235,0 1.14247,-0.598752 1.14247,-1.142471 0,-1.086644 -1.244335,-1.457854 -1.942306,-0.914135 z"
       style="stroke-width:0.264583" />
    <path
       id="use899"
       d="m -71.869083,43.476265 c 0,0 -0.628385,0.502708 -0.628385,1.199621 0,0.407987 0.362215,1.085321 1.199621,1.085321 0.837406,0 1.199621,-0.677598 1.199621,-1.085321 0,-0.696913 -0.628386,-1.199621 -0.628386,-1.199621 0.697971,0.543719 1.942306,0.172508 1.942306,-0.914135 0,-0.543984 -0.4445,-1.142471 -1.14247,-1.142471 -0.837407,0 -1.199621,0.914135 -1.199621,0.914135 0,0 -0.106363,-1.041929 0.514085,-1.599671 h -1.371071 c 0.620448,0.557477 0.514086,1.599671 0.514086,1.599671 0,0 -0.362215,-0.914135 -1.199621,-0.914135 -0.698235,0 -1.142471,0.598752 -1.142471,1.142471 0,1.086643 1.244336,1.457854 1.942306,0.914135 z"
       style="stroke-width:0.264583" />
    <path
       id="use901"
       d="m -71.869083,50.553869 c 0,0 -0.628385,0.502708 -0.628385,1.199621 0,0.407987 0.362215,1.085321 1.199621,1.085321 0.837406,0 1.199621,-0.677598 1.199621,-1.085321 0,-0.696913 -0.628386,-1.199621 -0.628386,-1.199621 0.697971,0.543719 1.942306,0.172508 1.942306,-0.914135 0,-0.543984 -0.4445,-1.142471 -1.14247,-1.142471 -0.837407,0 -1.199621,0.914135 -1.199621,0.914135 0,0 -0.106363,-1.041929 0.514085,-1.599671 h -1.371071 c 0.620448,0.557477 0.514086,1.599671 0.514086,1.599671 0,0 -0.362215,-0.914135 -1.199621,-0.914135 -0.698235,0 -1.142471,0.598752 -1.142471,1.142471 0,1.086643 1.244336,1.457854 1.942306,0.914135 z"
       style="stroke-width:0.264583" />
    <path
       id="use903"
       d="m -66.493278,39.248752 c 0,0 0.628385,-0.502708 0.628385,-1.19962 0,-0.407988 -0.362215,-1.085321 -1.199621,-1.085321 -0.837406,0 -1.199621,0.677598 -1.199621,1.085321 0,0.696912 0.628386,1.19962 0.628386,1.19962 -0.697971,-0.543718 -1.942307,-0.172508 -1.942307,0.914136 0,0.543983 0.4445,1.142471 1.142471,1.142471 0.837407,0 1.199621,-0.914136 1.199621,-0.914136 0,0 0.106363,1.041929 -0.514085,1.599671 h 1.371071 c -0.620448,-0.557477 -0.514086,-1.599671 -0.514086,-1.599671 0,0 0.362215,0.914136 1.199621,0.914136 0.698235,0 1.142471,-0.598752 1.142471,-1.142471 0,-1.086644 -1.244336,-1.457854 -1.942306,-0.914136 z"
       style="stroke-width:0.264583" />
    <path
       id="use905"
       d="m -62.259945,28.930003 c 0,0 0.628385,-0.502709 0.628385,-1.199621 0,-0.407988 -0.362214,-1.085321 -1.199621,-1.085321 -0.837406,0 -1.19962,0.677598 -1.19962,1.085321 0,0.696912 0.628385,1.199621 0.628385,1.199621 -0.697971,-0.543719 -1.942306,-0.172509 -1.942306,0.914135 0,0.543983 0.4445,1.142471 1.142471,1.142471 0.837406,0 1.19962,-0.914136 1.19962,-0.914136 0,0 0.106363,1.04193 -0.514085,1.599671 h 1.371071 c -0.620448,-0.557477 -0.514086,-1.599671 -0.514086,-1.599671 0,0 0.362215,0.914136 1.199621,0.914136 0.698236,0 1.142471,-0.598752 1.142471,-1.142471 0,-1.086644 -1.244335,-1.457854 -1.942306,-0.914135 z"
       style="stroke-width:0.264583" />
    <path
       id="use907"
       d="m -62.259945,36.007607 c 0,0 0.628385,-0.502709 0.628385,-1.199621 0,-0.407988 -0.362214,-1.085321 -1.199621,-1.085321 -0.837406,0 -1.19962,0.677598 -1.19962,1.085321 0,0.696912 0.628385,1.199621 0.628385,1.199621 -0.697971,-0.543719 -1.942306,-0.172509 -1.942306,0.914135 0,0.543983 0.4445,1.142471 1.142471,1.142471 0.837406,0 1.19962,-0.914136 1.19962,-0.914136 0,0 0.106363,1.04193 -0.514085,1.599671 h 1.371071 c -0.620448,-0.557477 -0.514086,-1.599671 -0.514086,-1.599671 0,0 0.362215,0.914136 1.199621,0.914136 0.698236,0 1.142471,-0.598752 1.142471,-1.142471 0,-1.086644 -1.244335,-1.457854 -1.942306,-0.914135 z"
       style="stroke-width:0.264583" />
    <path
       id="use909"
       d="m -63.402416,43.476265 c 0,0 -0.628385,0.502708 -0.628385,1.199621 0,0.407987 0.362214,1.085321 1.19962,1.085321 0.837407,0 1.199621,-0.677598 1.199621,-1.085321 0,-0.696913 -0.628385,-1.199621 -0.628385,-1.199621 0.697971,0.543719 1.942306,0.172508 1.942306,-0.914135 0,-0.543984 -0.4445,-1.142471 -1.142471,-1.142471 -0.837406,0 -1.199621,0.914135 -1.199621,0.914135 0,0 -0.106362,-1.041929 0.514086,-1.599671 h -1.371071 c 0.620448,0.557477 0.514085,1.599671 0.514085,1.599671 0,0 -0.362214,-0.914135 -1.19962,-0.914135 -0.698236,0 -1.142471,0.598752 -1.142471,1.142471 0,1.086643 1.244335,1.457854 1.942306,0.914135 z"
       style="stroke-width:0.264583" />
    <path
       id="use911"
       d="m -63.402416,50.553869 c 0,0 -0.628385,0.502708 -0.628385,1.199621 0,0.407987 0.362214,1.085321 1.19962,1.085321 0.837407,0 1.199621,-0.677598 1.199621,-1.085321 0,-0.696913 -0.628385,-1.199621 -0.628385,-1.199621 0.697971,0.543719 1.942306,0.172508 1.942306,-0.914135 0,-0.543984 -0.4445,-1.142471 -1.142471,-1.142471 -0.837406,0 -1.199621,0.914135 -1.199621,0.914135 0,0 -0.106362,-1.041929 0.514086,-1.599671 h -1.371071 c 0.620448,0.557477 0.514085,1.599671 0.514085,1.599671 0,0 -0.362214,-0.914135 -1.19962,-0.914135 -0.698236,0 -1.142471,0.598752 -1.142471,1.142471 0,1.086643 1.244335,1.457854 1.942306,0.914135 z"
       style="stroke-width:0.264583" />
    <path
       id="use997"
       d="m 290.57518,46.686004 c 0,0.73078 -0.59213,1.322917 -1.32291,1.322917 h -17.85938 c -0.73051,0 -1.32291,-0.592137 -1.32291,-1.322917 V 17.184963 c 0,-0.730779 0.5924,-1.322917 1.32291,-1.322917 h 17.85938 c 0.73078,0 1.32291,0.592138 1.32291,1.322917 z"
       fill="#ffffff"
       stroke="#000000"
       stroke-width="0.396875" />
    <g
       id="use999"
       fill="none"
       style="stroke:#000000"
       transform="matrix(0.26458333,0,0,0.26458333,82.017374,15.531317)">
      <path
         d="m 722.25,15.6 c 0,1.19 -1.01,2.15 -2.25,2.15 -1.24,0 -2.25,-0.96 -2.25,-2.15 V 7.4 c 0,-1.19 1.01,-2.15 2.25,-2.15 1.24,0 2.25,0.96 2.25,2.15 z"
         id="path10734" />
      <path
         d="m 714.75,4.75 v 13.5"
         id="path10736" />
    </g>
    <g
       id="use1001"
       fill="none"
       style="stroke:#000000"
       transform="matrix(0.26458333,0,0,0.26458333,81.488208,15.795901)">
      <path
         d="m 786.25,118.25 v -13.5"
         id="path10728" />
      <path
         d="m 778.75,107.4 c 0,-1.19 1.01,-2.15 2.25,-2.15 1.24,0 2.25,0.96 2.25,2.15 v 8.2 c 0,1.19 -1.01,2.15 -2.25,2.15 -1.24,0 -2.25,-0.96 -2.25,-2.15 z"
         id="path10730" />
    </g>
    <path
       id="use1003"
       d="m 272.42133,22.025515 c 0,0 0.33073,-0.264583 0.33073,-0.631296 0,-0.214841 -0.19103,-0.571235 -0.63156,-0.571235 -0.44053,0 -0.6313,0.356658 -0.6313,0.571235 0,0.366713 0.33073,0.631296 0.33073,0.631296 -0.36751,-0.286014 -1.02235,-0.09075 -1.02235,0.481013 0,0.286279 0.23389,0.601398 0.6014,0.601398 0.44079,0 0.63129,-0.481013 0.63129,-0.481013 0,0 0.0558,0.548217 -0.27066,0.841904 h 0.72151 c -0.32649,-0.293423 -0.2704,-0.841904 -0.2704,-0.841904 0,0 0.19076,0.481013 0.63156,0.481013 0.36751,0 0.60113,-0.315119 0.60113,-0.601398 0,-0.571765 -0.6551,-0.767027 -1.02208,-0.481013 z"
       style="stroke-width:0.264583" />
    <path
       id="use1005"
       d="m 288.22383,41.845452 c 0,0 -0.33073,0.264584 -0.33073,0.631296 0,0.214842 0.19103,0.571236 0.63156,0.571236 0.44053,0 0.6313,-0.356659 0.6313,-0.571236 0,-0.366712 -0.33073,-0.631296 -0.33073,-0.631296 0.36751,0.286015 1.02235,0.09075 1.02235,-0.481012 0,-0.286279 -0.23389,-0.601398 -0.6014,-0.601398 -0.44079,0 -0.63129,0.481013 -0.63129,0.481013 0,0 -0.0558,-0.548217 0.27067,-0.841905 h -0.72152 c 0.32649,0.293423 0.2704,0.841905 0.2704,0.841905 0,0 -0.19076,-0.481013 -0.63156,-0.481013 -0.36751,0 -0.60113,0.315119 -0.60113,0.601398 0,0.571765 0.65511,0.767027 1.02208,0.481012 z"
       style="stroke-width:0.264583" />
    <path
       id="use1007"
       d="m 276.66048,21.123551 c 0,0 0.62839,-0.502709 0.62839,-1.199621 0,-0.407988 -0.36222,-1.085321 -1.19962,-1.085321 -0.83741,0 -1.19962,0.677598 -1.19962,1.085321 0,0.696912 0.62838,1.199621 0.62838,1.199621 -0.69797,-0.543719 -1.9423,-0.172509 -1.9423,0.914135 0,0.543983 0.4445,1.142471 1.14247,1.142471 0.8374,0 1.19962,-0.914136 1.19962,-0.914136 0,0 0.10636,1.04193 -0.51409,1.599671 h 1.37107 c -0.62045,-0.557477 -0.51408,-1.599671 -0.51408,-1.599671 0,0 0.36221,0.914136 1.19962,0.914136 0.69823,0 1.14247,-0.598752 1.14247,-1.142471 0,-1.086644 -1.24434,-1.457854 -1.94231,-0.914135 z"
       style="stroke-width:0.264583" />
    <path
       id="use1009"
       d="m 276.66048,28.201155 c 0,0 0.62839,-0.502709 0.62839,-1.199621 0,-0.407988 -0.36222,-1.085321 -1.19962,-1.085321 -0.83741,0 -1.19962,0.677598 -1.19962,1.085321 0,0.696912 0.62838,1.199621 0.62838,1.199621 -0.69797,-0.543719 -1.9423,-0.172509 -1.9423,0.914135 0,0.543983 0.4445,1.142471 1.14247,1.142471 0.8374,0 1.19962,-0.914136 1.19962,-0.914136 0,0 0.10636,1.04193 -0.51409,1.599671 h 1.37107 c -0.62045,-0.557477 -0.51408,-1.599671 -0.51408,-1.599671 0,0 0.36221,0.914136 1.19962,0.914136 0.69823,0 1.14247,-0.598752 1.14247,-1.142471 0,-1.086644 -1.24434,-1.457854 -1.94231,-0.914135 z"
       style="stroke-width:0.264583" />
    <path
       id="use1011"
       d="m 275.51801,35.669813 c 0,0 -0.62838,0.502708 -0.62838,1.199621 0,0.407987 0.36221,1.085321 1.19962,1.085321 0.8374,0 1.19962,-0.677598 1.19962,-1.085321 0,-0.696913 -0.62839,-1.199621 -0.62839,-1.199621 0.69797,0.543719 1.94231,0.172508 1.94231,-0.914135 0,-0.543984 -0.4445,-1.142471 -1.14247,-1.142471 -0.83741,0 -1.19962,0.914135 -1.19962,0.914135 0,0 -0.10637,-1.041929 0.51408,-1.599671 h -1.37107 c 0.62045,0.557477 0.51409,1.599671 0.51409,1.599671 0,0 -0.36222,-0.914135 -1.19962,-0.914135 -0.69824,0 -1.14247,0.598752 -1.14247,1.142471 0,1.086643 1.24433,1.457854 1.9423,0.914135 z"
       style="stroke-width:0.264583" />
    <path
       id="use1013"
       d="m 275.51801,42.747417 c 0,0 -0.62838,0.502708 -0.62838,1.199621 0,0.407987 0.36221,1.085321 1.19962,1.085321 0.8374,0 1.19962,-0.677598 1.19962,-1.085321 0,-0.696913 -0.62839,-1.199621 -0.62839,-1.199621 0.69797,0.543719 1.94231,0.172508 1.94231,-0.914135 0,-0.543984 -0.4445,-1.142471 -1.14247,-1.142471 -0.83741,0 -1.19962,0.914135 -1.19962,0.914135 0,0 -0.10637,-1.041929 0.51408,-1.599671 h -1.37107 c 0.62045,0.557477 0.51409,1.599671 0.51409,1.599671 0,0 -0.36222,-0.914135 -1.19962,-0.914135 -0.69824,0 -1.14247,0.598752 -1.14247,1.142471 0,1.086643 1.24433,1.457854 1.9423,0.914135 z"
       style="stroke-width:0.264583" />
    <path
       id="use1015"
       d="m 280.89382,24.662353 c 0,0 0.62838,-0.502709 0.62838,-1.199621 0,-0.407988 -0.36221,-1.085321 -1.19962,-1.085321 -0.83741,0 -1.19962,0.677598 -1.19962,1.085321 0,0.696912 0.62838,1.199621 0.62838,1.199621 -0.69797,-0.543719 -1.9423,-0.172509 -1.9423,0.914135 0,0.543983 0.4445,1.142471 1.14247,1.142471 0.83741,0 1.19962,-0.914136 1.19962,-0.914136 0,0 0.10636,1.04193 -0.51409,1.599671 h 1.37108 c -0.62045,-0.557477 -0.51409,-1.599671 -0.51409,-1.599671 0,0 0.36221,0.914136 1.19962,0.914136 0.69824,0 1.14247,-0.598752 1.14247,-1.142471 0,-1.086644 -1.24433,-1.457854 -1.9423,-0.914135 z"
       style="stroke-width:0.264583" />
    <path
       id="use1017"
       d="m 279.75134,39.208615 c 0,0 -0.62838,0.502708 -0.62838,1.199621 0,0.407987 0.36221,1.085321 1.19962,1.085321 0.83741,0 1.19962,-0.677598 1.19962,-1.085321 0,-0.696913 -0.62838,-1.199621 -0.62838,-1.199621 0.69797,0.543719 1.9423,0.172508 1.9423,-0.914135 0,-0.543984 -0.4445,-1.142471 -1.14247,-1.142471 -0.83741,0 -1.19962,0.914135 -1.19962,0.914135 0,0 -0.10636,-1.041929 0.51409,-1.599671 h -1.37108 c 0.62045,0.557477 0.51409,1.599671 0.51409,1.599671 0,0 -0.36221,-0.914135 -1.19962,-0.914135 -0.69824,0 -1.14247,0.598752 -1.14247,1.142471 0,1.086643 1.24433,1.457854 1.9423,0.914135 z"
       style="stroke-width:0.264583" />
    <path
       id="use1019"
       d="m 285.12715,21.123551 c 0,0 0.62838,-0.502709 0.62838,-1.199621 0,-0.407988 -0.36221,-1.085321 -1.19962,-1.085321 -0.8374,0 -1.19962,0.677598 -1.19962,1.085321 0,0.696912 0.62839,1.199621 0.62839,1.199621 -0.69797,-0.543719 -1.94231,-0.172509 -1.94231,0.914135 0,0.543983 0.4445,1.142471 1.14247,1.142471 0.83741,0 1.19962,-0.914136 1.19962,-0.914136 0,0 0.10637,1.04193 -0.51408,1.599671 h 1.37107 c -0.62045,-0.557477 -0.51409,-1.599671 -0.51409,-1.599671 0,0 0.36222,0.914136 1.19962,0.914136 0.69824,0 1.14248,-0.598752 1.14248,-1.142471 0,-1.086644 -1.24434,-1.457854 -1.94231,-0.914135 z"
       style="stroke-width:0.264583" />
    <path
       id="use1021"
       d="m 285.12715,28.201155 c 0,0 0.62838,-0.502709 0.62838,-1.199621 0,-0.407988 -0.36221,-1.085321 -1.19962,-1.085321 -0.8374,0 -1.19962,0.677598 -1.19962,1.085321 0,0.696912 0.62839,1.199621 0.62839,1.199621 -0.69797,-0.543719 -1.94231,-0.172509 -1.94231,0.914135 0,0.543983 0.4445,1.142471 1.14247,1.142471 0.83741,0 1.19962,-0.914136 1.19962,-0.914136 0,0 0.10637,1.04193 -0.51408,1.599671 h 1.37107 c -0.62045,-0.557477 -0.51409,-1.599671 -0.51409,-1.599671 0,0 0.36222,0.914136 1.19962,0.914136 0.69824,0 1.14248,-0.598752 1.14248,-1.142471 0,-1.086644 -1.24434,-1.457854 -1.94231,-0.914135 z"
       style="stroke-width:0.264583" />
    <path
       id="use1023"
       d="m 283.98468,35.669813 c 0,0 -0.62839,0.502708 -0.62839,1.199621 0,0.407987 0.36222,1.085321 1.19962,1.085321 0.83741,0 1.19962,-0.677598 1.19962,-1.085321 0,-0.696913 -0.62838,-1.199621 -0.62838,-1.199621 0.69797,0.543719 1.94231,0.172508 1.94231,-0.914135 0,-0.543984 -0.4445,-1.142471 -1.14248,-1.142471 -0.8374,0 -1.19962,0.914135 -1.19962,0.914135 0,0 -0.10636,-1.041929 0.51409,-1.599671 h -1.37107 c 0.62045,0.557477 0.51408,1.599671 0.51408,1.599671 0,0 -0.36221,-0.914135 -1.19962,-0.914135 -0.69823,0 -1.14247,0.598752 -1.14247,1.142471 0,1.086643 1.24434,1.457854 1.94231,0.914135 z"
       style="stroke-width:0.264583" />
    <path
       id="use1025"
       d="m 283.98468,42.747417 c 0,0 -0.62839,0.502708 -0.62839,1.199621 0,0.407987 0.36222,1.085321 1.19962,1.085321 0.83741,0 1.19962,-0.677598 1.19962,-1.085321 0,-0.696913 -0.62838,-1.199621 -0.62838,-1.199621 0.69797,0.543719 1.94231,0.172508 1.94231,-0.914135 0,-0.543984 -0.4445,-1.142471 -1.14248,-1.142471 -0.8374,0 -1.19962,0.914135 -1.19962,0.914135 0,0 -0.10636,-1.041929 0.51409,-1.599671 h -1.37107 c 0.62045,0.557477 0.51408,1.599671 0.51408,1.599671 0,0 -0.36221,-0.914135 -1.19962,-0.914135 -0.69823,0 -1.14247,0.598752 -1.14247,1.142471 0,1.086643 1.24434,1.457854 1.94231,0.914135 z"
       style="stroke-width:0.264583" />
  </g>
</svg>
