<?xml version="1.0" encoding="UTF-8" standalone="no"?>
<!-- Created with Inkscape (http://www.inkscape.org/) -->

<svg
   width="20.902082mm"
   height="32.543751mm"
   viewBox="0 0 20.902082 32.543751"
   version="1.1"
   id="svg9554"
   sodipodi:docname="10_3.svg"
   inkscape:version="1.2 (dc2aedaf03, 2022-05-15)"
   xmlns:inkscape="http://www.inkscape.org/namespaces/inkscape"
   xmlns:sodipodi="http://sodipodi.sourceforge.net/DTD/sodipodi-0.dtd"
   xmlns="http://www.w3.org/2000/svg"
   xmlns:svg="http://www.w3.org/2000/svg">
  <sodipodi:namedview
     id="namedview9556"
     pagecolor="#ffffff"
     bordercolor="#000000"
     borderopacity="0.25"
     inkscape:showpageshadow="2"
     inkscape:pageopacity="0.0"
     inkscape:pagecheckerboard="0"
     inkscape:deskcolor="#d1d1d1"
     inkscape:document-units="mm"
     showgrid="false"
     inkscape:zoom="0.74564394"
     inkscape:cx="316.50495"
     inkscape:cy="148.86462"
     inkscape:window-width="1920"
     inkscape:window-height="1017"
     inkscape:window-x="1912"
     inkscape:window-y="-8"
     inkscape:window-maximized="1"
     inkscape:current-layer="layer1" />
  <defs
     id="defs9551" />
  <g
     inkscape:label="Livello 1"
     inkscape:groupmode="layer"
     id="layer1"
     transform="translate(20.741362,-14.599093)">
    <path
       id="use1087"
       d="m -0.0377168,45.621488 c 0,0.730779 -0.59213749,1.322917 -1.3229166,1.322917 H -19.220008 c -0.730515,0 -1.322917,-0.592138 -1.322917,-1.322917 V 16.120447 c 0,-0.730779 0.592402,-1.322917 1.322917,-1.322917 h 17.8593746 c 0.73077911,0 1.3229166,0.592138 1.3229166,1.322917 z"
       fill="#ffffff"
       stroke="#000000"
       stroke-width="0.396875" />
    <g
       id="use1089"
       fill="none"
       style="stroke:#000000"
       transform="matrix(0.26458333,0,0,0.26458333,-208.59553,14.466801)">
      <path
         d="m 722.25,15.6 c 0,1.19 -1.01,2.15 -2.25,2.15 -1.24,0 -2.25,-0.96 -2.25,-2.15 V 7.4 c 0,-1.19 1.01,-2.15 2.25,-2.15 1.24,0 2.25,0.96 2.25,2.15 z"
         id="path29846" />
      <path
         d="m 714.75,4.75 v 13.5"
         id="path29848" />
    </g>
    <g
       id="use1091"
       fill="none"
       style="stroke:#000000"
       transform="matrix(0.26458333,0,0,0.26458333,-209.12469,14.731384)">
      <path
         d="m 786.25,118.25 v -13.5"
         id="path29840" />
      <path
         d="m 778.75,107.4 c 0,-1.19 1.01,-2.15 2.25,-2.15 1.24,0 2.25,0.96 2.25,2.15 v 8.2 c 0,1.19 -1.01,2.15 -2.25,2.15 -1.24,0 -2.25,-0.96 -2.25,-2.15 z"
         id="path29842" />
    </g>
    <path
       id="use1093"
       d="m -17.303367,21.511332 c -0.03625,-0.562239 -1.153054,-1.620573 -1.189037,-1.885156 -0.03598,0.264583 -1.153054,1.322917 -1.189038,1.885156 -0.02513,0.397669 0.252413,0.56224 0.504561,0.56224 0.360362,0 0.468577,-0.363802 0.50456,-0.463021 0,-0.03307 0.07197,-0.03307 0.07197,0 0.03598,0.09922 -0.238654,0.926042 -0.324379,0.926042 h 0.864658 c -0.08546,0 -0.360098,-0.826823 -0.324379,-0.926042 0,-0.03307 0.07223,-0.03307 0.07223,0 0.03598,0.09922 0.143934,0.463021 0.504296,0.463021 0.252413,0 0.529696,-0.164571 0.50456,-0.56224 z"
       style="stroke-width:0.264583" />
    <path
       id="use1095"
       d="m -3.2772751,40.230603 c 0.036248,0.562239 1.1530542,1.620573 1.1890375,1.885156 0.035983,-0.264583 1.15305415,-1.322917 1.18903748,-1.885156 0.0251354,-0.397669 -0.25241248,-0.56224 -0.50456038,-0.56224 -0.3603625,0 -0.4685771,0.363802 -0.5045604,0.463021 0,0.03307 -0.071967,0.03307 -0.071967,0 -0.035983,-0.09922 0.2386542,-0.926042 0.3243792,-0.926042 h -0.8646584 c 0.08546,0 0.3600979,0.826823 0.3243792,0.926042 0,0.03307 -0.072231,0.03307 -0.072231,0 -0.035983,-0.09922 -0.1439333,-0.463021 -0.5042958,-0.463021 -0.2524125,0 -0.5296958,0.164571 -0.5045604,0.56224 z"
       style="stroke-width:0.264583" />
    <path
       id="use1097"
       d="m -12.409898,21.108636 c -0.06403,-1.073414 -2.049727,-3.093772 -2.113756,-3.599127 -0.06403,0.50509 -2.049727,2.525448 -2.113756,3.599127 -0.04472,0.758825 0.448468,1.073415 0.896937,1.073415 0.640556,0 0.832644,-0.694531 0.896673,-0.883973 0,-0.06323 0.128058,-0.06323 0.128058,0 0.06403,0.189442 -0.424127,1.767946 -0.576527,1.767946 h 1.537494 c -0.1524,0 -0.640556,-1.578504 -0.576527,-1.767946 0,-0.06323 0.128323,-0.06323 0.128323,0 0.06403,0.189442 0.256117,0.883973 0.896673,0.883973 0.448204,-2.65e-4 0.941123,-0.31459 0.896408,-1.073415 z"
       style="stroke-width:0.264583" />
    <path
       id="use1099"
       d="m -12.409898,28.186241 c -0.06403,-1.073415 -2.049727,-3.093773 -2.113756,-3.599128 -0.06403,0.50509 -2.049727,2.525448 -2.113756,3.599128 -0.04472,0.758825 0.448468,1.073414 0.896937,1.073414 0.640556,0 0.832644,-0.694531 0.896673,-0.883973 0,-0.06324 0.128058,-0.06324 0.128058,0 0.06403,0.189442 -0.424127,1.767946 -0.576527,1.767946 h 1.537494 c -0.1524,0 -0.640556,-1.578504 -0.576527,-1.767946 0,-0.06324 0.128323,-0.06324 0.128323,0 0.06403,0.189442 0.256117,0.883973 0.896673,0.883973 0.448204,-2.64e-4 0.941123,-0.314589 0.896408,-1.073414 z"
       style="stroke-width:0.264583" />
    <path
       id="use1101"
       d="m -16.63741,33.555695 c 0.06403,1.073414 2.049727,3.093772 2.113756,3.599127 0.06403,-0.50509 2.049727,-2.525448 2.113756,-3.599127 0.04472,-0.758825 -0.448469,-1.073415 -0.896937,-1.073415 -0.640557,0 -0.832644,0.694531 -0.896673,0.883973 0,0.06323 -0.128059,0.06323 -0.128059,0 -0.06403,-0.189442 0.424127,-1.767946 0.576527,-1.767946 h -1.537493 c 0.1524,0 0.640556,1.578504 0.576527,1.767946 0,0.06323 -0.128323,0.06323 -0.128323,0 -0.06403,-0.189442 -0.256117,-0.883973 -0.896673,-0.883973 -0.448204,2.65e-4 -0.941123,0.31459 -0.896408,1.073415 z"
       style="stroke-width:0.264583" />
    <path
       id="use1103"
       d="m -16.63741,40.633299 c 0.06403,1.073414 2.049727,3.093773 2.113756,3.599127 0.06403,-0.50509 2.049727,-2.525448 2.113756,-3.599127 0.04472,-0.758825 -0.448469,-1.073415 -0.896937,-1.073415 -0.640557,0 -0.832644,0.694531 -0.896673,0.883973 0,0.06323 -0.128059,0.06323 -0.128059,0 -0.06403,-0.189442 0.424127,-1.767946 0.576527,-1.767946 h -1.537493 c 0.1524,0 0.640556,1.578504 0.576527,1.767946 0,0.06323 -0.128323,0.06323 -0.128323,0 -0.06403,-0.189442 -0.256117,-0.883973 -0.896673,-0.883973 -0.448204,2.65e-4 -0.941123,0.31459 -0.896408,1.073415 z"
       style="stroke-width:0.264583" />
    <path
       id="use1105"
       d="m -8.1765646,24.648761 c -0.064029,-1.073414 -2.0497274,-3.093772 -2.1137564,-3.599127 -0.06403,0.50509 -2.049727,2.525448 -2.113756,3.599127 -0.04472,0.758825 0.448469,1.073415 0.896937,1.073415 0.640557,0 0.832644,-0.694531 0.896673,-0.883973 0,-0.06323 0.128059,-0.06323 0.128059,0 0.06403,0.189442 -0.424127,1.767946 -0.576527,1.767946 h 1.5374933 c -0.1524,0 -0.6405563,-1.578504 -0.5765273,-1.767946 0,-0.06323 0.1283232,-0.06323 0.1283232,0 0.064029,0.189442 0.2561166,0.883973 0.8966729,0.883973 0.4482041,-2.65e-4 0.9411229,-0.31459 0.8964083,-1.073415 z"
       style="stroke-width:0.264583" />
    <path
       id="use1107"
       d="m -12.404077,37.093174 c 0.06403,1.073414 2.049727,3.093773 2.113756,3.599127 0.06403,-0.50509 2.0497272,-2.525448 2.1137564,-3.599127 0.044715,-0.758825 -0.4484688,-1.073415 -0.8969375,-1.073415 -0.6405562,0 -0.8326437,0.694531 -0.8966729,0.883973 0,0.06323 -0.128058,0.06323 -0.128058,0 -0.06403,-0.189442 0.4241267,-1.767946 0.5765267,-1.767946 H -11.0592 c 0.1524,0 0.640556,1.578504 0.576527,1.767946 0,0.06323 -0.128323,0.06323 -0.128323,0 -0.06403,-0.189442 -0.256116,-0.883973 -0.896673,-0.883973 -0.448204,2.65e-4 -0.941123,0.31459 -0.896408,1.073415 z"
       style="stroke-width:0.264583" />
    <path
       id="use1109"
       d="m -3.9432313,21.108636 c -0.064029,-1.073414 -2.0497271,-3.093772 -2.1137563,-3.599127 -0.064029,0.50509 -2.049727,2.525448 -2.1137562,3.599127 -0.044715,0.758825 0.4484688,1.073415 0.8969375,1.073415 0.6405563,0 0.8326437,-0.694531 0.8966729,-0.883973 0,-0.06323 0.1280583,-0.06323 0.1280583,0 0.064029,0.189442 -0.424127,1.767946 -0.576527,1.767946 h 1.5374937 c -0.1524,0 -0.6405562,-1.578504 -0.5765271,-1.767946 0,-0.06323 0.1283229,-0.06323 0.1283229,0 0.064029,0.189442 0.2561167,0.883973 0.8966729,0.883973 0.4482042,-2.65e-4 0.941123,-0.31459 0.8964084,-1.073415 z"
       style="stroke-width:0.264583" />
    <path
       id="use1111"
       d="m -3.9432313,28.186241 c -0.064029,-1.073415 -2.0497271,-3.093773 -2.1137563,-3.599128 -0.064029,0.50509 -2.049727,2.525448 -2.1137562,3.599128 -0.044715,0.758825 0.4484688,1.073414 0.8969375,1.073414 0.6405563,0 0.8326437,-0.694531 0.8966729,-0.883973 0,-0.06324 0.1280583,-0.06324 0.1280583,0 0.064029,0.189442 -0.424127,1.767946 -0.576527,1.767946 h 1.5374937 c -0.1524,0 -0.6405562,-1.578504 -0.5765271,-1.767946 0,-0.06324 0.1283229,-0.06324 0.1283229,0 0.064029,0.189442 0.2561167,0.883973 0.8966729,0.883973 0.4482042,-2.64e-4 0.941123,-0.314589 0.8964084,-1.073414 z"
       style="stroke-width:0.264583" />
    <path
       id="use1113"
       d="m -8.1707438,33.555695 c 0.064029,1.073414 2.0497271,3.093772 2.1137562,3.599127 0.064029,-0.50509 2.0497271,-2.525448 2.1137563,-3.599127 0.044715,-0.758825 -0.4484688,-1.073415 -0.8969375,-1.073415 -0.6405563,0 -0.8326438,0.694531 -0.8966729,0.883973 0,0.06323 -0.1280584,0.06323 -0.1280584,0 -0.064029,-0.189442 0.4241271,-1.767946 0.5765271,-1.767946 h -1.5374937 c 0.1524,0 0.6405562,1.578504 0.5765271,1.767946 0,0.06323 -0.128323,0.06323 -0.128323,0 -0.064029,-0.189442 -0.2561166,-0.883973 -0.8966729,-0.883973 -0.4482041,2.65e-4 -0.9411229,0.31459 -0.8964083,1.073415 z"
       style="stroke-width:0.264583" />
    <path
       id="use1115"
       d="m -8.1707438,40.633299 c 0.064029,1.073414 2.0497271,3.093773 2.1137562,3.599127 0.064029,-0.50509 2.0497271,-2.525448 2.1137563,-3.599127 0.044715,-0.758825 -0.4484688,-1.073415 -0.8969375,-1.073415 -0.6405563,0 -0.8326438,0.694531 -0.8966729,0.883973 0,0.06323 -0.1280584,0.06323 -0.1280584,0 -0.064029,-0.189442 0.4241271,-1.767946 0.5765271,-1.767946 h -1.5374937 c 0.1524,0 0.6405562,1.578504 0.5765271,1.767946 0,0.06323 -0.128323,0.06323 -0.128323,0 -0.064029,-0.189442 -0.2561166,-0.883973 -0.8966729,-0.883973 -0.4482041,2.65e-4 -0.9411229,0.31459 -0.8964083,1.073415 z"
       style="stroke-width:0.264583" />
  </g>
</svg>
