<?xml version="1.0" encoding="UTF-8" standalone="no"?>
<!-- Created with Inkscape (http://www.inkscape.org/) -->

<svg
   width="20.902084mm"
   height="32.543751mm"
   viewBox="0 0 20.902084 32.543751"
   version="1.1"
   id="svg9554"
   sodipodi:docname="1_1.svg"
   inkscape:version="1.2 (dc2aedaf03, 2022-05-15)"
   xmlns:inkscape="http://www.inkscape.org/namespaces/inkscape"
   xmlns:sodipodi="http://sodipodi.sourceforge.net/DTD/sodipodi-0.dtd"
   xmlns="http://www.w3.org/2000/svg"
   xmlns:svg="http://www.w3.org/2000/svg">
  <sodipodi:namedview
     id="namedview9556"
     pagecolor="#ffffff"
     bordercolor="#000000"
     borderopacity="0.25"
     inkscape:showpageshadow="2"
     inkscape:pageopacity="0.0"
     inkscape:pagecheckerboard="0"
     inkscape:deskcolor="#d1d1d1"
     inkscape:document-units="mm"
     showgrid="false"
     inkscape:zoom="0.74564394"
     inkscape:cx="303.09373"
     inkscape:cy="-209.21514"
     inkscape:window-width="1920"
     inkscape:window-height="1017"
     inkscape:window-x="1912"
     inkscape:window-y="-8"
     inkscape:window-maximized="1"
     inkscape:current-layer="layer1" />
  <defs
     id="defs9551" />
  <g
     inkscape:label="Livello 1"
     inkscape:groupmode="layer"
     id="layer1"
     transform="translate(-58.387668,-66.760384)">
    <path
       id="use289"
       d="m 79.091314,97.782779 c 0,0.730779 -0.592138,1.322917 -1.322917,1.322917 H 59.909022 c -0.730514,0 -1.322917,-0.592138 -1.322917,-1.322917 V 68.281738 c 0,-0.730779 0.592403,-1.322917 1.322917,-1.322917 h 17.859375 c 0.730779,0 1.322917,0.592138 1.322917,1.322917 z"
       fill="#ffffff"
       stroke="#000000"
       stroke-width="0.396875" />
    <g
       id="use291"
       fill="none"
       style="stroke:#df0000"
       transform="matrix(0.26458333,0,0,0.26458333,58.652251,66.628092)">
      <path
         d="M 3,17.75 H 6.5"
         id="path15208" />
      <path
         d="M 12,17.75 H 8.5"
         id="path15210" />
      <path
         d="m 4.5,17.75 3,-13.25 3,13.25"
         id="path15212" />
      <path
         d="m 5.25,14.5 h 4.5"
         id="path15214" />
    </g>
    <g
       id="use293"
       fill="none"
       style="stroke:#df0000"
       transform="matrix(0.26458333,0,0,0.26458333,58.123085,66.892675)">
      <path
         d="m 73.75,108.5 h -4.5"
         id="path15218" />
      <path
         d="M 76,105.25 H 72.5"
         id="path15220" />
      <path
         d="m 67,105.25 h 3.5"
         id="path15222" />
      <path
         d="m 74.5,105.25 -3,13.25 -3,-13.25"
         id="path15224" />
    </g>
    <path
       id="use295"
       d="m 61.161824,72.548144 c -0.315119,-0.396875 -0.525198,-0.760677 -0.525198,-0.760677 0,0 -0.210079,0.363802 -0.525198,0.760677 -0.315118,0.396875 -0.665427,0.694531 -0.665427,0.694531 0,0 0.350309,0.297656 0.665427,0.694531 0.315119,0.396875 0.525198,0.760677 0.525198,0.760677 0,0 0.210079,-0.363802 0.525198,-0.760677 0.315119,-0.396875 0.665427,-0.694531 0.665427,-0.694531 0,0 -0.350043,-0.297656 -0.665427,-0.694531 z"
       fill="#df0000"
       style="stroke-width:0.264583" />
    <path
       id="use297"
       d="m 77.565991,92.12731 c -0.315119,-0.396875 -0.525198,-0.760677 -0.525198,-0.760677 0,0 -0.210079,0.363802 -0.525198,0.760677 -0.315119,0.396875 -0.665427,0.694532 -0.665427,0.694532 0,0 0.350308,0.297656 0.665427,0.694531 0.315119,0.396875 0.525198,0.760677 0.525198,0.760677 0,0 0.210079,-0.363802 0.525198,-0.760677 0.315118,-0.396875 0.665427,-0.694531 0.665427,-0.694531 0,0 -0.350044,-0.297657 -0.665427,-0.694532 z"
       fill="#df0000"
       style="stroke-width:0.264583" />
    <path
       id="use299"
       d="m 69.772424,81.706431 c -0.560123,-0.757766 -0.933714,-1.452298 -0.933714,-1.452298 0,0 -0.373592,0.694532 -0.933715,1.452298 -0.560123,0.757767 -1.182952,1.325827 -1.182952,1.325827 0,0 0.622564,0.568061 1.182952,1.326092 0.560387,0.758031 0.933715,1.452033 0.933715,1.452033 0,0 0.373591,-0.694531 0.933714,-1.452033 0.560123,-0.757502 1.182952,-1.326092 1.182952,-1.326092 0,0 -0.622564,-0.568325 -1.182952,-1.325827 z"
       fill="#df0000"
       style="stroke-width:0.264583" />
  </g>
</svg>
