<?xml version="1.0" encoding="UTF-8" standalone="no"?>
<!-- Created with Inkscape (http://www.inkscape.org/) -->

<svg
   width="20.902084mm"
   height="32.543743mm"
   viewBox="0 0 20.902084 32.543743"
   version="1.1"
   id="svg19129"
   inkscape:version="1.2 (dc2aedaf03, 2022-05-15)"
   sodipodi:docname="1_2.svg"
   xmlns:inkscape="http://www.inkscape.org/namespaces/inkscape"
   xmlns:sodipodi="http://sodipodi.sourceforge.net/DTD/sodipodi-0.dtd"
   xmlns="http://www.w3.org/2000/svg"
   xmlns:svg="http://www.w3.org/2000/svg">
  <sodipodi:namedview
     id="namedview19131"
     pagecolor="#ffffff"
     bordercolor="#000000"
     borderopacity="0.25"
     inkscape:showpageshadow="2"
     inkscape:pageopacity="0.0"
     inkscape:pagecheckerboard="0"
     inkscape:deskcolor="#d1d1d1"
     inkscape:document-units="mm"
     showgrid="false"
     inkscape:zoom="1.4912879"
     inkscape:cx="33.528067"
     inkscape:cy="79.7968"
     inkscape:window-width="1920"
     inkscape:window-height="1017"
     inkscape:window-x="1912"
     inkscape:window-y="-8"
     inkscape:window-maximized="1"
     inkscape:current-layer="layer1" />
  <defs
     id="defs19126" />
  <g
     inkscape:label="Livello 1"
     inkscape:groupmode="layer"
     id="layer1"
     transform="translate(-95.934314,-128.25163)">
    <path
       id="use277"
       d="m 116.63796,159.27403 c 0,0.73077 -0.59214,1.32291 -1.32292,1.32291 H 97.455668 c -0.730514,0 -1.322917,-0.59214 -1.322917,-1.32291 v -29.50105 c 0,-0.73078 0.592403,-1.32291 1.322917,-1.32291 h 17.859372 c 0.73078,0 1.32292,0.59213 1.32292,1.32291 z"
       fill="#ffffff"
       stroke="#000000"
       stroke-width="0.396875" />
    <g
       id="use279"
       fill="none"
       style="stroke:#000000"
       transform="matrix(0.26458333,0,0,0.26458333,96.198897,128.11934)">
      <path
         d="M 3,17.75 H 6.5"
         id="path9196" />
      <path
         d="M 12,17.75 H 8.5"
         id="path9198" />
      <path
         d="m 4.5,17.75 3,-13.25 3,13.25"
         id="path9200" />
      <path
         d="m 5.25,14.5 h 4.5"
         id="path9202" />
    </g>
    <g
       id="use281"
       fill="none"
       style="stroke:#000000"
       transform="matrix(0.26458333,0,0,0.26458333,95.669729,128.38392)">
      <path
         d="m 73.75,108.5 h -4.5"
         id="path9206" />
      <path
         d="M 76,105.25 H 72.5"
         id="path9208" />
      <path
         d="m 67,105.25 h 3.5"
         id="path9210" />
      <path
         d="m 74.5,105.25 -3,13.25 -3,-13.25"
         id="path9212" />
    </g>
    <path
       id="use283"
       d="m 98.484104,134.61354 c 0,0 0.330729,-0.26459 0.330729,-0.6313 0,-0.21484 -0.191029,-0.57124 -0.631561,-0.57124 -0.440531,0 -0.631296,0.35666 -0.631296,0.57124 0,0.36671 0.33073,0.6313 0.33073,0.6313 -0.367507,-0.28602 -1.02235,-0.0908 -1.02235,0.48101 0,0.28628 0.233891,0.6014 0.601398,0.6014 0.440795,0 0.631295,-0.48102 0.631295,-0.48102 0,0 0.05583,0.54822 -0.270668,0.84191 h 0.721518 c -0.326495,-0.29342 -0.270404,-0.84191 -0.270404,-0.84191 0,0 0.190765,0.48102 0.631561,0.48102 0.367506,0 0.601133,-0.31512 0.601133,-0.6014 0,-0.57177 -0.655108,-0.76703 -1.022085,-0.48101 z"
       style="stroke-width:0.264583" />
    <path
       id="use285"
       d="m 114.28661,154.43347 c 0,0 -0.33073,0.26459 -0.33073,0.6313 0,0.21484 0.19103,0.57123 0.63156,0.57123 0.44053,0 0.63129,-0.35665 0.63129,-0.57123 0,-0.36671 -0.33073,-0.6313 -0.33073,-0.6313 0.36751,0.28602 1.02235,0.0908 1.02235,-0.48101 0,-0.28628 -0.23389,-0.6014 -0.60139,-0.6014 -0.4408,0 -0.6313,0.48102 -0.6313,0.48102 0,0 -0.0558,-0.54822 0.27067,-0.84191 h -0.72152 c 0.3265,0.29342 0.27041,0.84191 0.27041,0.84191 0,0 -0.19077,-0.48102 -0.63157,-0.48102 -0.3675,0 -0.60113,0.31512 -0.60113,0.6014 0,0.57177 0.65511,0.76703 1.02209,0.48101 z"
       style="stroke-width:0.264583" />
    <path
       id="use287"
       d="m 106.95659,144.2949 c 0,0 0.62839,-0.5027 0.62839,-1.19962 0,-0.40798 -0.36222,-1.08532 -1.19962,-1.08532 -0.83741,0 -1.19963,0.6776 -1.19963,1.08532 0,0.69692 0.62839,1.19962 0.62839,1.19962 -0.69797,-0.54371 -1.94231,-0.1725 -1.94231,0.91414 0,0.54398 0.4445,1.14247 1.14247,1.14247 0.83741,0 1.19963,-0.91413 1.19963,-0.91413 0,0 0.10636,1.04192 -0.51409,1.59967 h 1.37107 c -0.62045,-0.55748 -0.51408,-1.59967 -0.51408,-1.59967 0,0 0.36221,0.91413 1.19962,0.91413 0.69823,0 1.14247,-0.59875 1.14247,-1.14247 0,-1.08664 -1.24434,-1.45785 -1.94231,-0.91414 z"
       style="stroke-width:0.264583" />
  </g>
</svg>
