<?xml version="1.0" encoding="UTF-8" standalone="no"?>
<!-- Created with Inkscape (http://www.inkscape.org/) -->

<svg
   width="20.902082mm"
   height="32.543755mm"
   viewBox="0 0 20.902082 32.543755"
   version="1.1"
   id="svg9554"
   sodipodi:docname="1_3.svg"
   inkscape:version="1.2 (dc2aedaf03, 2022-05-15)"
   xmlns:inkscape="http://www.inkscape.org/namespaces/inkscape"
   xmlns:sodipodi="http://sodipodi.sourceforge.net/DTD/sodipodi-0.dtd"
   xmlns="http://www.w3.org/2000/svg"
   xmlns:svg="http://www.w3.org/2000/svg">
  <sodipodi:namedview
     id="namedview9556"
     pagecolor="#ffffff"
     bordercolor="#000000"
     borderopacity="0.25"
     inkscape:showpageshadow="2"
     inkscape:pageopacity="0.0"
     inkscape:pagecheckerboard="0"
     inkscape:deskcolor="#d1d1d1"
     inkscape:document-units="mm"
     showgrid="false"
     inkscape:zoom="0.74564394"
     inkscape:cx="241.40208"
     inkscape:cy="-111.31318"
     inkscape:window-width="1920"
     inkscape:window-height="1017"
     inkscape:window-x="1912"
     inkscape:window-y="-8"
     inkscape:window-maximized="1"
     inkscape:current-layer="layer1" />
  <defs
     id="defs9551" />
  <g
     inkscape:label="Livello 1"
     inkscape:groupmode="layer"
     id="layer1"
     transform="translate(-6.2263778,-74.921674)">
    <path
       id="use313"
       d="m 26.930023,105.94407 c 0,0.73078 -0.592137,1.32292 -1.322916,1.32292 H 7.7477319 c -0.7305145,0 -1.3229166,-0.59214 -1.3229166,-1.32292 V 76.443028 c 0,-0.730779 0.5924021,-1.322917 1.3229166,-1.322917 H 25.607107 c 0.730779,0 1.322916,0.592138 1.322916,1.322917 z"
       fill="#ffffff"
       stroke="#000000"
       stroke-width="0.396875" />
    <g
       id="use315"
       fill="none"
       style="stroke:#000000"
       transform="matrix(0.26458333,0,0,0.26458333,6.4909611,74.789382)">
      <path
         d="M 3,17.75 H 6.5"
         id="path28613" />
      <path
         d="M 12,17.75 H 8.5"
         id="path28615" />
      <path
         d="m 4.5,17.75 3,-13.25 3,13.25"
         id="path28617" />
      <path
         d="m 5.25,14.5 h 4.5"
         id="path28619" />
    </g>
    <g
       id="use317"
       fill="none"
       style="stroke:#000000"
       transform="matrix(0.26458333,0,0,0.26458333,5.9617945,75.053965)">
      <path
         d="m 73.75,108.5 h -4.5"
         id="path28623" />
      <path
         d="M 76,105.25 H 72.5"
         id="path28625" />
      <path
         d="m 67,105.25 h 3.5"
         id="path28627" />
      <path
         d="m 74.5,105.25 -3,13.25 -3,-13.25"
         id="path28629" />
    </g>
    <path
       id="use319"
       d="M 9.6643736,81.833913 C 9.6281257,81.271674 8.5113194,80.21334 8.4753361,79.948757 8.4393528,80.21334 7.322282,81.271674 7.2862986,81.833913 c -0.025135,0.397669 0.2524125,0.56224 0.5045604,0.56224 0.3603625,0 0.4685771,-0.363802 0.5045604,-0.463021 0,-0.03307 0.071967,-0.03307 0.071967,0 0.035983,0.09922 -0.2386542,0.926042 -0.3243792,0.926042 h 0.8646584 c -0.08546,0 -0.3600979,-0.826823 -0.3243792,-0.926042 0,-0.03307 0.072231,-0.03307 0.072231,0 0.035983,0.09922 0.1439333,0.463021 0.5042958,0.463021 0.2524125,0 0.5296958,-0.164571 0.5045604,-0.56224 z"
       style="stroke-width:0.264583" />
    <path
       id="use321"
       d="m 23.690465,100.55318 c 0.03625,0.56224 1.153054,1.62058 1.189038,1.88516 0.03598,-0.26458 1.153054,-1.32292 1.189037,-1.88516 0.02514,-0.39766 -0.252412,-0.562236 -0.50456,-0.562236 -0.360363,0 -0.468577,0.363806 -0.504561,0.463026 0,0.0331 -0.07197,0.0331 -0.07197,0 -0.03598,-0.0992 0.238654,-0.926047 0.324379,-0.926047 h -0.864659 c 0.08546,0 0.360098,0.826827 0.32438,0.926047 0,0.0331 -0.07223,0.0331 -0.07223,0 -0.03598,-0.0992 -0.143933,-0.463026 -0.504296,-0.463026 -0.252412,0 -0.529695,0.164576 -0.50456,0.562236 z"
       style="stroke-width:0.264583" />
    <path
       id="use323"
       d="m 18.791176,92.014551 c -0.06403,-1.073415 -2.049727,-3.093773 -2.113757,-3.599127 -0.06403,0.505089 -2.049727,2.525447 -2.113756,3.599127 -0.04471,0.758825 0.448469,1.073414 0.896938,1.073414 0.640556,0 0.832643,-0.694531 0.896673,-0.883973 0,-0.06324 0.128058,-0.06324 0.128058,0 0.06403,0.189442 -0.424127,1.767946 -0.576527,1.767946 h 1.537493 c -0.1524,0 -0.640556,-1.578504 -0.576527,-1.767946 0,-0.06324 0.128323,-0.06324 0.128323,0 0.06403,0.189442 0.256117,0.883973 0.896673,0.883973 0.448204,-2.64e-4 0.941123,-0.314589 0.896409,-1.073414 z"
       style="stroke-width:0.264583" />
  </g>
</svg>
