<?xml version="1.0" encoding="UTF-8" standalone="no"?>
<!-- Created with Inkscape (http://www.inkscape.org/) -->

<svg
   width="20.902082mm"
   height="32.543751mm"
   viewBox="0 0 20.902082 32.543751"
   version="1.1"
   id="svg9554"
   sodipodi:docname="2_0.svg"
   inkscape:version="1.2 (dc2aedaf03, 2022-05-15)"
   xmlns:inkscape="http://www.inkscape.org/namespaces/inkscape"
   xmlns:sodipodi="http://sodipodi.sourceforge.net/DTD/sodipodi-0.dtd"
   xmlns="http://www.w3.org/2000/svg"
   xmlns:svg="http://www.w3.org/2000/svg">
  <sodipodi:namedview
     id="namedview9556"
     pagecolor="#ffffff"
     bordercolor="#000000"
     borderopacity="0.25"
     inkscape:showpageshadow="2"
     inkscape:pageopacity="0.0"
     inkscape:pagecheckerboard="0"
     inkscape:deskcolor="#d1d1d1"
     inkscape:document-units="mm"
     showgrid="false"
     inkscape:zoom="0.74564394"
     inkscape:cx="-105.94869"
     inkscape:cy="-72.420625"
     inkscape:window-width="1920"
     inkscape:window-height="1017"
     inkscape:window-x="1912"
     inkscape:window-y="-8"
     inkscape:window-maximized="1"
     inkscape:current-layer="layer1" />
  <defs
     id="defs9551" />
  <g
     inkscape:label="Livello 1"
     inkscape:groupmode="layer"
     id="layer1"
     transform="translate(-73.290895,-52.211997)">
    <path
       id="use353"
       d="m 93.99454,83.234392 c 0,0.730779 -0.592138,1.322916 -1.322917,1.322916 H 74.812248 c -0.730514,0 -1.322916,-0.592137 -1.322916,-1.322916 V 53.73335 c 0,-0.730779 0.592402,-1.322916 1.322916,-1.322916 h 17.859375 c 0.730779,0 1.322917,0.592137 1.322917,1.322916 z"
       fill="#ffffff"
       stroke="#000000"
       stroke-width="0.396875" />
    <g
       id="use355"
       fill="none"
       style="stroke:#df0000"
       transform="matrix(0.26458333,0,0,0.26458333,52.653394,52.079705)">
      <path
         d="m 90.25,15.5 v 2.25 h -7.5 V 16.5 c 0,-3.25 7.5,-3.75 7.5,-7.75 0,-2.75 -1.25,-3.5 -3.75,-3.5 -2.5,0 -3.75,1.5 -3.75,3"
         id="path22970" />
    </g>
    <g
       id="use357"
       fill="none"
       style="stroke:#df0000"
       transform="matrix(0.26458333,0,0,0.26458333,52.124228,52.344288)">
      <path
         d="m 146.75,107.5 v -2.25 h 7.5 v 1.25 c 0,3.25 -7.5,3.75 -7.5,7.75 0,2.75 1.25,3.5 3.75,3.5 2.5,0 3.75,-1.5 3.75,-3"
         id="path22966" />
    </g>
    <path
       id="use359"
       d="m 76.086746,57.371371 c -0.4826,0 -0.546894,0.511175 -0.546894,0.511175 0,0 -0.06429,-0.511175 -0.546893,-0.511175 -0.337873,0 -0.643732,0.229129 -0.643732,0.661458 0,0.571236 1.07024,1.571096 1.190625,1.984375 0.12118,-0.413543 1.190625,-1.413139 1.190625,-1.984375 0,-0.432329 -0.305593,-0.661458 -0.643731,-0.661458 z"
       fill="#df0000"
       style="stroke-width:0.264583" />
    <path
       id="use361"
       d="m 91.397125,79.596371 c 0.4826,0 0.546894,-0.511175 0.546894,-0.511175 0,0 0.06429,0.511175 0.546894,0.511175 0.337872,0 0.643731,-0.229129 0.643731,-0.661458 0,-0.571236 -1.07024,-1.571096 -1.190625,-1.984375 -0.121179,0.413543 -1.190625,1.413139 -1.190625,1.984375 0,0.432329 0.305594,0.661458 0.643731,0.661458 z"
       fill="#df0000"
       style="stroke-width:0.264583" />
    <path
       id="use363"
       d="m 84.714544,55.519288 c -0.858044,0 -0.972608,0.919956 -0.972608,0.919956 0,0 -0.114565,-0.919956 -0.972609,-0.919956 -0.600604,0 -1.144058,0.412485 -1.144058,1.190625 0,1.028171 1.902619,2.828131 2.116667,3.571875 0.215106,-0.744538 2.116666,-2.543704 2.116666,-3.571875 0,-0.77814 -0.543454,-1.190625 -1.144058,-1.190625 z"
       fill="#df0000"
       style="stroke-width:0.264583" />
    <path
       id="use365"
       d="m 82.769327,81.448454 c 0.858044,0 0.972609,-0.919956 0.972609,-0.919956 0,0 0.114564,0.919956 0.972608,0.919956 0.600604,0 1.144058,-0.412485 1.144058,-1.190625 0,-1.028171 -1.902618,-2.828131 -2.116666,-3.571875 -0.215107,0.744538 -2.116667,2.543704 -2.116667,3.571875 0,0.77814 0.543454,1.190625 1.144058,1.190625 z"
       fill="#df0000"
       style="stroke-width:0.264583" />
  </g>
</svg>
