<?xml version="1.0" encoding="UTF-8" standalone="no"?>
<!-- Created with Inkscape (http://www.inkscape.org/) -->

<svg
   width="20.902082mm"
   height="32.543751mm"
   viewBox="0 0 20.902082 32.543751"
   version="1.1"
   id="svg9554"
   sodipodi:docname="2_1.svg"
   inkscape:version="1.2 (dc2aedaf03, 2022-05-15)"
   xmlns:inkscape="http://www.inkscape.org/namespaces/inkscape"
   xmlns:sodipodi="http://sodipodi.sourceforge.net/DTD/sodipodi-0.dtd"
   xmlns="http://www.w3.org/2000/svg"
   xmlns:svg="http://www.w3.org/2000/svg">
  <sodipodi:namedview
     id="namedview9556"
     pagecolor="#ffffff"
     bordercolor="#000000"
     borderopacity="0.25"
     inkscape:showpageshadow="2"
     inkscape:pageopacity="0.0"
     inkscape:pagecheckerboard="0"
     inkscape:deskcolor="#d1d1d1"
     inkscape:document-units="mm"
     showgrid="false"
     inkscape:zoom="0.74564394"
     inkscape:cx="351.37414"
     inkscape:cy="-36.210312"
     inkscape:window-width="1920"
     inkscape:window-height="1017"
     inkscape:window-x="1912"
     inkscape:window-y="-8"
     inkscape:window-maximized="1"
     inkscape:current-layer="layer1" />
  <defs
     id="defs9551" />
  <g
     inkscape:label="Livello 1"
     inkscape:groupmode="layer"
     id="layer1"
     transform="translate(12.934912,45.723487)">
    <path
       id="use339"
       d="m 7.7687326,-14.701092 c 0,0.730779 -0.5921375,1.322917 -1.3229166,1.322917 h -17.859375 c -0.730514,0 -1.322916,-0.592138 -1.322916,-1.322917 v -29.501041 c 0,-0.730779 0.592402,-1.322917 1.322916,-1.322917 H 6.445816 c 0.7307791,0 1.3229166,0.592138 1.3229166,1.322917 z"
       fill="#ffffff"
       stroke="#000000"
       stroke-width="0.396875" />
    <g
       id="use341"
       fill="none"
       style="stroke:#df0000"
       transform="matrix(0.26458333,0,0,0.26458333,-33.572413,-45.855779)">
      <path
         d="m 90.25,15.5 v 2.25 h -7.5 V 16.5 c 0,-3.25 7.5,-3.75 7.5,-7.75 0,-2.75 -1.25,-3.5 -3.75,-3.5 -2.5,0 -3.75,1.5 -3.75,3"
         id="path15331" />
    </g>
    <g
       id="use343"
       fill="none"
       style="stroke:#df0000"
       transform="matrix(0.26458333,0,0,0.26458333,-34.101579,-45.591196)">
      <path
         d="m 146.75,107.5 v -2.25 h 7.5 v 1.25 c 0,3.25 -7.5,3.75 -7.5,7.75 0,2.75 1.25,3.5 3.75,3.5 2.5,0 3.75,-1.5 3.75,-3"
         id="path15327" />
    </g>
    <path
       id="use345"
       d="m -10.160757,-39.935727 c -0.315118,-0.396875 -0.525198,-0.760677 -0.525198,-0.760677 0,0 -0.210079,0.363802 -0.525198,0.760677 -0.315118,0.396875 -0.665427,0.694531 -0.665427,0.694531 0,0 0.350309,0.297656 0.665427,0.694531 0.315119,0.396875 0.525198,0.760677 0.525198,0.760677 0,0 0.21008,-0.363802 0.525198,-0.760677 0.315119,-0.396875 0.6654274,-0.694531 0.6654274,-0.694531 0,0 -0.3500438,-0.297656 -0.6654274,-0.694531 z"
       fill="#df0000"
       style="stroke-width:0.264583" />
    <path
       id="use347"
       d="m 6.2434097,-20.356561 c -0.3151187,-0.396875 -0.5251979,-0.760677 -0.5251979,-0.760677 0,0 -0.2100791,0.363802 -0.5251979,0.760677 -0.3151187,0.396875 -0.6654271,0.694532 -0.6654271,0.694532 0,0 0.3503084,0.297656 0.6654271,0.694531 0.3151188,0.396875 0.5251979,0.760677 0.5251979,0.760677 0,0 0.2100792,-0.363802 0.5251979,-0.760677 0.3151188,-0.396875 0.6654271,-0.694531 0.6654271,-0.694531 0,0 -0.3500437,-0.297657 -0.6654271,-0.694532 z"
       fill="#df0000"
       style="stroke-width:0.264583" />
    <path
       id="use349"
       d="m -1.5501568,-41.360773 c -0.5601229,-0.757767 -0.9337146,-1.452298 -0.9337146,-1.452298 0,0 -0.3735917,0.694531 -0.9337146,1.452298 -0.5601229,0.757767 -1.182952,1.325827 -1.182952,1.325827 0,0 0.6225645,0.568061 1.182952,1.326092 0.5603875,0.758031 0.9337146,1.452033 0.9337146,1.452033 0,0 0.3735917,-0.694531 0.9337146,-1.452033 0.56012289,-0.757502 1.18295205,-1.326092 1.18295205,-1.326092 0,0 -0.62256458,-0.568325 -1.18295205,-1.325827 z"
       fill="#df0000"
       style="stroke-width:0.264583" />
    <path
       id="use351"
       d="m -1.5501568,-20.194106 c -0.5601229,-0.757767 -0.9337146,-1.452298 -0.9337146,-1.452298 0,0 -0.3735917,0.694531 -0.9337146,1.452298 -0.5601229,0.757766 -1.182952,1.325827 -1.182952,1.325827 0,0 0.6225645,0.56806 1.182952,1.326091 0.5603875,0.758031 0.9337146,1.452034 0.9337146,1.452034 0,0 0.3735917,-0.694532 0.9337146,-1.452034 0.56012289,-0.757502 1.18295205,-1.326091 1.18295205,-1.326091 0,0 -0.62256458,-0.568325 -1.18295205,-1.325827 z"
       fill="#df0000"
       style="stroke-width:0.264583" />
  </g>
</svg>
