<?xml version="1.0" encoding="UTF-8" standalone="no"?>
<!-- Created with Inkscape (http://www.inkscape.org/) -->

<svg
   width="20.902082mm"
   height="32.543751mm"
   viewBox="0 0 20.902082 32.543751"
   version="1.1"
   id="svg9376"
   inkscape:version="1.2 (dc2aedaf03, 2022-05-15)"
   sodipodi:docname="2_2.svg"
   xmlns:inkscape="http://www.inkscape.org/namespaces/inkscape"
   xmlns:sodipodi="http://sodipodi.sourceforge.net/DTD/sodipodi-0.dtd"
   xmlns="http://www.w3.org/2000/svg"
   xmlns:svg="http://www.w3.org/2000/svg">
  <sodipodi:namedview
     id="namedview9378"
     pagecolor="#ffffff"
     bordercolor="#000000"
     borderopacity="0.25"
     inkscape:showpageshadow="2"
     inkscape:pageopacity="0.0"
     inkscape:pagecheckerboard="0"
     inkscape:deskcolor="#d1d1d1"
     inkscape:document-units="mm"
     showgrid="false"
     inkscape:zoom="0.74564394"
     inkscape:cx="48.280417"
     inkscape:cy="189.0983"
     inkscape:window-width="1920"
     inkscape:window-height="1017"
     inkscape:window-x="1912"
     inkscape:window-y="-8"
     inkscape:window-maximized="1"
     inkscape:current-layer="layer1" />
  <defs
     id="defs9373" />
  <g
     inkscape:label="Livello 1"
     inkscape:groupmode="layer"
     id="layer1"
     transform="translate(-92.097346,-98.695867)">
    <path
       id="use325"
       d="m 112.80099,129.71826 c 0,0.73078 -0.59214,1.32292 -1.32292,1.32292 H 93.618699 c -0.730514,0 -1.322916,-0.59214 -1.322916,-1.32292 v -29.50104 c 0,-0.730778 0.592402,-1.322916 1.322916,-1.322916 h 17.859371 c 0.73078,0 1.32292,0.592138 1.32292,1.322916 z"
       fill="#ffffff"
       stroke="#000000"
       stroke-width="0.396875" />
    <g
       id="use327"
       fill="none"
       style="stroke:#000000"
       transform="matrix(0.26458333,0,0,0.26458333,71.459845,98.563575)">
      <path
         d="m 90.25,15.5 v 2.25 h -7.5 V 16.5 c 0,-3.25 7.5,-3.75 7.5,-7.75 0,-2.75 -1.25,-3.5 -3.75,-3.5 -2.5,0 -3.75,1.5 -3.75,3"
         id="path9434" />
    </g>
    <g
       id="use329"
       fill="none"
       style="stroke:#000000"
       transform="matrix(0.26458333,0,0,0.26458333,70.930679,98.828159)">
      <path
         d="m 146.75,107.5 v -2.25 h 7.5 v 1.25 c 0,3.25 -7.5,3.75 -7.5,7.75 0,2.75 1.25,3.5 3.75,3.5 2.5,0 3.75,-1.5 3.75,-3"
         id="path9430" />
    </g>
    <path
       id="use331"
       d="m 94.647135,105.05777 c 0,0 0.330729,-0.26458 0.330729,-0.63129 0,-0.21484 -0.191029,-0.57124 -0.631561,-0.57124 -0.440531,0 -0.631295,0.35666 -0.631295,0.57124 0,0.36671 0.330729,0.63129 0.330729,0.63129 -0.367507,-0.28601 -1.02235,-0.0907 -1.02235,0.48102 0,0.28627 0.233891,0.60139 0.601398,0.60139 0.440795,0 0.631295,-0.48101 0.631295,-0.48101 0,0 0.05583,0.54822 -0.270668,0.84191 h 0.721518 c -0.326495,-0.29343 -0.270404,-0.84191 -0.270404,-0.84191 0,0 0.190765,0.48101 0.631561,0.48101 0.367506,0 0.601133,-0.31512 0.601133,-0.60139 0,-0.57177 -0.655108,-0.76703 -1.022085,-0.48102 z"
       style="stroke-width:0.264583" />
    <path
       id="use333"
       d="m 110.44964,124.87771 c 0,0 -0.33073,0.26458 -0.33073,0.6313 0,0.21484 0.19103,0.57123 0.63156,0.57123 0.44053,0 0.6313,-0.35666 0.6313,-0.57123 0,-0.36672 -0.33073,-0.6313 -0.33073,-0.6313 0.3675,0.28601 1.02235,0.0907 1.02235,-0.48101 0,-0.28628 -0.2339,-0.6014 -0.6014,-0.6014 -0.4408,0 -0.6313,0.48101 -0.6313,0.48101 0,0 -0.0558,-0.54821 0.27067,-0.8419 h -0.72152 c 0.3265,0.29342 0.27041,0.8419 0.27041,0.8419 0,0 -0.19077,-0.48101 -0.63156,-0.48101 -0.36751,0 -0.60114,0.31512 -0.60114,0.6014 0,0.57176 0.65511,0.76702 1.02209,0.48101 z"
       style="stroke-width:0.264583" />
    <path
       id="use335"
       d="m 103.11962,104.15581 c 0,0 0.62839,-0.50271 0.62839,-1.19962 0,-0.40799 -0.36222,-1.08532 -1.19962,-1.08532 -0.83741,0 -1.19962,0.67759 -1.19962,1.08532 0,0.69691 0.62838,1.19962 0.62838,1.19962 -0.69797,-0.54372 -1.94231,-0.17251 -1.94231,0.91413 0,0.54399 0.4445,1.14247 1.14248,1.14247 0.8374,0 1.19962,-0.91413 1.19962,-0.91413 0,0 0.10636,1.04193 -0.51409,1.59967 h 1.37107 c -0.62045,-0.55748 -0.51408,-1.59967 -0.51408,-1.59967 0,0 0.36221,0.91413 1.19962,0.91413 0.69823,0 1.14247,-0.59875 1.14247,-1.14247 0,-1.08664 -1.24434,-1.45785 -1.94231,-0.91413 z"
       style="stroke-width:0.264583" />
    <path
       id="use337"
       d="m 101.97715,125.77967 c 0,0 -0.62838,0.50271 -0.62838,1.19963 0,0.40798 0.36221,1.08532 1.19962,1.08532 0.8374,0 1.19962,-0.6776 1.19962,-1.08532 0,-0.69692 -0.62839,-1.19963 -0.62839,-1.19963 0.69797,0.54372 1.94231,0.17251 1.94231,-0.91413 0,-0.54398 -0.4445,-1.14247 -1.14247,-1.14247 -0.83741,0 -1.19962,0.91413 -1.19962,0.91413 0,0 -0.10637,-1.04192 0.51408,-1.59967 h -1.37107 c 0.62045,0.55748 0.51409,1.59967 0.51409,1.59967 0,0 -0.36222,-0.91413 -1.19962,-0.91413 -0.69824,0 -1.14248,0.59875 -1.14248,1.14247 0,1.08664 1.24434,1.45785 1.94231,0.91413 z"
       style="stroke-width:0.264583" />
  </g>
</svg>
