<?xml version="1.0" encoding="UTF-8" standalone="no"?>
<!-- Created with Inkscape (http://www.inkscape.org/) -->

<svg
   width="20.902082mm"
   height="32.543751mm"
   viewBox="0 0 20.902082 32.543751"
   version="1.1"
   id="svg9554"
   sodipodi:docname="2_3.svg"
   inkscape:version="1.2 (dc2aedaf03, 2022-05-15)"
   xmlns:inkscape="http://www.inkscape.org/namespaces/inkscape"
   xmlns:sodipodi="http://sodipodi.sourceforge.net/DTD/sodipodi-0.dtd"
   xmlns="http://www.w3.org/2000/svg"
   xmlns:svg="http://www.w3.org/2000/svg">
  <sodipodi:namedview
     id="namedview9556"
     pagecolor="#ffffff"
     bordercolor="#000000"
     borderopacity="0.25"
     inkscape:showpageshadow="2"
     inkscape:pageopacity="0.0"
     inkscape:pagecheckerboard="0"
     inkscape:deskcolor="#d1d1d1"
     inkscape:document-units="mm"
     showgrid="false"
     inkscape:zoom="0.74564394"
     inkscape:cx="107.28981"
     inkscape:cy="-214.57963"
     inkscape:window-width="1920"
     inkscape:window-height="1017"
     inkscape:window-x="1912"
     inkscape:window-y="-8"
     inkscape:window-maximized="1"
     inkscape:current-layer="layer1" />
  <defs
     id="defs9551" />
  <g
     inkscape:label="Livello 1"
     inkscape:groupmode="layer"
     id="layer1"
     transform="translate(-35.323153,-27.373287)">
    <path
       id="use367"
       d="m 56.026798,58.395682 c 0,0.730779 -0.592138,1.322917 -1.322917,1.322917 H 36.844506 c -0.730514,0 -1.322916,-0.592138 -1.322916,-1.322917 V 28.894641 c 0,-0.730779 0.592402,-1.322917 1.322916,-1.322917 h 17.859375 c 0.730779,0 1.322917,0.592138 1.322917,1.322917 z"
       fill="#ffffff"
       stroke="#000000"
       stroke-width="0.396875" />
    <g
       id="use369"
       fill="none"
       style="stroke:#000000"
       transform="matrix(0.26458333,0,0,0.26458333,14.685652,27.240995)">
      <path
         d="m 90.25,15.5 v 2.25 h -7.5 V 16.5 c 0,-3.25 7.5,-3.75 7.5,-7.75 0,-2.75 -1.25,-3.5 -3.75,-3.5 -2.5,0 -3.75,1.5 -3.75,3"
         id="path28754" />
    </g>
    <g
       id="use371"
       fill="none"
       style="stroke:#000000"
       transform="matrix(0.26458333,0,0,0.26458333,14.156486,27.505578)">
      <path
         d="m 146.75,107.5 v -2.25 h 7.5 v 1.25 c 0,3.25 -7.5,3.75 -7.5,7.75 0,2.75 1.25,3.5 3.75,3.5 2.5,0 3.75,-1.5 3.75,-3"
         id="path28750" />
    </g>
    <path
       id="use373"
       d="M 38.761148,34.285526 C 38.7249,33.723287 37.608094,32.664953 37.57211,32.40037 c -0.03598,0.264583 -1.153054,1.322917 -1.189037,1.885156 -0.02514,0.397669 0.252412,0.56224 0.50456,0.56224 0.360363,0 0.468577,-0.363802 0.504561,-0.463021 0,-0.03307 0.07197,-0.03307 0.07197,0 0.03598,0.09922 -0.238654,0.926042 -0.324379,0.926042 h 0.864659 c -0.08546,0 -0.360098,-0.826823 -0.32438,-0.926042 0,-0.03307 0.07223,-0.03307 0.07223,0 0.03598,0.09922 0.143933,0.463021 0.504295,0.463021 0.252413,0 0.529696,-0.164571 0.504561,-0.56224 z"
       style="stroke-width:0.264583" />
    <path
       id="use375"
       d="m 52.787239,53.004797 c 0.03625,0.562239 1.153055,1.620573 1.189038,1.885156 0.03598,-0.264583 1.153054,-1.322917 1.189037,-1.885156 0.02514,-0.397669 -0.252412,-0.56224 -0.50456,-0.56224 -0.360363,0 -0.468577,0.363802 -0.504561,0.463021 0,0.03307 -0.07197,0.03307 -0.07197,0 -0.03598,-0.09922 0.238654,-0.926042 0.324379,-0.926042 h -0.864658 c 0.08546,0 0.360098,0.826823 0.324379,0.926042 0,0.03307 -0.07223,0.03307 -0.07223,0 -0.03598,-0.09922 -0.143934,-0.463021 -0.504296,-0.463021 -0.252413,0 -0.529696,0.164571 -0.504561,0.56224 z"
       style="stroke-width:0.264583" />
    <path
       id="use377"
       d="m 47.88795,33.88283 c -0.06403,-1.073414 -2.049727,-3.093772 -2.113756,-3.599127 -0.06403,0.50509 -2.049727,2.525448 -2.113757,3.599127 -0.04471,0.758825 0.448469,1.073415 0.896938,1.073415 0.640556,0 0.832644,-0.694531 0.896673,-0.883973 0,-0.06323 0.128058,-0.06323 0.128058,0 0.06403,0.189442 -0.424127,1.767946 -0.576527,1.767946 h 1.537494 c -0.1524,0 -0.640556,-1.578504 -0.576527,-1.767946 0,-0.06323 0.128323,-0.06323 0.128323,0 0.06403,0.189442 0.256116,0.883973 0.896673,0.883973 0.448204,-2.65e-4 0.941122,-0.31459 0.896408,-1.073415 z"
       style="stroke-width:0.264583" />
    <path
       id="use379"
       d="m 43.660437,53.407493 c 0.06403,1.073414 2.049727,3.093773 2.113757,3.599127 0.06403,-0.50509 2.049727,-2.525448 2.113756,-3.599127 0.04471,-0.758825 -0.448469,-1.073415 -0.896938,-1.073415 -0.640556,0 -0.832643,0.694531 -0.896673,0.883973 0,0.06323 -0.128058,0.06323 -0.128058,0 -0.06403,-0.189442 0.424127,-1.767946 0.576527,-1.767946 h -1.537494 c 0.1524,0 0.640557,1.578504 0.576528,1.767946 0,0.06323 -0.128323,0.06323 -0.128323,0 -0.06403,-0.189442 -0.256117,-0.883973 -0.896673,-0.883973 -0.448204,2.65e-4 -0.941123,0.31459 -0.896409,1.073415 z"
       style="stroke-width:0.264583" />
  </g>
</svg>
