<?xml version="1.0" encoding="UTF-8" standalone="no"?>
<!-- Created with Inkscape (http://www.inkscape.org/) -->

<svg
   width="20.902082mm"
   height="32.543755mm"
   viewBox="0 0 20.902082 32.543755"
   version="1.1"
   id="svg9554"
   sodipodi:docname="3_0.svg"
   inkscape:version="1.2 (dc2aedaf03, 2022-05-15)"
   xmlns:inkscape="http://www.inkscape.org/namespaces/inkscape"
   xmlns:sodipodi="http://sodipodi.sourceforge.net/DTD/sodipodi-0.dtd"
   xmlns="http://www.w3.org/2000/svg"
   xmlns:svg="http://www.w3.org/2000/svg">
  <sodipodi:namedview
     id="namedview9556"
     pagecolor="#ffffff"
     bordercolor="#000000"
     borderopacity="0.25"
     inkscape:showpageshadow="2"
     inkscape:pageopacity="0.0"
     inkscape:pagecheckerboard="0"
     inkscape:deskcolor="#d1d1d1"
     inkscape:document-units="mm"
     showgrid="false"
     inkscape:zoom="0.74564394"
     inkscape:cx="-143.50013"
     inkscape:cy="87.172974"
     inkscape:window-width="1920"
     inkscape:window-height="1017"
     inkscape:window-x="1912"
     inkscape:window-y="-8"
     inkscape:window-maximized="1"
     inkscape:current-layer="layer1" />
  <defs
     id="defs9551" />
  <g
     inkscape:label="Livello 1"
     inkscape:groupmode="layer"
     id="layer1"
     transform="translate(-9.7747651,-99.760384)">
    <path
       id="use413"
       d="m 30.478411,130.78278 c 0,0.73078 -0.592138,1.32292 -1.322917,1.32292 H 11.296119 c -0.730514,0 -1.3229164,-0.59214 -1.3229164,-1.32292 v -29.50104 c 0,-0.73078 0.5924024,-1.322919 1.3229164,-1.322919 h 17.859375 c 0.730779,0 1.322917,0.592139 1.322917,1.322919 z"
       fill="#ffffff"
       stroke="#000000"
       stroke-width="0.396875" />
    <g
       id="use415"
       fill="none"
       style="stroke:#df0000"
       transform="matrix(0.26458333,0,0,0.26458333,-31.764818,99.628092)">
      <path
         d="M 161.75,7.5 V 5.25 h 6.75 V 6 l -5,5.25 c 0,0 1,-0.5 2.5,-0.5 1.5,0 3.25,1.25 3.25,3.25 0,2 -1.5,3.75 -3.75,3.75 -1.75,0 -3.25,-1 -3.75,-2.5"
         id="path23073" />
    </g>
    <g
       id="use417"
       fill="none"
       style="stroke:#df0000"
       transform="matrix(0.26458333,0,0,0.26458333,-32.293984,99.892675)">
      <path
         d="m 233.25,115.5 v 2.25 H 226.5 V 117 l 5,-5.25 c 0,0 -1,0.5 -2.5,0.5 -1.5,0 -3.25,-1.25 -3.25,-3.25 0,-2 1.5,-3.75 3.75,-3.75 1.75,0 3.25,1 3.75,2.5"
         id="path23069" />
    </g>
    <path
       id="use419"
       d="m 12.570617,104.91976 c -0.4826,0 -0.546894,0.51117 -0.546894,0.51117 0,0 -0.06429,-0.51117 -0.546893,-0.51117 -0.337873,0 -0.643732,0.22913 -0.643732,0.66146 0,0.57123 1.07024,1.57109 1.190625,1.98437 0.12118,-0.41354 1.190625,-1.41314 1.190625,-1.98437 0,-0.43233 -0.305593,-0.66146 -0.643731,-0.66146 z"
       fill="#df0000"
       style="stroke-width:0.264583" />
    <path
       id="use421"
       d="m 27.880996,127.14476 c 0.4826,0 0.546894,-0.51118 0.546894,-0.51118 0,0 0.06429,0.51118 0.546894,0.51118 0.337873,0 0.643731,-0.22913 0.643731,-0.66146 0,-0.57124 -1.07024,-1.5711 -1.190625,-1.98438 -0.121179,0.41355 -1.190625,1.41314 -1.190625,1.98438 0,0.43233 0.305594,0.66146 0.643731,0.66146 z"
       fill="#df0000"
       style="stroke-width:0.264583" />
    <path
       id="use423"
       d="m 21.198415,103.06767 c -0.858044,0 -0.972608,0.91996 -0.972608,0.91996 0,0 -0.114565,-0.91996 -0.972609,-0.91996 -0.600604,0 -1.144058,0.41249 -1.144058,1.19063 0,1.02817 1.902619,2.82813 2.116667,3.57187 0.215106,-0.74453 2.116666,-2.5437 2.116666,-3.57187 0,-0.77814 -0.543454,-1.19063 -1.144058,-1.19063 z"
       fill="#df0000"
       style="stroke-width:0.264583" />
    <path
       id="use425"
       d="m 21.198415,113.65101 c -0.858044,0 -0.972608,0.91995 -0.972608,0.91995 0,0 -0.114565,-0.91995 -0.972609,-0.91995 -0.600604,0 -1.144058,0.41248 -1.144058,1.19062 0,1.02817 1.902619,2.82813 2.116667,3.57188 0.215106,-0.74454 2.116666,-2.54371 2.116666,-3.57188 0,-0.77814 -0.543454,-1.19062 -1.144058,-1.19062 z"
       fill="#df0000"
       style="stroke-width:0.264583" />
    <path
       id="use427"
       d="m 19.253198,128.99684 c 0.858044,0 0.972609,-0.91996 0.972609,-0.91996 0,0 0.114564,0.91996 0.972608,0.91996 0.600604,0 1.144058,-0.41248 1.144058,-1.19062 0,-1.02817 -1.902618,-2.82814 -2.116666,-3.57188 -0.215107,0.74454 -2.116667,2.54371 -2.116667,3.57188 0,0.77814 0.543454,1.19062 1.144058,1.19062 z"
       fill="#df0000"
       style="stroke-width:0.264583" />
  </g>
</svg>
