<?xml version="1.0" encoding="UTF-8" standalone="no"?>
<!-- Created with Inkscape (http://www.inkscape.org/) -->

<svg
   width="20.902082mm"
   height="32.543751mm"
   viewBox="0 0 20.902082 32.543751"
   version="1.1"
   id="svg9554"
   sodipodi:docname="3_1.svg"
   inkscape:version="1.2 (dc2aedaf03, 2022-05-15)"
   xmlns:inkscape="http://www.inkscape.org/namespaces/inkscape"
   xmlns:sodipodi="http://sodipodi.sourceforge.net/DTD/sodipodi-0.dtd"
   xmlns="http://www.w3.org/2000/svg"
   xmlns:svg="http://www.w3.org/2000/svg">
  <sodipodi:namedview
     id="namedview9556"
     pagecolor="#ffffff"
     bordercolor="#000000"
     borderopacity="0.25"
     inkscape:showpageshadow="2"
     inkscape:pageopacity="0.0"
     inkscape:pagecheckerboard="0"
     inkscape:deskcolor="#d1d1d1"
     inkscape:document-units="mm"
     showgrid="false"
     inkscape:zoom="0.74564394"
     inkscape:cx="222.62637"
     inkscape:cy="230.6731"
     inkscape:window-width="1920"
     inkscape:window-height="1017"
     inkscape:window-x="1912"
     inkscape:window-y="-8"
     inkscape:window-maximized="1"
     inkscape:current-layer="layer1" />
  <defs
     id="defs9551" />
  <g
     inkscape:label="Livello 1"
     inkscape:groupmode="layer"
     id="layer1"
     transform="translate(-33.903798,70.5622)">
    <path
       id="use397"
       d="m 54.607443,-39.539805 c 0,0.730779 -0.592138,1.322917 -1.322917,1.322917 H 35.425151 c -0.730514,0 -1.322916,-0.592138 -1.322916,-1.322917 v -29.501041 c 0,-0.730779 0.592402,-1.322917 1.322916,-1.322917 h 17.859375 c 0.730779,0 1.322917,0.592138 1.322917,1.322917 z"
       fill="#ffffff"
       stroke="#000000"
       stroke-width="0.396875" />
    <g
       id="use399"
       fill="none"
       style="stroke:#df0000"
       transform="matrix(0.26458333,0,0,0.26458333,-7.6357857,-70.694492)">
      <path
         d="M 161.75,7.5 V 5.25 h 6.75 V 6 l -5,5.25 c 0,0 1,-0.5 2.5,-0.5 1.5,0 3.25,1.25 3.25,3.25 0,2 -1.5,3.75 -3.75,3.75 -1.75,0 -3.25,-1 -3.75,-2.5"
         id="path15434" />
    </g>
    <g
       id="use401"
       fill="none"
       style="stroke:#df0000"
       transform="matrix(0.26458333,0,0,0.26458333,-8.1649523,-70.429909)">
      <path
         d="m 233.25,115.5 v 2.25 H 226.5 V 117 l 5,-5.25 c 0,0 -1,0.5 -2.5,0.5 -1.5,0 -3.25,-1.25 -3.25,-3.25 0,-2 1.5,-3.75 3.75,-3.75 1.75,0 3.25,1 3.75,2.5"
         id="path15430" />
    </g>
    <path
       id="use403"
       d="m 36.677953,-64.77444 c -0.315118,-0.396875 -0.525198,-0.760677 -0.525198,-0.760677 0,0 -0.210079,0.363802 -0.525197,0.760677 -0.315119,0.396875 -0.665428,0.694531 -0.665428,0.694531 0,0 0.350309,0.297656 0.665428,0.694531 0.315118,0.396875 0.525197,0.760677 0.525197,0.760677 0,0 0.21008,-0.363802 0.525198,-0.760677 0.315119,-0.396875 0.665427,-0.694531 0.665427,-0.694531 0,0 -0.350043,-0.297656 -0.665427,-0.694531 z"
       fill="#df0000"
       style="stroke-width:0.264583" />
    <path
       id="use405"
       d="m 53.08212,-45.195274 c -0.315119,-0.396875 -0.525198,-0.760677 -0.525198,-0.760677 0,0 -0.210079,0.363802 -0.525198,0.760677 -0.315119,0.396875 -0.665427,0.694532 -0.665427,0.694532 0,0 0.350308,0.297656 0.665427,0.694531 0.315119,0.396875 0.525198,0.760677 0.525198,0.760677 0,0 0.210079,-0.363802 0.525198,-0.760677 0.315119,-0.396875 0.665427,-0.694531 0.665427,-0.694531 0,0 -0.350044,-0.297657 -0.665427,-0.694532 z"
       fill="#df0000"
       style="stroke-width:0.264583" />
    <path
       id="use407"
       d="m 45.288553,-66.199486 c -0.560123,-0.757767 -0.933714,-1.452298 -0.933714,-1.452298 0,0 -0.373592,0.694531 -0.933715,1.452298 -0.560123,0.757767 -1.182952,1.325827 -1.182952,1.325827 0,0 0.622565,0.568061 1.182952,1.326092 0.560388,0.758031 0.933715,1.452033 0.933715,1.452033 0,0 0.373591,-0.694531 0.933714,-1.452033 0.560123,-0.757502 1.182952,-1.326092 1.182952,-1.326092 0,0 -0.622564,-0.568325 -1.182952,-1.325827 z"
       fill="#df0000"
       style="stroke-width:0.264583" />
    <path
       id="use409"
       d="m 45.288553,-55.616153 c -0.560123,-0.757766 -0.933714,-1.452298 -0.933714,-1.452298 0,0 -0.373592,0.694532 -0.933715,1.452298 -0.560123,0.757767 -1.182952,1.325827 -1.182952,1.325827 0,0 0.622565,0.568061 1.182952,1.326092 0.560388,0.758031 0.933715,1.452033 0.933715,1.452033 0,0 0.373591,-0.694531 0.933714,-1.452033 0.560123,-0.757502 1.182952,-1.326092 1.182952,-1.326092 0,0 -0.622564,-0.568325 -1.182952,-1.325827 z"
       fill="#df0000"
       style="stroke-width:0.264583" />
    <path
       id="use411"
       d="m 45.288553,-45.032819 c -0.560123,-0.757767 -0.933714,-1.452298 -0.933714,-1.452298 0,0 -0.373592,0.694531 -0.933715,1.452298 -0.560123,0.757766 -1.182952,1.325827 -1.182952,1.325827 0,0 0.622565,0.56806 1.182952,1.326091 0.560388,0.758031 0.933715,1.452034 0.933715,1.452034 0,0 0.373591,-0.694532 0.933714,-1.452034 0.560123,-0.757502 1.182952,-1.326091 1.182952,-1.326091 0,0 -0.622564,-0.568325 -1.182952,-1.325827 z"
       fill="#df0000"
       style="stroke-width:0.264583" />
  </g>
</svg>
