<?xml version="1.0" encoding="UTF-8" standalone="no"?>
<!-- Created with Inkscape (http://www.inkscape.org/) -->

<svg
   width="20.902082mm"
   height="32.543743mm"
   viewBox="0 0 20.902082 32.543743"
   version="1.1"
   id="svg9554"
   inkscape:version="1.2 (dc2aedaf03, 2022-05-15)"
   sodipodi:docname="3_2.svg"
   xmlns:inkscape="http://www.inkscape.org/namespaces/inkscape"
   xmlns:sodipodi="http://sodipodi.sourceforge.net/DTD/sodipodi-0.dtd"
   xmlns="http://www.w3.org/2000/svg"
   xmlns:svg="http://www.w3.org/2000/svg">
  <sodipodi:namedview
     id="namedview9556"
     pagecolor="#ffffff"
     bordercolor="#000000"
     borderopacity="0.25"
     inkscape:showpageshadow="2"
     inkscape:pageopacity="0.0"
     inkscape:pagecheckerboard="0"
     inkscape:deskcolor="#d1d1d1"
     inkscape:document-units="mm"
     showgrid="false"
     inkscape:zoom="0.74564394"
     inkscape:cx="281.63576"
     inkscape:cy="-10.728981"
     inkscape:window-width="1920"
     inkscape:window-height="1017"
     inkscape:window-x="1912"
     inkscape:window-y="-8"
     inkscape:window-maximized="1"
     inkscape:current-layer="layer1" />
  <defs
     id="defs9551" />
  <g
     inkscape:label="Livello 1"
     inkscape:groupmode="layer"
     id="layer1"
     transform="translate(-30.355411,-151.56683)">
    <path
       id="use381"
       d="m 51.059056,182.58923 c 0,0.73077 -0.592138,1.32291 -1.322917,1.32291 H 31.876764 c -0.730514,0 -1.322916,-0.59214 -1.322916,-1.32291 v -29.50105 c 0,-0.73078 0.592402,-1.32291 1.322916,-1.32291 h 17.859375 c 0.730779,0 1.322917,0.59213 1.322917,1.32291 z"
       fill="#ffffff"
       stroke="#000000"
       stroke-width="0.396875" />
    <g
       id="use383"
       fill="none"
       style="stroke:#000000"
       transform="matrix(0.26458333,0,0,0.26458333,-11.184173,151.43454)">
      <path
         d="M 161.75,7.5 V 5.25 h 6.75 V 6 l -5,5.25 c 0,0 1,-0.5 2.5,-0.5 1.5,0 3.25,1.25 3.25,3.25 0,2 -1.5,3.75 -3.75,3.75 -1.75,0 -3.25,-1 -3.75,-2.5"
         id="path9617" />
    </g>
    <g
       id="use385"
       fill="none"
       style="stroke:#000000"
       transform="matrix(0.26458333,0,0,0.26458333,-11.713339,151.69912)">
      <path
         d="m 233.25,115.5 v 2.25 H 226.5 V 117 l 5,-5.25 c 0,0 -1,0.5 -2.5,0.5 -1.5,0 -3.25,-1.25 -3.25,-3.25 0,-2 1.5,-3.75 3.75,-3.75 1.75,0 3.25,1 3.75,2.5"
         id="path9613" />
    </g>
    <path
       id="use387"
       d="m 32.9052,157.92874 c 0,0 0.330729,-0.26459 0.330729,-0.6313 0,-0.21484 -0.191029,-0.57124 -0.631561,-0.57124 -0.440531,0 -0.631295,0.35666 -0.631295,0.57124 0,0.36671 0.330729,0.6313 0.330729,0.6313 -0.367506,-0.28602 -1.02235,-0.0908 -1.02235,0.48101 0,0.28628 0.233891,0.6014 0.601398,0.6014 0.440796,0 0.631296,-0.48102 0.631296,-0.48102 0,0 0.05583,0.54822 -0.270669,0.84191 h 0.721519 c -0.326496,-0.29342 -0.270405,-0.84191 -0.270405,-0.84191 0,0 0.190765,0.48102 0.631561,0.48102 0.367506,0 0.601133,-0.31512 0.601133,-0.6014 0,-0.57177 -0.655108,-0.76703 -1.022085,-0.48101 z"
       style="stroke-width:0.264583" />
    <path
       id="use389"
       d="m 48.707704,177.74867 c 0,0 -0.33073,0.26459 -0.33073,0.6313 0,0.21484 0.19103,0.57123 0.631561,0.57123 0.440531,0 0.631296,-0.35665 0.631296,-0.57123 0,-0.36671 -0.330729,-0.6313 -0.330729,-0.6313 0.367506,0.28602 1.02235,0.0908 1.02235,-0.48101 0,-0.28628 -0.233892,-0.6014 -0.601398,-0.6014 -0.440796,0 -0.631296,0.48102 -0.631296,0.48102 0,0 -0.05583,-0.54822 0.270669,-0.84191 h -0.721519 c 0.326496,0.29342 0.270404,0.84191 0.270404,0.84191 0,0 -0.190765,-0.48102 -0.63156,-0.48102 -0.367507,0 -0.601134,0.31512 -0.601134,0.6014 0,0.57177 0.655109,0.76703 1.022086,0.48101 z"
       style="stroke-width:0.264583" />
    <path
       id="use391"
       d="m 41.377687,157.02677 c 0,0 0.628385,-0.50271 0.628385,-1.19962 0,-0.40799 -0.362214,-1.08532 -1.19962,-1.08532 -0.837407,0 -1.199621,0.6776 -1.199621,1.08532 0,0.69691 0.628385,1.19962 0.628385,1.19962 -0.697971,-0.54372 -1.942306,-0.17251 -1.942306,0.91414 0,0.54398 0.4445,1.14247 1.142471,1.14247 0.837406,0 1.199621,-0.91414 1.199621,-0.91414 0,0 0.106362,1.04193 -0.514086,1.59967 h 1.371071 c -0.620448,-0.55747 -0.514085,-1.59967 -0.514085,-1.59967 0,0 0.362214,0.91414 1.19962,0.91414 0.698236,0 1.142471,-0.59875 1.142471,-1.14247 0,-1.08665 -1.244335,-1.45786 -1.942306,-0.91414 z"
       style="stroke-width:0.264583" />
    <path
       id="use393"
       d="m 41.377687,167.6101 c 0,0 0.628385,-0.5027 0.628385,-1.19962 0,-0.40798 -0.362214,-1.08532 -1.19962,-1.08532 -0.837407,0 -1.199621,0.6776 -1.199621,1.08532 0,0.69692 0.628385,1.19962 0.628385,1.19962 -0.697971,-0.54371 -1.942306,-0.1725 -1.942306,0.91414 0,0.54398 0.4445,1.14247 1.142471,1.14247 0.837406,0 1.199621,-0.91413 1.199621,-0.91413 0,0 0.106362,1.04192 -0.514086,1.59967 h 1.371071 c -0.620448,-0.55748 -0.514085,-1.59967 -0.514085,-1.59967 0,0 0.362214,0.91413 1.19962,0.91413 0.698236,0 1.142471,-0.59875 1.142471,-1.14247 0,-1.08664 -1.244335,-1.45785 -1.942306,-0.91414 z"
       style="stroke-width:0.264583" />
    <path
       id="use395"
       d="m 40.235216,178.65064 c 0,0 -0.628385,0.50271 -0.628385,1.19962 0,0.40799 0.362214,1.08532 1.199621,1.08532 0.837406,0 1.19962,-0.6776 1.19962,-1.08532 0,-0.69691 -0.628385,-1.19962 -0.628385,-1.19962 0.697971,0.54372 1.942306,0.17251 1.942306,-0.91414 0,-0.54398 -0.4445,-1.14247 -1.142471,-1.14247 -0.837406,0 -1.19962,0.91414 -1.19962,0.91414 0,0 -0.106363,-1.04193 0.514085,-1.59967 h -1.371071 c 0.620448,0.55747 0.514086,1.59967 0.514086,1.59967 0,0 -0.362215,-0.91414 -1.199621,-0.91414 -0.698236,0 -1.142471,0.59875 -1.142471,1.14247 0,1.08665 1.244335,1.45786 1.942306,0.91414 z"
       style="stroke-width:0.264583" />
  </g>
</svg>
