<?xml version="1.0" encoding="UTF-8" standalone="no"?>
<!-- Created with Inkscape (http://www.inkscape.org/) -->

<svg
   width="20.902086mm"
   height="32.543751mm"
   viewBox="0 0 20.902086 32.543751"
   version="1.1"
   id="svg9554"
   sodipodi:docname="3_3.svg"
   inkscape:version="1.2 (dc2aedaf03, 2022-05-15)"
   xmlns:inkscape="http://www.inkscape.org/namespaces/inkscape"
   xmlns:sodipodi="http://sodipodi.sourceforge.net/DTD/sodipodi-0.dtd"
   xmlns="http://www.w3.org/2000/svg"
   xmlns:svg="http://www.w3.org/2000/svg">
  <sodipodi:namedview
     id="namedview9556"
     pagecolor="#ffffff"
     bordercolor="#000000"
     borderopacity="0.25"
     inkscape:showpageshadow="2"
     inkscape:pageopacity="0.0"
     inkscape:pagecheckerboard="0"
     inkscape:deskcolor="#d1d1d1"
     inkscape:document-units="mm"
     showgrid="false"
     inkscape:zoom="0.74564394"
     inkscape:cx="521.69672"
     inkscape:cy="20.11684"
     inkscape:window-width="1920"
     inkscape:window-height="1017"
     inkscape:window-x="1912"
     inkscape:window-y="-8"
     inkscape:window-maximized="1"
     inkscape:current-layer="layer1" />
  <defs
     id="defs9551" />
  <g
     inkscape:label="Livello 1"
     inkscape:groupmode="layer"
     id="layer1"
     transform="translate(109.80589,62.046071)">
    <path
       id="use429"
       d="m -89.102238,-31.023676 c 0,0.730779 -0.592138,1.322917 -1.322917,1.322917 h -17.859375 c -0.73051,0 -1.32292,-0.592138 -1.32292,-1.322917 v -29.501041 c 0,-0.730779 0.59241,-1.322917 1.32292,-1.322917 h 17.859375 c 0.730779,0 1.322917,0.592138 1.322917,1.322917 z"
       fill="#ffffff"
       stroke="#000000"
       stroke-width="0.396875" />
    <g
       id="use431"
       fill="none"
       style="stroke:#000000"
       transform="matrix(0.26458333,0,0,0.26458333,-151.34547,-62.178363)">
      <path
         d="M 161.75,7.5 V 5.25 h 6.75 V 6 l -5,5.25 c 0,0 1,-0.5 2.5,-0.5 1.5,0 3.25,1.25 3.25,3.25 0,2 -1.5,3.75 -3.75,3.75 -1.75,0 -3.25,-1 -3.75,-2.5"
         id="path28857" />
    </g>
    <g
       id="use433"
       fill="none"
       style="stroke:#000000"
       transform="matrix(0.26458333,0,0,0.26458333,-151.87463,-61.91378)">
      <path
         d="m 233.25,115.5 v 2.25 H 226.5 V 117 l 5,-5.25 c 0,0 -1,0.5 -2.5,0.5 -1.5,0 -3.25,-1.25 -3.25,-3.25 0,-2 1.5,-3.75 3.75,-3.75 1.75,0 3.25,1 3.75,2.5"
         id="path28853" />
    </g>
    <path
       id="use435"
       d="m -106.36789,-55.133832 c -0.0362,-0.562239 -1.15305,-1.620573 -1.18904,-1.885156 -0.036,0.264583 -1.15305,1.322917 -1.18903,1.885156 -0.0251,0.397669 0.25241,0.56224 0.50456,0.56224 0.36036,0 0.46857,-0.363802 0.50456,-0.463021 0,-0.03307 0.072,-0.03307 0.072,0 0.036,0.09922 -0.23865,0.926042 -0.32437,0.926042 h 0.86465 c -0.0855,0 -0.36009,-0.826823 -0.32438,-0.926042 0,-0.03307 0.0722,-0.03307 0.0722,0 0.036,0.09922 0.14393,0.463021 0.50429,0.463021 0.25241,0 0.5297,-0.164571 0.50456,-0.56224 z"
       style="stroke-width:0.264583" />
    <path
       id="use437"
       d="m -92.341797,-36.414561 c 0.03625,0.562239 1.153055,1.620573 1.189038,1.885156 0.03598,-0.264583 1.153054,-1.322917 1.189037,-1.885156 0.02514,-0.397669 -0.252412,-0.56224 -0.50456,-0.56224 -0.360363,0 -0.468577,0.363802 -0.50456,0.463021 0,0.03307 -0.07197,0.03307 -0.07197,0 -0.03598,-0.09922 0.238654,-0.926042 0.324379,-0.926042 h -0.864658 c 0.08546,0 0.360098,0.826823 0.324379,0.926042 0,0.03307 -0.07223,0.03307 -0.07223,0 -0.03598,-0.09922 -0.143934,-0.463021 -0.504296,-0.463021 -0.252413,0 -0.529696,0.164571 -0.504561,0.56224 z"
       style="stroke-width:0.264583" />
    <path
       id="use439"
       d="m -97.241086,-55.536528 c -0.06403,-1.073414 -2.049727,-3.093772 -2.113756,-3.599127 -0.06403,0.50509 -2.049728,2.525448 -2.113758,3.599127 -0.0447,0.758825 0.44847,1.073415 0.89694,1.073415 0.640555,0 0.832643,-0.694531 0.896672,-0.883973 0,-0.06324 0.128058,-0.06324 0.128058,0 0.06403,0.189442 -0.424127,1.767946 -0.57653,1.767946 h 1.537497 c -0.1524,0 -0.640556,-1.578504 -0.576527,-1.767946 0,-0.06324 0.128323,-0.06324 0.128323,0 0.06403,0.189442 0.256116,0.883973 0.896673,0.883973 0.448204,-2.65e-4 0.941122,-0.31459 0.896408,-1.073415 z"
       style="stroke-width:0.264583" />
    <path
       id="use441"
       d="m -97.241086,-44.953194 c -0.06403,-1.073415 -2.049727,-3.093773 -2.113756,-3.599127 -0.06403,0.505089 -2.049728,2.525447 -2.113758,3.599127 -0.0447,0.758825 0.44847,1.073414 0.89694,1.073414 0.640555,0 0.832643,-0.694531 0.896672,-0.883973 0,-0.06323 0.128058,-0.06323 0.128058,0 0.06403,0.189442 -0.424127,1.767946 -0.57653,1.767946 h 1.537497 c -0.1524,0 -0.640556,-1.578504 -0.576527,-1.767946 0,-0.06323 0.128323,-0.06323 0.128323,0 0.06403,0.189442 0.256116,0.883973 0.896673,0.883973 0.448204,-2.64e-4 0.941122,-0.314589 0.896408,-1.073414 z"
       style="stroke-width:0.264583" />
    <path
       id="use443"
       d="m -101.4686,-36.011865 c 0.064,1.073414 2.049729,3.093773 2.113758,3.599127 0.06403,-0.50509 2.049727,-2.525448 2.113756,-3.599127 0.04471,-0.758825 -0.448469,-1.073415 -0.896938,-1.073415 -0.640556,0 -0.832643,0.694531 -0.896672,0.883973 0,0.06323 -0.128059,0.06323 -0.128059,0 -0.06403,-0.189442 0.424127,-1.767946 0.576527,-1.767946 h -1.537492 c 0.152399,0 0.640555,1.578504 0.576526,1.767946 0,0.06323 -0.128323,0.06323 -0.128323,0 -0.06403,-0.189442 -0.256117,-0.883973 -0.896673,-0.883973 -0.4482,2.65e-4 -0.94112,0.31459 -0.89641,1.073415 z"
       style="stroke-width:0.264583" />
  </g>
</svg>
