<?xml version="1.0" encoding="UTF-8" standalone="no"?>
<!-- Created with Inkscape (http://www.inkscape.org/) -->

<svg
   width="20.902075mm"
   height="32.543751mm"
   viewBox="0 0 20.902075 32.543751"
   version="1.1"
   id="svg9554"
   sodipodi:docname="4_0.svg"
   inkscape:version="1.2 (dc2aedaf03, 2022-05-15)"
   xmlns:inkscape="http://www.inkscape.org/namespaces/inkscape"
   xmlns:sodipodi="http://sodipodi.sourceforge.net/DTD/sodipodi-0.dtd"
   xmlns="http://www.w3.org/2000/svg"
   xmlns:svg="http://www.w3.org/2000/svg">
  <sodipodi:namedview
     id="namedview9556"
     pagecolor="#ffffff"
     bordercolor="#000000"
     borderopacity="0.25"
     inkscape:showpageshadow="2"
     inkscape:pageopacity="0.0"
     inkscape:pagecheckerboard="0"
     inkscape:deskcolor="#d1d1d1"
     inkscape:document-units="mm"
     showgrid="false"
     inkscape:zoom="0.74564394"
     inkscape:cx="635.69215"
     inkscape:cy="50.962662"
     inkscape:window-width="1920"
     inkscape:window-height="1017"
     inkscape:window-x="1912"
     inkscape:window-y="-8"
     inkscape:window-maximized="1"
     inkscape:current-layer="layer1" />
  <defs
     id="defs9551" />
  <g
     inkscape:label="Livello 1"
     inkscape:groupmode="layer"
     id="layer1"
     transform="translate(206.32201,-9.6313512)">
    <path
       id="use481"
       d="m -185.61837,40.653747 c 0,0.730779 -0.59213,1.322916 -1.32291,1.322916 h -17.85938 c -0.73051,0 -1.32291,-0.592137 -1.32291,-1.322916 V 11.152705 c 0,-0.730779 0.5924,-1.3229163 1.32291,-1.3229163 h 17.85938 c 0.73078,0 1.32291,0.5921373 1.32291,1.3229163 z"
       fill="#ffffff"
       stroke="#000000"
       stroke-width="0.396875" />
    <g
       id="use483"
       fill="none"
       style="stroke:#df0000"
       transform="matrix(0.26458333,0,0,0.26458333,-268.76368,9.4990595)">
      <path
         d="m 245,17.75 h 4"
         id="path23182" />
      <path
         d="M 247,17.75 V 5.25 h -0.75 l -5.5,9 v 0.5 H 249"
         id="path23184" />
    </g>
    <g
       id="use485"
       fill="none"
       style="stroke:#df0000"
       transform="matrix(0.26458333,0,0,0.26458333,-269.29284,9.7636428)">
      <path
         d="m 306,105.25 v 12.5 h 0.75 l 5.5,-9 v -0.5 H 304"
         id="path23188" />
      <path
         d="m 308,105.25 h -4"
         id="path23190" />
    </g>
    <path
       id="use487"
       d="m -203.52616,14.790726 c -0.4826,0 -0.54689,0.511175 -0.54689,0.511175 0,0 -0.0643,-0.511175 -0.5469,-0.511175 -0.33787,0 -0.64373,0.229129 -0.64373,0.661458 0,0.571236 1.07024,1.571096 1.19063,1.984375 0.12118,-0.413543 1.19062,-1.413139 1.19062,-1.984375 0,-0.432329 -0.30559,-0.661458 -0.64373,-0.661458 z"
       fill="#df0000"
       style="stroke-width:0.264583" />
    <path
       id="use489"
       d="m -188.21578,37.015726 c 0.4826,0 0.54689,-0.511175 0.54689,-0.511175 0,0 0.0643,0.511175 0.5469,0.511175 0.33787,0 0.64373,-0.229129 0.64373,-0.661458 0,-0.571236 -1.07024,-1.571096 -1.19063,-1.984375 -0.12118,0.413543 -1.19062,1.413139 -1.19062,1.984375 0,0.432329 0.30559,0.661458 0.64373,0.661458 z"
       fill="#df0000"
       style="stroke-width:0.264583" />
    <path
       id="use491"
       d="m -199.13169,12.938643 c -0.85805,0 -0.97261,0.919956 -0.97261,0.919956 0,0 -0.11457,-0.919956 -0.97261,-0.919956 -0.60061,0 -1.14406,0.412485 -1.14406,1.190625 0,1.028171 1.90262,2.828131 2.11667,3.571875 0.2151,-0.744538 2.11666,-2.543704 2.11666,-3.571875 0,-0.77814 -0.54345,-1.190625 -1.14405,-1.190625 z"
       fill="#df0000"
       style="stroke-width:0.264583" />
    <path
       id="use493"
       d="m -201.07691,38.867809 c 0.85804,0 0.97261,-0.919956 0.97261,-0.919956 0,0 0.11456,0.919956 0.97261,0.919956 0.6006,0 1.14405,-0.412485 1.14405,-1.190625 0,-1.028171 -1.90261,-2.828131 -2.11666,-3.571875 -0.21511,0.744538 -2.11667,2.543704 -2.11667,3.571875 0,0.77814 0.54345,1.190625 1.14406,1.190625 z"
       fill="#df0000"
       style="stroke-width:0.264583" />
    <path
       id="use495"
       d="m -190.66503,12.938643 c -0.85804,0 -0.97261,0.919956 -0.97261,0.919956 0,0 -0.11456,-0.919956 -0.9726,-0.919956 -0.60061,0 -1.14406,0.412485 -1.14406,1.190625 0,1.028171 1.90262,2.828131 2.11666,3.571875 0.21511,-0.744538 2.11667,-2.543704 2.11667,-3.571875 0,-0.77814 -0.54345,-1.190625 -1.14406,-1.190625 z"
       fill="#df0000"
       style="stroke-width:0.264583" />
    <path
       id="use497"
       d="m -192.61024,38.867809 c 0.85804,0 0.9726,-0.919956 0.9726,-0.919956 0,0 0.11457,0.919956 0.97261,0.919956 0.60061,0 1.14406,-0.412485 1.14406,-1.190625 0,-1.028171 -1.90262,-2.828131 -2.11667,-3.571875 -0.2151,0.744538 -2.11666,2.543704 -2.11666,3.571875 0,0.77814 0.54345,1.190625 1.14406,1.190625 z"
       fill="#df0000"
       style="stroke-width:0.264583" />
  </g>
</svg>
