<?xml version="1.0" encoding="UTF-8" standalone="no"?>
<!-- Created with Inkscape (http://www.inkscape.org/) -->

<svg
   width="20.902082mm"
   height="32.543751mm"
   viewBox="0 0 20.902082 32.543751"
   version="1.1"
   id="svg9554"
   sodipodi:docname="4_1.svg"
   inkscape:version="1.2 (dc2aedaf03, 2022-05-15)"
   xmlns:inkscape="http://www.inkscape.org/namespaces/inkscape"
   xmlns:sodipodi="http://sodipodi.sourceforge.net/DTD/sodipodi-0.dtd"
   xmlns="http://www.w3.org/2000/svg"
   xmlns:svg="http://www.w3.org/2000/svg">
  <sodipodi:namedview
     id="namedview9556"
     pagecolor="#ffffff"
     bordercolor="#000000"
     borderopacity="0.25"
     inkscape:showpageshadow="2"
     inkscape:pageopacity="0.0"
     inkscape:pagecheckerboard="0"
     inkscape:deskcolor="#d1d1d1"
     inkscape:document-units="mm"
     showgrid="false"
     inkscape:zoom="0.74564394"
     inkscape:cx="450.61722"
     inkscape:cy="103.26645"
     inkscape:window-width="1920"
     inkscape:window-height="1017"
     inkscape:window-x="1912"
     inkscape:window-y="-8"
     inkscape:window-maximized="1"
     inkscape:current-layer="layer1" />
  <defs
     id="defs9551" />
  <g
     inkscape:label="Livello 1"
     inkscape:groupmode="layer"
     id="layer1"
     transform="translate(60.4833,-33.760384)">
    <path
       id="use463"
       d="m -39.779655,64.782779 c 0,0.730779 -0.592138,1.322916 -1.322917,1.322916 h -17.859375 c -0.730514,0 -1.322916,-0.592137 -1.322916,-1.322916 V 35.281737 c 0,-0.730779 0.592402,-1.322916 1.322916,-1.322916 h 17.859375 c 0.730779,0 1.322917,0.592137 1.322917,1.322916 z"
       fill="#ffffff"
       stroke="#000000"
       stroke-width="0.396875" />
    <g
       id="use465"
       fill="none"
       style="stroke:#df0000"
       transform="matrix(0.26458333,0,0,0.26458333,-122.92497,33.628092)">
      <path
         d="m 245,17.75 h 4"
         id="path15543" />
      <path
         d="M 247,17.75 V 5.25 h -0.75 l -5.5,9 v 0.5 H 249"
         id="path15545" />
    </g>
    <g
       id="use467"
       fill="none"
       style="stroke:#df0000"
       transform="matrix(0.26458333,0,0,0.26458333,-123.45413,33.892675)">
      <path
         d="m 306,105.25 v 12.5 h 0.75 l 5.5,-9 v -0.5 H 304"
         id="path15549" />
      <path
         d="m 308,105.25 h -4"
         id="path15551" />
    </g>
    <path
       id="use469"
       d="m -57.709145,39.548144 c -0.315118,-0.396875 -0.525197,-0.760677 -0.525197,-0.760677 0,0 -0.21008,0.363802 -0.525198,0.760677 -0.315119,0.396875 -0.665427,0.694531 -0.665427,0.694531 0,0 0.350308,0.297656 0.665427,0.694531 0.315118,0.396875 0.525198,0.760677 0.525198,0.760677 0,0 0.210079,-0.363802 0.525197,-0.760677 0.315119,-0.396875 0.665428,-0.694531 0.665428,-0.694531 0,0 -0.350044,-0.297656 -0.665428,-0.694531 z"
       fill="#df0000"
       style="stroke-width:0.264583" />
    <path
       id="use471"
       d="m -41.304978,59.12731 c -0.315119,-0.396875 -0.525198,-0.760677 -0.525198,-0.760677 0,0 -0.210079,0.363802 -0.525198,0.760677 -0.315119,0.396875 -0.665427,0.694531 -0.665427,0.694531 0,0 0.350308,0.297657 0.665427,0.694532 0.315119,0.396875 0.525198,0.760677 0.525198,0.760677 0,0 0.210079,-0.363802 0.525198,-0.760677 0.315119,-0.396875 0.665427,-0.694532 0.665427,-0.694532 0,0 -0.350044,-0.297656 -0.665427,-0.694531 z"
       fill="#df0000"
       style="stroke-width:0.264583" />
    <path
       id="use473"
       d="m -53.331878,38.123098 c -0.560123,-0.757767 -0.933715,-1.452298 -0.933715,-1.452298 0,0 -0.373591,0.694531 -0.933714,1.452298 -0.560123,0.757766 -1.182952,1.325827 -1.182952,1.325827 0,0 0.622564,0.56806 1.182952,1.326092 0.560387,0.758031 0.933714,1.452033 0.933714,1.452033 0,0 0.373592,-0.694531 0.933715,-1.452033 0.560123,-0.757503 1.182952,-1.326092 1.182952,-1.326092 0,0 -0.622564,-0.568325 -1.182952,-1.325827 z"
       fill="#df0000"
       style="stroke-width:0.264583" />
    <path
       id="use475"
       d="m -53.331878,59.289764 c -0.560123,-0.757766 -0.933715,-1.452298 -0.933715,-1.452298 0,0 -0.373591,0.694532 -0.933714,1.452298 -0.560123,0.757767 -1.182952,1.325827 -1.182952,1.325827 0,0 0.622564,0.568061 1.182952,1.326092 0.560387,0.758031 0.933714,1.452033 0.933714,1.452033 0,0 0.373592,-0.694531 0.933715,-1.452033 0.560123,-0.757502 1.182952,-1.326092 1.182952,-1.326092 0,0 -0.622564,-0.568325 -1.182952,-1.325827 z"
       fill="#df0000"
       style="stroke-width:0.264583" />
    <path
       id="use477"
       d="m -44.865211,38.123098 c -0.560123,-0.757767 -0.933715,-1.452298 -0.933715,-1.452298 0,0 -0.373592,0.694531 -0.933715,1.452298 -0.560122,0.757766 -1.182952,1.325827 -1.182952,1.325827 0,0 0.622565,0.56806 1.182952,1.326092 0.560388,0.758031 0.933715,1.452033 0.933715,1.452033 0,0 0.373592,-0.694531 0.933715,-1.452033 0.560123,-0.757503 1.182952,-1.326092 1.182952,-1.326092 0,0 -0.622565,-0.568325 -1.182952,-1.325827 z"
       fill="#df0000"
       style="stroke-width:0.264583" />
    <path
       id="use479"
       d="m -44.865211,59.289764 c -0.560123,-0.757766 -0.933715,-1.452298 -0.933715,-1.452298 0,0 -0.373592,0.694532 -0.933715,1.452298 -0.560122,0.757767 -1.182952,1.325827 -1.182952,1.325827 0,0 0.622565,0.568061 1.182952,1.326092 0.560388,0.758031 0.933715,1.452033 0.933715,1.452033 0,0 0.373592,-0.694531 0.933715,-1.452033 0.560123,-0.757502 1.182952,-1.326092 1.182952,-1.326092 0,0 -0.622565,-0.568325 -1.182952,-1.325827 z"
       fill="#df0000"
       style="stroke-width:0.264583" />
  </g>
</svg>
