<?xml version="1.0" encoding="UTF-8" standalone="no"?>
<!-- Created with Inkscape (http://www.inkscape.org/) -->

<svg
   width="20.902084mm"
   height="32.543751mm"
   viewBox="0 0 20.902084 32.543751"
   version="1.1"
   id="svg9554"
   sodipodi:docname="5_0.svg"
   inkscape:version="1.2 (dc2aedaf03, 2022-05-15)"
   xmlns:inkscape="http://www.inkscape.org/namespaces/inkscape"
   xmlns:sodipodi="http://sodipodi.sourceforge.net/DTD/sodipodi-0.dtd"
   xmlns="http://www.w3.org/2000/svg"
   xmlns:svg="http://www.w3.org/2000/svg">
  <sodipodi:namedview
     id="namedview9556"
     pagecolor="#ffffff"
     bordercolor="#000000"
     borderopacity="0.25"
     inkscape:showpageshadow="2"
     inkscape:pageopacity="0.0"
     inkscape:pagecheckerboard="0"
     inkscape:deskcolor="#d1d1d1"
     inkscape:document-units="mm"
     showgrid="false"
     inkscape:zoom="0.74564394"
     inkscape:cx="105.94869"
     inkscape:cy="17.434595"
     inkscape:window-width="1920"
     inkscape:window-height="1017"
     inkscape:window-x="1912"
     inkscape:window-y="-8"
     inkscape:window-maximized="1"
     inkscape:current-layer="layer1" />
  <defs
     id="defs9551" />
  <g
     inkscape:label="Livello 1"
     inkscape:groupmode="layer"
     id="layer1"
     transform="translate(-140.00057,-8.9216732)">
    <path
       id="use557"
       d="m 160.70422,39.944069 c 0,0.730779 -0.59214,1.322916 -1.32292,1.322916 h -17.85937 c -0.73052,0 -1.32292,-0.592137 -1.32292,-1.322916 V 10.443027 c 0,-0.7307788 0.5924,-1.3229163 1.32292,-1.3229163 h 17.85937 c 0.73078,0 1.32292,0.5921375 1.32292,1.3229163 z"
       fill="#ffffff"
       stroke="#000000"
       stroke-width="0.396875" />
    <g
       id="use559"
       fill="none"
       style="stroke:#df0000"
       transform="matrix(0.26458333,0,0,0.26458333,56.656822,8.7893815)">
      <path
         d="m 327.25,5.25 h -7 v 5.25 l 0.7,0.25 c 0,0 0.47,-1.5 2.8,-1.5 2.33,0 3.27,2.25 3.27,4.5 0,2.25 -1.4,4 -3.5,4 -2.1,0 -3.03,-1.5 -3.27,-2.25"
         id="path23313" />
    </g>
    <g
       id="use561"
       fill="none"
       style="stroke:#df0000"
       transform="matrix(0.26458333,0,0,0.26458333,56.127656,9.0539648)">
      <path
         d="m 383.75,117.75 h 7 v -5.25 l -0.7,-0.25 c 0,0 -0.47,1.5 -2.8,1.5 -2.33,0 -3.27,-2.25 -3.27,-4.5 0,-2.25 1.4,-4 3.5,-4 2.1,0 3.03,1.5 3.27,2.25"
         id="path23309" />
    </g>
    <path
       id="use563"
       d="m 142.79642,14.081048 c -0.4826,0 -0.54689,0.511175 -0.54689,0.511175 0,0 -0.0643,-0.511175 -0.54689,-0.511175 -0.33788,0 -0.64374,0.229129 -0.64374,0.661458 0,0.571236 1.07024,1.571096 1.19063,1.984375 0.12118,-0.413543 1.19062,-1.413139 1.19062,-1.984375 0,-0.432329 -0.30559,-0.661458 -0.64373,-0.661458 z"
       fill="#df0000"
       style="stroke-width:0.264583" />
    <path
       id="use565"
       d="m 158.1068,36.306048 c 0.4826,0 0.5469,-0.511175 0.5469,-0.511175 0,0 0.0643,0.511175 0.54689,0.511175 0.33787,0 0.64373,-0.229129 0.64373,-0.661458 0,-0.571236 -1.07024,-1.571096 -1.19062,-1.984375 -0.12118,0.413543 -1.19063,1.413139 -1.19063,1.984375 0,0.432329 0.30559,0.661458 0.64373,0.661458 z"
       fill="#df0000"
       style="stroke-width:0.264583" />
    <path
       id="use567"
       d="m 147.19089,12.228965 c -0.85805,0 -0.97261,0.919956 -0.97261,0.919956 0,0 -0.11457,-0.919956 -0.97261,-0.919956 -0.6006,0 -1.14406,0.412485 -1.14406,1.190625 0,1.028171 1.90262,2.828131 2.11667,3.571875 0.21511,-0.744538 2.11667,-2.543704 2.11667,-3.571875 0,-0.77814 -0.54346,-1.190625 -1.14406,-1.190625 z"
       fill="#df0000"
       style="stroke-width:0.264583" />
    <path
       id="use569"
       d="m 145.24567,38.158131 c 0.85804,0 0.97261,-0.919956 0.97261,-0.919956 0,0 0.11456,0.919956 0.97261,0.919956 0.6006,0 1.14406,-0.412485 1.14406,-1.190625 0,-1.028171 -1.90262,-2.828131 -2.11667,-3.571875 -0.21511,0.744538 -2.11667,2.543704 -2.11667,3.571875 0,0.77814 0.54346,1.190625 1.14406,1.190625 z"
       fill="#df0000"
       style="stroke-width:0.264583" />
    <path
       id="use571"
       d="m 151.42422,22.812298 c -0.85804,0 -0.97261,0.919956 -0.97261,0.919956 0,0 -0.11456,-0.919956 -0.97261,-0.919956 -0.6006,0 -1.14405,0.412485 -1.14405,1.190625 0,1.028171 1.90261,2.828131 2.11666,3.571875 0.21511,-0.744538 2.11667,-2.543704 2.11667,-3.571875 0,-0.77814 -0.54345,-1.190625 -1.14406,-1.190625 z"
       fill="#df0000"
       style="stroke-width:0.264583" />
    <path
       id="use573"
       d="m 155.65755,12.228965 c -0.85804,0 -0.9726,0.919956 -0.9726,0.919956 0,0 -0.11457,-0.919956 -0.97261,-0.919956 -0.60061,0 -1.14406,0.412485 -1.14406,1.190625 0,1.028171 1.90262,2.828131 2.11667,3.571875 0.2151,-0.744538 2.11666,-2.543704 2.11666,-3.571875 0,-0.77814 -0.54345,-1.190625 -1.14406,-1.190625 z"
       fill="#df0000"
       style="stroke-width:0.264583" />
    <path
       id="use575"
       d="m 153.71234,38.158131 c 0.85804,0 0.97261,-0.919956 0.97261,-0.919956 0,0 0.11456,0.919956 0.9726,0.919956 0.60061,0 1.14406,-0.412485 1.14406,-1.190625 0,-1.028171 -1.90262,-2.828131 -2.11666,-3.571875 -0.21511,0.744538 -2.11667,2.543704 -2.11667,3.571875 0,0.77814 0.54345,1.190625 1.14406,1.190625 z"
       fill="#df0000"
       style="stroke-width:0.264583" />
  </g>
</svg>
