<?xml version="1.0" encoding="UTF-8" standalone="no"?>
<!-- Created with Inkscape (http://www.inkscape.org/) -->

<svg
   width="20.902082mm"
   height="32.543751mm"
   viewBox="0 0 20.902082 32.543751"
   version="1.1"
   id="svg9554"
   sodipodi:docname="5_1.svg"
   inkscape:version="1.2 (dc2aedaf03, 2022-05-15)"
   xmlns:inkscape="http://www.inkscape.org/namespaces/inkscape"
   xmlns:sodipodi="http://sodipodi.sourceforge.net/DTD/sodipodi-0.dtd"
   xmlns="http://www.w3.org/2000/svg"
   xmlns:svg="http://www.w3.org/2000/svg">
  <sodipodi:namedview
     id="namedview9556"
     pagecolor="#ffffff"
     bordercolor="#000000"
     borderopacity="0.25"
     inkscape:showpageshadow="2"
     inkscape:pageopacity="0.0"
     inkscape:pagecheckerboard="0"
     inkscape:deskcolor="#d1d1d1"
     inkscape:document-units="mm"
     showgrid="false"
     inkscape:zoom="0.74564394"
     inkscape:cx="295.04699"
     inkscape:cy="179.71044"
     inkscape:window-width="1920"
     inkscape:window-height="1017"
     inkscape:window-x="1912"
     inkscape:window-y="-8"
     inkscape:window-maximized="1"
     inkscape:current-layer="layer1" />
  <defs
     id="defs9551" />
  <g
     inkscape:label="Livello 1"
     inkscape:groupmode="layer"
     id="layer1"
     transform="translate(-41.000572,20.1751)">
    <path
       id="use537"
       d="m 61.704217,10.847295 c 0,0.730779 -0.592138,1.322917 -1.322917,1.322917 H 42.521925 c -0.730514,0 -1.322916,-0.592138 -1.322916,-1.322917 v -29.501041 c 0,-0.730779 0.592402,-1.322917 1.322916,-1.322917 H 60.3813 c 0.730779,0 1.322917,0.592138 1.322917,1.322917 z"
       fill="#ffffff"
       stroke="#000000"
       stroke-width="0.396875" />
    <g
       id="use539"
       fill="none"
       style="stroke:#df0000"
       transform="matrix(0.26458333,0,0,0.26458333,-42.343178,-20.307392)">
      <path
         d="m 327.25,5.25 h -7 v 5.25 l 0.7,0.25 c 0,0 0.47,-1.5 2.8,-1.5 2.33,0 3.27,2.25 3.27,4.5 0,2.25 -1.4,4 -3.5,4 -2.1,0 -3.03,-1.5 -3.27,-2.25"
         id="path15674" />
    </g>
    <g
       id="use541"
       fill="none"
       style="stroke:#df0000"
       transform="matrix(0.26458333,0,0,0.26458333,-42.872344,-20.042809)">
      <path
         d="m 383.75,117.75 h 7 v -5.25 l -0.7,-0.25 c 0,0 -0.47,1.5 -2.8,1.5 -2.33,0 -3.27,-2.25 -3.27,-4.5 0,-2.25 1.4,-4 3.5,-4 2.1,0 3.03,1.5 3.27,2.25"
         id="path15670" />
    </g>
    <path
       id="use543"
       d="m 43.774727,-14.38734 c -0.315118,-0.396875 -0.525197,-0.760677 -0.525197,-0.760677 0,0 -0.21008,0.363802 -0.525198,0.760677 -0.315119,0.396875 -0.665427,0.694531 -0.665427,0.694531 0,0 0.350308,0.297656 0.665427,0.694531 0.315118,0.396875 0.525198,0.760677 0.525198,0.760677 0,0 0.210079,-0.363802 0.525197,-0.760677 0.315119,-0.396875 0.665428,-0.694531 0.665428,-0.694531 0,0 -0.350044,-0.297656 -0.665428,-0.694531 z"
       fill="#df0000"
       style="stroke-width:0.264583" />
    <path
       id="use545"
       d="m 60.178894,5.1918264 c -0.315119,-0.396875 -0.525198,-0.7606771 -0.525198,-0.7606771 0,0 -0.210079,0.3638021 -0.525198,0.7606771 -0.315119,0.3968749 -0.665427,0.6945312 -0.665427,0.6945312 0,0 0.350308,0.2976562 0.665427,0.6945312 0.315119,0.396875 0.525198,0.7606771 0.525198,0.7606771 0,0 0.210079,-0.3638021 0.525198,-0.7606771 0.315119,-0.396875 0.665427,-0.6945312 0.665427,-0.6945312 0,0 -0.350044,-0.2976563 -0.665427,-0.6945312 z"
       fill="#df0000"
       style="stroke-width:0.264583" />
    <path
       id="use547"
       d="m 48.151994,-15.812386 c -0.560123,-0.757767 -0.933714,-1.452298 -0.933714,-1.452298 0,0 -0.373592,0.694531 -0.933715,1.452298 -0.560123,0.757767 -1.182952,1.325827 -1.182952,1.325827 0,0 0.622564,0.568061 1.182952,1.326092 0.560387,0.758031 0.933715,1.452033 0.933715,1.452033 0,0 0.373591,-0.694531 0.933714,-1.452033 0.560123,-0.757502 1.182952,-1.326092 1.182952,-1.326092 0,0 -0.622564,-0.568325 -1.182952,-1.325827 z"
       fill="#df0000"
       style="stroke-width:0.264583" />
    <path
       id="use549"
       d="M 48.151994,5.3542805 C 47.591871,4.5965139 47.21828,3.9019826 47.21828,3.9019826 c 0,0 -0.373592,0.6945313 -0.933715,1.4522979 -0.560123,0.7577667 -1.182952,1.3258271 -1.182952,1.3258271 0,0 0.622564,0.5680604 1.182952,1.3260916 0.560387,0.7580313 0.933715,1.4520333 0.933715,1.4520333 0,0 0.373591,-0.6945312 0.933714,-1.4520333 0.560123,-0.757502 1.182952,-1.3260916 1.182952,-1.3260916 0,0 -0.622564,-0.568325 -1.182952,-1.3258271 z"
       fill="#df0000"
       style="stroke-width:0.264583" />
    <path
       id="use551"
       d="m 52.385327,-5.2290527 c -0.560123,-0.7577666 -0.933714,-1.4522979 -0.933714,-1.4522979 0,0 -0.373592,0.6945313 -0.933715,1.4522979 -0.560123,0.7577667 -1.182952,1.3258271 -1.182952,1.3258271 0,0 0.622565,0.5680604 1.182952,1.3260916 0.560388,0.7580313 0.933715,1.4520333 0.933715,1.4520333 0,0 0.373591,-0.6945312 0.933714,-1.4520333 0.560123,-0.757502 1.182952,-1.3260916 1.182952,-1.3260916 0,0 -0.622564,-0.568325 -1.182952,-1.3258271 z"
       fill="#df0000"
       style="stroke-width:0.264583" />
    <path
       id="use553"
       d="m 56.618661,-15.812386 c -0.560123,-0.757767 -0.933715,-1.452298 -0.933715,-1.452298 0,0 -0.373592,0.694531 -0.933714,1.452298 -0.560123,0.757767 -1.182953,1.325827 -1.182953,1.325827 0,0 0.622565,0.568061 1.182953,1.326092 0.560387,0.758031 0.933714,1.452033 0.933714,1.452033 0,0 0.373592,-0.694531 0.933715,-1.452033 0.560123,-0.757502 1.182952,-1.326092 1.182952,-1.326092 0,0 -0.622565,-0.568325 -1.182952,-1.325827 z"
       fill="#df0000"
       style="stroke-width:0.264583" />
    <path
       id="use555"
       d="M 56.618661,5.3542805 C 56.058538,4.5965139 55.684946,3.9019826 55.684946,3.9019826 c 0,0 -0.373592,0.6945313 -0.933714,1.4522979 -0.560123,0.7577667 -1.182953,1.3258271 -1.182953,1.3258271 0,0 0.622565,0.5680604 1.182953,1.3260916 0.560387,0.7580313 0.933714,1.4520333 0.933714,1.4520333 0,0 0.373592,-0.6945312 0.933715,-1.4520333 0.560123,-0.757502 1.182952,-1.3260916 1.182952,-1.3260916 0,0 -0.622565,-0.568325 -1.182952,-1.3258271 z"
       fill="#df0000"
       style="stroke-width:0.264583" />
  </g>
</svg>
