<?xml version="1.0" encoding="UTF-8" standalone="no"?>
<!-- Created with Inkscape (http://www.inkscape.org/) -->

<svg
   width="20.902084mm"
   height="32.543751mm"
   viewBox="0 0 20.902084 32.543751"
   version="1.1"
   id="svg9554"
   sodipodi:docname="5_2.svg"
   inkscape:version="1.2 (dc2aedaf03, 2022-05-15)"
   xmlns:inkscape="http://www.inkscape.org/namespaces/inkscape"
   xmlns:sodipodi="http://sodipodi.sourceforge.net/DTD/sodipodi-0.dtd"
   xmlns="http://www.w3.org/2000/svg"
   xmlns:svg="http://www.w3.org/2000/svg">
  <sodipodi:namedview
     id="namedview9556"
     pagecolor="#ffffff"
     bordercolor="#000000"
     borderopacity="0.25"
     inkscape:showpageshadow="2"
     inkscape:pageopacity="0.0"
     inkscape:pagecheckerboard="0"
     inkscape:deskcolor="#d1d1d1"
     inkscape:document-units="mm"
     showgrid="false"
     inkscape:zoom="0.74564394"
     inkscape:cx="238.71984"
     inkscape:cy="131.43002"
     inkscape:window-width="1920"
     inkscape:window-height="1017"
     inkscape:window-x="1912"
     inkscape:window-y="-8"
     inkscape:window-maximized="1"
     inkscape:current-layer="layer1" />
  <defs
     id="defs9551" />
  <g
     inkscape:label="Livello 1"
     inkscape:groupmode="layer"
     id="layer1"
     transform="translate(123.28975,51.400907)">
    <path
       id="use517"
       d="m -102.5861,-20.378512 c 0,0.73078 -0.59214,1.322917 -1.32292,1.322917 h -17.85937 c -0.73052,0 -1.32292,-0.592137 -1.32292,-1.322917 v -29.501041 c 0,-0.730779 0.5924,-1.322917 1.32292,-1.322917 h 17.85937 c 0.73078,0 1.32292,0.592138 1.32292,1.322917 z"
       fill="#ffffff"
       stroke="#000000"
       stroke-width="0.396875" />
    <g
       id="use519"
       fill="none"
       style="stroke:#000000"
       transform="matrix(0.26458333,0,0,0.26458333,-206.6335,-51.533199)">
      <path
         d="m 327.25,5.25 h -7 v 5.25 l 0.7,0.25 c 0,0 0.47,-1.5 2.8,-1.5 2.33,0 3.27,2.25 3.27,4.5 0,2.25 -1.4,4 -3.5,4 -2.1,0 -3.03,-1.5 -3.27,-2.25"
         id="path9857" />
    </g>
    <g
       id="use521"
       fill="none"
       style="stroke:#000000"
       transform="matrix(0.26458333,0,0,0.26458333,-207.16266,-51.268615)">
      <path
         d="m 383.75,117.75 h 7 v -5.25 l -0.7,-0.25 c 0,0 -0.47,1.5 -2.8,1.5 -2.33,0 -3.27,-2.25 -3.27,-4.5 0,-2.25 1.4,-4 3.5,-4 2.1,0 3.03,1.5 3.27,2.25"
         id="path9853" />
    </g>
    <path
       id="use523"
       d="m -120.73996,-45.039001 c 0,0 0.33073,-0.264583 0.33073,-0.631296 0,-0.214841 -0.19103,-0.571235 -0.63156,-0.571235 -0.44053,0 -0.6313,0.356658 -0.6313,0.571235 0,0.366713 0.33073,0.631296 0.33073,0.631296 -0.3675,-0.286014 -1.02235,-0.09075 -1.02235,0.481013 0,0.286279 0.2339,0.601398 0.6014,0.601398 0.4408,0 0.6313,-0.481013 0.6313,-0.481013 0,0 0.0558,0.548217 -0.27067,0.841904 h 0.72152 c -0.3265,-0.293423 -0.27041,-0.841904 -0.27041,-0.841904 0,0 0.19077,0.481013 0.63156,0.481013 0.36751,0 0.60114,-0.315119 0.60114,-0.601398 0,-0.571765 -0.65511,-0.767027 -1.02209,-0.481013 z"
       style="stroke-width:0.264583" />
    <path
       id="use525"
       d="m -104.93745,-25.219064 c 0,0 -0.33073,0.264584 -0.33073,0.631296 0,0.214842 0.19103,0.571236 0.63156,0.571236 0.44053,0 0.63129,-0.356659 0.63129,-0.571236 0,-0.366712 -0.33073,-0.631296 -0.33073,-0.631296 0.36751,0.286015 1.02235,0.09075 1.02235,-0.481012 0,-0.286279 -0.23389,-0.601398 -0.60139,-0.601398 -0.4408,0 -0.6313,0.481013 -0.6313,0.481013 0,0 -0.0558,-0.548217 0.27067,-0.841905 h -0.72152 c 0.3265,0.293423 0.2704,0.841905 0.2704,0.841905 0,0 -0.19076,-0.481013 -0.63156,-0.481013 -0.3675,0 -0.60113,0.315119 -0.60113,0.601398 0,0.571765 0.65511,0.767027 1.02209,0.481012 z"
       style="stroke-width:0.264583" />
    <path
       id="use527"
       d="m -116.5008,-45.940965 c 0,0 0.62838,-0.502709 0.62838,-1.199621 0,-0.407988 -0.36221,-1.085321 -1.19962,-1.085321 -0.83741,0 -1.19962,0.677598 -1.19962,1.085321 0,0.696912 0.62839,1.199621 0.62839,1.199621 -0.69798,-0.543719 -1.94231,-0.172509 -1.94231,0.914135 0,0.543983 0.4445,1.142471 1.14247,1.142471 0.83741,0 1.19962,-0.914136 1.19962,-0.914136 0,0 0.10636,1.04193 -0.51408,1.599671 h 1.37107 c -0.62045,-0.557477 -0.51409,-1.599671 -0.51409,-1.599671 0,0 0.36222,0.914136 1.19962,0.914136 0.69824,0 1.14247,-0.598752 1.14247,-1.142471 0,-1.086644 -1.24433,-1.457854 -1.9423,-0.914135 z"
       style="stroke-width:0.264583" />
    <path
       id="use529"
       d="m -117.64327,-24.317099 c 0,0 -0.62839,0.502708 -0.62839,1.199621 0,0.407987 0.36221,1.085321 1.19962,1.085321 0.83741,0 1.19962,-0.677598 1.19962,-1.085321 0,-0.696913 -0.62838,-1.199621 -0.62838,-1.199621 0.69797,0.543719 1.9423,0.172508 1.9423,-0.914135 0,-0.543984 -0.4445,-1.142471 -1.14247,-1.142471 -0.8374,0 -1.19962,0.914135 -1.19962,0.914135 0,0 -0.10636,-1.041929 0.51409,-1.599671 h -1.37107 c 0.62044,0.557477 0.51408,1.599671 0.51408,1.599671 0,0 -0.36221,-0.914135 -1.19962,-0.914135 -0.69824,0 -1.14247,0.598752 -1.14247,1.142471 0,1.086643 1.24433,1.457854 1.94231,0.914135 z"
       style="stroke-width:0.264583" />
    <path
       id="use531"
       d="m -112.26747,-35.357632 c 0,0 0.62838,-0.502709 0.62838,-1.199621 0,-0.407988 -0.36221,-1.085321 -1.19962,-1.085321 -0.8374,0 -1.19962,0.677598 -1.19962,1.085321 0,0.696912 0.62839,1.199621 0.62839,1.199621 -0.69797,-0.543719 -1.94231,-0.172509 -1.94231,0.914135 0,0.543984 0.4445,1.142471 1.14247,1.142471 0.83741,0 1.19962,-0.914135 1.19962,-0.914135 0,0 0.10637,1.041929 -0.51408,1.59967 h 1.37107 c -0.62045,-0.557477 -0.51409,-1.59967 -0.51409,-1.59967 0,0 0.36222,0.914135 1.19962,0.914135 0.69824,0 1.14248,-0.598752 1.14248,-1.142471 0,-1.086644 -1.24434,-1.457854 -1.94231,-0.914135 z"
       style="stroke-width:0.264583" />
    <path
       id="use533"
       d="m -108.03414,-45.940965 c 0,0 0.62839,-0.502709 0.62839,-1.199621 0,-0.407988 -0.36222,-1.085321 -1.19962,-1.085321 -0.83741,0 -1.19962,0.677598 -1.19962,1.085321 0,0.696912 0.62838,1.199621 0.62838,1.199621 -0.69797,-0.543719 -1.9423,-0.172509 -1.9423,0.914135 0,0.543983 0.4445,1.142471 1.14247,1.142471 0.8374,0 1.19962,-0.914136 1.19962,-0.914136 0,0 0.10636,1.04193 -0.51409,1.599671 h 1.37107 c -0.62045,-0.557477 -0.51408,-1.599671 -0.51408,-1.599671 0,0 0.36221,0.914136 1.19962,0.914136 0.69823,0 1.14247,-0.598752 1.14247,-1.142471 0,-1.086644 -1.24434,-1.457854 -1.94231,-0.914135 z"
       style="stroke-width:0.264583" />
    <path
       id="use535"
       d="m -109.17661,-24.317099 c 0,0 -0.62838,0.502708 -0.62838,1.199621 0,0.407987 0.36221,1.085321 1.19962,1.085321 0.8374,0 1.19962,-0.677598 1.19962,-1.085321 0,-0.696913 -0.62839,-1.199621 -0.62839,-1.199621 0.69797,0.543719 1.94231,0.172508 1.94231,-0.914135 0,-0.543984 -0.4445,-1.142471 -1.14247,-1.142471 -0.83741,0 -1.19962,0.914135 -1.19962,0.914135 0,0 -0.10637,-1.041929 0.51408,-1.599671 h -1.37107 c 0.62045,0.557477 0.51409,1.599671 0.51409,1.599671 0,0 -0.36222,-0.914135 -1.19962,-0.914135 -0.69824,0 -1.14247,0.598752 -1.14247,1.142471 0,1.086643 1.24433,1.457854 1.9423,0.914135 z"
       style="stroke-width:0.264583" />
  </g>
</svg>
