<?xml version="1.0" encoding="UTF-8" standalone="no"?>
<!-- Created with Inkscape (http://www.inkscape.org/) -->

<svg
   width="20.902082mm"
   height="32.543751mm"
   viewBox="0 0 20.902082 32.543751"
   version="1.1"
   id="svg9554"
   sodipodi:docname="5_3.svg"
   inkscape:version="1.2 (dc2aedaf03, 2022-05-15)"
   xmlns:inkscape="http://www.inkscape.org/namespaces/inkscape"
   xmlns:sodipodi="http://sodipodi.sourceforge.net/DTD/sodipodi-0.dtd"
   xmlns="http://www.w3.org/2000/svg"
   xmlns:svg="http://www.w3.org/2000/svg">
  <sodipodi:namedview
     id="namedview9556"
     pagecolor="#ffffff"
     bordercolor="#000000"
     borderopacity="0.25"
     inkscape:showpageshadow="2"
     inkscape:pageopacity="0.0"
     inkscape:pagecheckerboard="0"
     inkscape:deskcolor="#d1d1d1"
     inkscape:document-units="mm"
     showgrid="false"
     inkscape:zoom="0.74564394"
     inkscape:cx="405.01905"
     inkscape:cy="21.457963"
     inkscape:window-width="1920"
     inkscape:window-height="1017"
     inkscape:window-x="1912"
     inkscape:window-y="-8"
     inkscape:window-maximized="1"
     inkscape:current-layer="layer1" />
  <defs
     id="defs9551" />
  <g
     inkscape:label="Livello 1"
     inkscape:groupmode="layer"
     id="layer1"
     transform="translate(42.386527,22.304131)">
    <path
       id="use577"
       d="m -21.682882,8.7182642 c 0,0.7307792 -0.592138,1.3229168 -1.322917,1.3229168 h -17.859375 c -0.730514,0 -1.322916,-0.5921376 -1.322916,-1.3229168 V -20.782777 c 0,-0.730779 0.592402,-1.322917 1.322916,-1.322917 h 17.859375 c 0.730779,0 1.322917,0.592138 1.322917,1.322917 z"
       fill="#ffffff"
       stroke="#000000"
       stroke-width="0.396875" />
    <g
       id="use579"
       fill="none"
       style="stroke:#000000"
       transform="matrix(0.26458333,0,0,0.26458333,-125.73028,-22.436423)">
      <path
         d="m 327.25,5.25 h -7 v 5.25 l 0.7,0.25 c 0,0 0.47,-1.5 2.8,-1.5 2.33,0 3.27,2.25 3.27,4.5 0,2.25 -1.4,4 -3.5,4 -2.1,0 -3.03,-1.5 -3.27,-2.25"
         id="path29097" />
    </g>
    <g
       id="use581"
       fill="none"
       style="stroke:#000000"
       transform="matrix(0.26458333,0,0,0.26458333,-126.25944,-22.17184)">
      <path
         d="m 383.75,117.75 h 7 v -5.25 l -0.7,-0.25 c 0,0 -0.47,1.5 -2.8,1.5 -2.33,0 -3.27,-2.25 -3.27,-4.5 0,-2.25 1.4,-4 3.5,-4 2.1,0 3.03,1.5 3.27,2.25"
         id="path29093" />
    </g>
    <path
       id="use583"
       d="m -38.948532,-15.391892 c -0.03625,-0.562239 -1.153054,-1.620573 -1.189037,-1.885156 -0.03598,0.264583 -1.153055,1.322917 -1.189038,1.885156 -0.02513,0.397669 0.252413,0.56224 0.504561,0.56224 0.360362,0 0.468577,-0.363802 0.50456,-0.463021 0,-0.03307 0.07197,-0.03307 0.07197,0 0.03598,0.09922 -0.238655,0.926042 -0.32438,0.926042 h 0.864659 c -0.08546,0 -0.360098,-0.826823 -0.324379,-0.926042 0,-0.03307 0.07223,-0.03307 0.07223,0 0.03598,0.09922 0.143933,0.463021 0.504296,0.463021 0.252412,0 0.529695,-0.164571 0.50456,-0.56224 z"
       style="stroke-width:0.264583" />
    <path
       id="use585"
       d="m -24.92244,3.3273789 c 0.03625,0.5622395 1.153054,1.6205729 1.189037,1.8851562 0.03598,-0.2645833 1.153054,-1.3229167 1.189038,-1.8851562 0.02513,-0.3976688 -0.252413,-0.5622396 -0.504561,-0.5622396 -0.360362,0 -0.468577,0.3638021 -0.50456,0.4630208 0,0.033073 -0.07197,0.033073 -0.07197,0 -0.03598,-0.099219 0.238654,-0.9260416 0.324379,-0.9260416 h -0.864658 c 0.08546,0 0.360098,0.8268229 0.324379,0.9260416 0,0.033073 -0.07223,0.033073 -0.07223,0 -0.03598,-0.099219 -0.143934,-0.4630208 -0.504296,-0.4630208 -0.252413,0 -0.529696,0.1645708 -0.50456,0.5622396 z"
       style="stroke-width:0.264583" />
    <path
       id="use587"
       d="m -34.055063,-15.794588 c -0.06403,-1.073414 -2.049727,-3.093772 -2.113756,-3.599127 -0.06403,0.50509 -2.049728,2.525448 -2.113757,3.599127 -0.04471,0.758825 0.448469,1.073415 0.896938,1.073415 0.640556,0 0.832644,-0.694531 0.896673,-0.883973 0,-0.06324 0.128058,-0.06324 0.128058,0 0.06403,0.189442 -0.424127,1.767946 -0.576527,1.767946 h 1.537494 c -0.1524,0 -0.640557,-1.578504 -0.576527,-1.767946 0,-0.06324 0.128323,-0.06324 0.128323,0 0.06403,0.189442 0.256116,0.883973 0.896672,0.883973 0.448205,-2.65e-4 0.941123,-0.31459 0.896409,-1.073415 z"
       style="stroke-width:0.264583" />
    <path
       id="use589"
       d="m -38.282576,3.7300747 c 0.06403,1.0734146 2.049727,3.0937729 2.113757,3.599127 0.06403,-0.5050895 2.049727,-2.5254479 2.113756,-3.599127 0.04471,-0.758825 -0.448469,-1.0734146 -0.896938,-1.0734146 -0.640556,0 -0.832643,0.6945313 -0.896673,0.8839729 0,0.063235 -0.128058,0.063235 -0.128058,0 -0.06403,-0.1894416 0.424127,-1.7679458 0.576527,-1.7679458 h -1.537494 c 0.1524,0 0.640557,1.5785042 0.576527,1.7679458 0,0.063235 -0.128322,0.063235 -0.128322,0 -0.06403,-0.1894416 -0.256117,-0.8839729 -0.896673,-0.8839729 -0.448205,2.646e-4 -0.941123,0.3145896 -0.896409,1.0734146 z"
       style="stroke-width:0.264583" />
    <path
       id="use591"
       d="m -29.82173,-5.2112544 c -0.06403,-1.0734145 -2.049727,-3.0937728 -2.113756,-3.599127 -0.06403,0.5050896 -2.049727,2.5254479 -2.113756,3.599127 -0.04472,0.758825 0.448468,1.0734146 0.896937,1.0734146 0.640556,0 0.832644,-0.6945312 0.896673,-0.8839729 0,-0.063235 0.128058,-0.063235 0.128058,0 0.06403,0.1894417 -0.424127,1.7679458 -0.576527,1.7679458 h 1.537494 c -0.1524,0 -0.640556,-1.5785041 -0.576527,-1.7679458 0,-0.063235 0.128323,-0.063235 0.128323,0 0.06403,0.1894417 0.256116,0.8839729 0.896673,0.8839729 0.448204,-2.646e-4 0.941123,-0.3145896 0.896408,-1.0734146 z"
       style="stroke-width:0.264583" />
    <path
       id="use593"
       d="m -25.588397,-15.794588 c -0.06403,-1.073414 -2.049727,-3.093772 -2.113756,-3.599127 -0.06403,0.50509 -2.049727,2.525448 -2.113756,3.599127 -0.04472,0.758825 0.448469,1.073415 0.896937,1.073415 0.640557,0 0.832644,-0.694531 0.896673,-0.883973 0,-0.06324 0.128059,-0.06324 0.128059,0 0.06403,0.189442 -0.424127,1.767946 -0.576527,1.767946 h 1.537493 c -0.1524,0 -0.640556,-1.578504 -0.576527,-1.767946 0,-0.06324 0.128323,-0.06324 0.128323,0 0.06403,0.189442 0.256117,0.883973 0.896673,0.883973 0.448204,-2.65e-4 0.941123,-0.31459 0.896408,-1.073415 z"
       style="stroke-width:0.264583" />
    <path
       id="use595"
       d="m -29.815909,3.7300747 c 0.06403,1.0734146 2.049727,3.0937729 2.113756,3.599127 0.06403,-0.5050895 2.049727,-2.5254479 2.113756,-3.599127 0.04472,-0.758825 -0.448468,-1.0734146 -0.896937,-1.0734146 -0.640556,0 -0.832644,0.6945313 -0.896673,0.8839729 0,0.063235 -0.128058,0.063235 -0.128058,0 -0.06403,-0.1894416 0.424127,-1.7679458 0.576527,-1.7679458 h -1.537494 c 0.1524,0 0.640556,1.5785042 0.576527,1.7679458 0,0.063235 -0.128323,0.063235 -0.128323,0 -0.06403,-0.1894416 -0.256117,-0.8839729 -0.896673,-0.8839729 -0.448204,2.646e-4 -0.941123,0.3145896 -0.896408,1.0734146 z"
       style="stroke-width:0.264583" />
  </g>
</svg>
