<?xml version="1.0" encoding="UTF-8" standalone="no"?>
<!-- Created with Inkscape (http://www.inkscape.org/) -->

<svg
   width="20.902086mm"
   height="32.543751mm"
   viewBox="0 0 20.902086 32.543751"
   version="1.1"
   id="svg9554"
   sodipodi:docname="6_0.svg"
   inkscape:version="1.2 (dc2aedaf03, 2022-05-15)"
   xmlns:inkscape="http://www.inkscape.org/namespaces/inkscape"
   xmlns:sodipodi="http://sodipodi.sourceforge.net/DTD/sodipodi-0.dtd"
   xmlns="http://www.w3.org/2000/svg"
   xmlns:svg="http://www.w3.org/2000/svg">
  <sodipodi:namedview
     id="namedview9556"
     pagecolor="#ffffff"
     bordercolor="#000000"
     borderopacity="0.25"
     inkscape:showpageshadow="2"
     inkscape:pageopacity="0.0"
     inkscape:pagecheckerboard="0"
     inkscape:deskcolor="#d1d1d1"
     inkscape:document-units="mm"
     showgrid="false"
     inkscape:zoom="0.74564394"
     inkscape:cx="549.8603"
     inkscape:cy="80.467361"
     inkscape:window-width="1920"
     inkscape:window-height="1017"
     inkscape:window-x="1912"
     inkscape:window-y="-8"
     inkscape:window-maximized="1"
     inkscape:current-layer="layer1" />
  <defs
     id="defs9551" />
  <g
     inkscape:label="Livello 1"
     inkscape:groupmode="layer"
     id="layer1"
     transform="translate(117.61234,16.626713)">
    <path
       id="use641"
       d="m -96.908689,14.395682 c 0,0.730779 -0.592138,1.322916 -1.322917,1.322916 h -17.859374 c -0.73052,0 -1.32292,-0.592137 -1.32292,-1.322916 V -15.10536 c 0,-0.730779 0.5924,-1.322916 1.32292,-1.322916 h 17.859374 c 0.730779,0 1.322917,0.592137 1.322917,1.322916 z"
       fill="#ffffff"
       stroke="#000000"
       stroke-width="0.396875" />
    <g
       id="use643"
       fill="none"
       style="stroke:#df0000"
       transform="matrix(0.26458333,0,0,0.26458333,-221.85817,-16.759005)">
      <path
         d="m 405.75,14 a 3.25,3.25 0 1 0 -6.5,0 3.25,3.25 0 1 0 6.5,0"
         id="path23444" />
      <path
         d="M 399.25,14 V 8.5 c 0,0 -0.25,-3.25 3.23,-3.25 1.08,0 2.8,0.5 3.02,2.25"
         id="path23446" />
    </g>
    <g
       id="use645"
       fill="none"
       style="stroke:#df0000"
       transform="matrix(0.26458333,0,0,0.26458333,-222.38733,-16.494422)">
      <path
         d="m 469.75,109 v 5.5 c 0,0 0.25,3.25 -3.23,3.25 -1.08,0 -2.8,-0.5 -3.02,-2.25"
         id="path23438" />
      <path
         d="m 469.75,109 a 3.25,3.25 0 1 0 -6.5,0 3.25,3.25 0 1 0 6.5,0"
         id="path23440" />
    </g>
    <path
       id="use647"
       d="m -114.81648,-11.467339 c -0.4826,0 -0.5469,0.511175 -0.5469,0.511175 0,0 -0.0643,-0.511175 -0.54689,-0.511175 -0.33787,0 -0.64373,0.229129 -0.64373,0.661458 0,0.571236 1.07024,1.5710963 1.19062,1.9843754 0.12118,-0.4135437 1.19063,-1.4131394 1.19063,-1.9843754 0,-0.432329 -0.3056,-0.661458 -0.64373,-0.661458 z"
       fill="#df0000"
       style="stroke-width:0.264583" />
    <path
       id="use649"
       d="m -99.506104,10.757661 c 0.4826,0 0.546894,-0.511175 0.546894,-0.511175 0,0 0.06429,0.511175 0.546894,0.511175 0.337873,0 0.643731,-0.229129 0.643731,-0.661458 0,-0.5712359 -1.070239,-1.5710963 -1.190625,-1.9843755 -0.121179,0.4135438 -1.19062,1.4131396 -1.19062,1.9843755 0,0.432329 0.305589,0.661458 0.643726,0.661458 z"
       fill="#df0000"
       style="stroke-width:0.264583" />
    <path
       id="use651"
       d="m -110.42202,-13.319422 c -0.85804,0 -0.97261,0.919956 -0.97261,0.919956 0,0 -0.11456,-0.919956 -0.9726,-0.919956 -0.60061,0 -1.14406,0.412485 -1.14406,1.190625 0,1.028171 1.90262,2.828131 2.11666,3.5718747 0.21511,-0.7445374 2.11667,-2.5437037 2.11667,-3.5718747 0,-0.77814 -0.54345,-1.190625 -1.14406,-1.190625 z"
       fill="#df0000"
       style="stroke-width:0.264583" />
    <path
       id="use653"
       d="m -110.42202,-2.736089 c -0.85804,0 -0.97261,0.9199562 -0.97261,0.9199562 0,0 -0.11456,-0.9199562 -0.9726,-0.9199562 -0.60061,0 -1.14406,0.4124854 -1.14406,1.190625 0,1.02817081 1.90262,2.8281312 2.11666,3.5718749 0.21511,-0.7445374 2.11667,-2.54370409 2.11667,-3.5718749 0,-0.7781396 -0.54345,-1.190625 -1.14406,-1.190625 z"
       fill="#df0000"
       style="stroke-width:0.264583" />
    <path
       id="use655"
       d="m -112.36723,12.609744 c 0.85804,0 0.9726,-0.919956 0.9726,-0.919956 0,0 0.11457,0.919956 0.97261,0.919956 0.60061,0 1.14406,-0.412485 1.14406,-1.190625 0,-1.028171 -1.90262,-2.8281311 -2.11667,-3.5718748 -0.2151,0.7445375 -2.11666,2.5437038 -2.11666,3.5718748 0,0.77814 0.54345,1.190625 1.14406,1.190625 z"
       fill="#df0000"
       style="stroke-width:0.264583" />
    <path
       id="use657"
       d="m -101.95535,-13.319422 c -0.85805,0 -0.97261,0.919956 -0.97261,0.919956 0,0 -0.11456,-0.919956 -0.97261,-0.919956 -0.6006,0 -1.14406,0.412485 -1.14406,1.190625 0,1.028171 1.90262,2.828131 2.11667,3.5718747 0.21511,-0.7445374 2.11667,-2.5437037 2.11667,-3.5718747 0,-0.77814 -0.54346,-1.190625 -1.14406,-1.190625 z"
       fill="#df0000"
       style="stroke-width:0.264583" />
    <path
       id="use659"
       d="m -101.95535,-2.736089 c -0.85805,0 -0.97261,0.9199562 -0.97261,0.9199562 0,0 -0.11456,-0.9199562 -0.97261,-0.9199562 -0.6006,0 -1.14406,0.4124854 -1.14406,1.190625 0,1.02817081 1.90262,2.8281312 2.11667,3.5718749 0.21511,-0.7445374 2.11667,-2.54370409 2.11667,-3.5718749 0,-0.7781396 -0.54346,-1.190625 -1.14406,-1.190625 z"
       fill="#df0000"
       style="stroke-width:0.264583" />
    <path
       id="use661"
       d="m -103.90057,12.609744 c 0.85805,0 0.97261,-0.919956 0.97261,-0.919956 0,0 0.11456,0.919956 0.97261,0.919956 0.6006,0 1.14406,-0.412485 1.14406,-1.190625 0,-1.028171 -1.90262,-2.8281311 -2.11667,-3.5718748 -0.21511,0.7445375 -2.11667,2.5437038 -2.11667,3.5718748 0,0.77814 0.54346,1.190625 1.14406,1.190625 z"
       fill="#df0000"
       style="stroke-width:0.264583" />
  </g>
</svg>
