<?xml version="1.0" encoding="UTF-8" standalone="no"?>
<!-- Created with Inkscape (http://www.inkscape.org/) -->

<svg
   width="20.902079mm"
   height="32.543751mm"
   viewBox="0 0 20.902079 32.543751"
   version="1.1"
   id="svg9554"
   sodipodi:docname="6_1.svg"
   inkscape:version="1.2 (dc2aedaf03, 2022-05-15)"
   xmlns:inkscape="http://www.inkscape.org/namespaces/inkscape"
   xmlns:sodipodi="http://sodipodi.sourceforge.net/DTD/sodipodi-0.dtd"
   xmlns="http://www.w3.org/2000/svg"
   xmlns:svg="http://www.w3.org/2000/svg">
  <sodipodi:namedview
     id="namedview9556"
     pagecolor="#ffffff"
     bordercolor="#000000"
     borderopacity="0.25"
     inkscape:showpageshadow="2"
     inkscape:pageopacity="0.0"
     inkscape:pagecheckerboard="0"
     inkscape:deskcolor="#d1d1d1"
     inkscape:document-units="mm"
     showgrid="false"
     inkscape:zoom="0.74564394"
     inkscape:cx="-71.079502"
     inkscape:cy="171.6637"
     inkscape:window-width="1920"
     inkscape:window-height="1017"
     inkscape:window-x="1912"
     inkscape:window-y="-8"
     inkscape:window-maximized="1"
     inkscape:current-layer="layer1" />
  <defs
     id="defs9551" />
  <g
     inkscape:label="Livello 1"
     inkscape:groupmode="layer"
     id="layer1"
     transform="translate(-96.710249,-2.1797386)">
    <path
       id="use619"
       d="m 117.41389,33.202134 c 0,0.730779 -0.59213,1.322917 -1.32291,1.322917 H 98.231603 c -0.730515,0 -1.322917,-0.592138 -1.322917,-1.322917 V 3.7010927 c 0,-0.7307791 0.592402,-1.3229166 1.322917,-1.3229166 h 17.859377 c 0.73078,0 1.32291,0.5921375 1.32291,1.3229166 z"
       fill="#ffffff"
       stroke="#000000"
       stroke-width="0.396875" />
    <g
       id="use621"
       fill="none"
       style="stroke:#df0000"
       transform="matrix(0.26458333,0,0,0.26458333,-7.5355833,2.0474469)">
      <path
         d="m 405.75,14 a 3.25,3.25 0 1 0 -6.5,0 3.25,3.25 0 1 0 6.5,0"
         id="path15805" />
      <path
         d="M 399.25,14 V 8.5 c 0,0 -0.25,-3.25 3.23,-3.25 1.08,0 2.8,0.5 3.02,2.25"
         id="path15807" />
    </g>
    <g
       id="use623"
       fill="none"
       style="stroke:#df0000"
       transform="matrix(0.26458333,0,0,0.26458333,-8.0647499,2.3120303)">
      <path
         d="m 469.75,109 v 5.5 c 0,0 0.25,3.25 -3.23,3.25 -1.08,0 -2.8,-0.5 -3.02,-2.25"
         id="path15799" />
      <path
         d="m 469.75,109 a 3.25,3.25 0 1 0 -6.5,0 3.25,3.25 0 1 0 6.5,0"
         id="path15801" />
    </g>
    <path
       id="use625"
       d="m 99.484405,7.9674989 c -0.315119,-0.396875 -0.525198,-0.760677 -0.525198,-0.760677 0,0 -0.210079,0.363802 -0.525198,0.760677 -0.315119,0.396875 -0.665427,0.6945313 -0.665427,0.6945313 0,0 0.350308,0.2976562 0.665427,0.6945312 0.315119,0.396875 0.525198,0.7606766 0.525198,0.7606766 0,0 0.210079,-0.3638016 0.525198,-0.7606766 0.315119,-0.396875 0.665425,-0.6945312 0.665425,-0.6945312 0,0 -0.350042,-0.2976563 -0.665425,-0.6945313 z"
       fill="#df0000"
       style="stroke-width:0.264583" />
    <path
       id="use627"
       d="m 115.88857,27.546665 c -0.31512,-0.396875 -0.5252,-0.760677 -0.5252,-0.760677 0,0 -0.21008,0.363802 -0.52519,0.760677 -0.31512,0.396875 -0.66543,0.694532 -0.66543,0.694532 0,0 0.35031,0.297656 0.66543,0.694531 0.31511,0.396875 0.52519,0.760677 0.52519,0.760677 0,0 0.21008,-0.363802 0.5252,-0.760677 0.31512,-0.396875 0.66543,-0.694531 0.66543,-0.694531 0,0 -0.35005,-0.297657 -0.66543,-0.694532 z"
       fill="#df0000"
       style="stroke-width:0.264583" />
    <path
       id="use629"
       d="m 103.86167,6.5424531 c -0.56012,-0.7577666 -0.93371,-1.4522979 -0.93371,-1.4522979 0,0 -0.37359,0.6945313 -0.93372,1.4522979 -0.56012,0.7577667 -1.18295,1.3258271 -1.18295,1.3258271 0,0 0.62256,0.5680604 1.18295,1.3260916 0.56039,0.7580313 0.93372,1.4520332 0.93372,1.4520332 0,0 0.37359,-0.6945311 0.93371,-1.4520332 0.56012,-0.757502 1.18295,-1.3260916 1.18295,-1.3260916 0,0 -0.62256,-0.568325 -1.18295,-1.3258271 z"
       fill="#df0000"
       style="stroke-width:0.264583" />
    <path
       id="use631"
       d="m 103.86167,17.125786 c -0.56012,-0.757766 -0.93371,-1.452298 -0.93371,-1.452298 0,0 -0.37359,0.694532 -0.93372,1.452298 -0.56012,0.757767 -1.18295,1.325827 -1.18295,1.325827 0,0 0.62256,0.568061 1.18295,1.326092 0.56039,0.758031 0.93372,1.452033 0.93372,1.452033 0,0 0.37359,-0.694531 0.93371,-1.452033 0.56012,-0.757502 1.18295,-1.326092 1.18295,-1.326092 0,0 -0.62256,-0.568325 -1.18295,-1.325827 z"
       fill="#df0000"
       style="stroke-width:0.264583" />
    <path
       id="use633"
       d="m 103.86167,27.70912 c -0.56012,-0.757767 -0.93371,-1.452298 -0.93371,-1.452298 0,0 -0.37359,0.694531 -0.93372,1.452298 -0.56012,0.757766 -1.18295,1.325827 -1.18295,1.325827 0,0 0.62256,0.56806 1.18295,1.326091 0.56039,0.758031 0.93372,1.452034 0.93372,1.452034 0,0 0.37359,-0.694532 0.93371,-1.452034 0.56012,-0.757502 1.18295,-1.326091 1.18295,-1.326091 0,0 -0.62256,-0.568325 -1.18295,-1.325827 z"
       fill="#df0000"
       style="stroke-width:0.264583" />
    <path
       id="use635"
       d="m 112.32834,6.5424531 c -0.56012,-0.7577666 -0.93372,-1.4522979 -0.93372,-1.4522979 0,0 -0.37359,0.6945313 -0.93371,1.4522979 -0.56012,0.7577667 -1.18295,1.3258271 -1.18295,1.3258271 0,0 0.62256,0.5680604 1.18295,1.3260916 0.56039,0.7580313 0.93371,1.4520332 0.93371,1.4520332 0,0 0.3736,-0.6945311 0.93372,-1.4520332 0.56012,-0.757502 1.18295,-1.3260916 1.18295,-1.3260916 0,0 -0.62256,-0.568325 -1.18295,-1.3258271 z"
       fill="#df0000"
       style="stroke-width:0.264583" />
    <path
       id="use637"
       d="m 112.32834,17.125786 c -0.56012,-0.757766 -0.93372,-1.452298 -0.93372,-1.452298 0,0 -0.37359,0.694532 -0.93371,1.452298 -0.56012,0.757767 -1.18295,1.325827 -1.18295,1.325827 0,0 0.62256,0.568061 1.18295,1.326092 0.56039,0.758031 0.93371,1.452033 0.93371,1.452033 0,0 0.3736,-0.694531 0.93372,-1.452033 0.56012,-0.757502 1.18295,-1.326092 1.18295,-1.326092 0,0 -0.62256,-0.568325 -1.18295,-1.325827 z"
       fill="#df0000"
       style="stroke-width:0.264583" />
    <path
       id="use639"
       d="m 112.32834,27.70912 c -0.56012,-0.757767 -0.93372,-1.452298 -0.93372,-1.452298 0,0 -0.37359,0.694531 -0.93371,1.452298 -0.56012,0.757766 -1.18295,1.325827 -1.18295,1.325827 0,0 0.62256,0.56806 1.18295,1.326091 0.56039,0.758031 0.93371,1.452034 0.93371,1.452034 0,0 0.3736,-0.694532 0.93372,-1.452034 0.56012,-0.757502 1.18295,-1.326091 1.18295,-1.326091 0,0 -0.62256,-0.568325 -1.18295,-1.325827 z"
       fill="#df0000"
       style="stroke-width:0.264583" />
  </g>
</svg>
