<?xml version="1.0" encoding="UTF-8" standalone="no"?>
<!-- Created with Inkscape (http://www.inkscape.org/) -->

<svg
   width="20.902082mm"
   height="32.543751mm"
   viewBox="0 0 20.902082 32.543751"
   version="1.1"
   id="svg9554"
   sodipodi:docname="6_2.svg"
   inkscape:version="1.2 (dc2aedaf03, 2022-05-15)"
   xmlns:inkscape="http://www.inkscape.org/namespaces/inkscape"
   xmlns:sodipodi="http://sodipodi.sourceforge.net/DTD/sodipodi-0.dtd"
   xmlns="http://www.w3.org/2000/svg"
   xmlns:svg="http://www.w3.org/2000/svg">
  <sodipodi:namedview
     id="namedview9556"
     pagecolor="#ffffff"
     bordercolor="#000000"
     borderopacity="0.25"
     inkscape:showpageshadow="2"
     inkscape:pageopacity="0.0"
     inkscape:pagecheckerboard="0"
     inkscape:deskcolor="#d1d1d1"
     inkscape:document-units="mm"
     showgrid="false"
     inkscape:zoom="0.74564394"
     inkscape:cx="174.34595"
     inkscape:cy="-48.280417"
     inkscape:window-width="1920"
     inkscape:window-height="1017"
     inkscape:window-x="1912"
     inkscape:window-y="-8"
     inkscape:window-maximized="1"
     inkscape:current-layer="layer1" />
  <defs
     id="defs9551" />
  <g
     inkscape:label="Livello 1"
     inkscape:groupmode="layer"
     id="layer1"
     transform="translate(-16.87154,-47.599093)">
    <g
       id="g9895">
      <g
         id="use599"
         fill="none"
         style="stroke:#000000"
         transform="translate(1,-0.5)">
        <path
           d="m 405.75,14 a 3.25,3.25 0 1 0 -6.5,0 3.25,3.25 0 1 0 6.5,0"
           id="path9981" />
        <path
           d="M 399.25,14 V 8.5 c 0,0 -0.25,-3.25 3.23,-3.25 1.08,0 2.8,0.5 3.02,2.25"
           id="path9983" />
      </g>
      <g
         id="use601"
         fill="none"
         style="stroke:#000000"
         transform="translate(-1,0.5)">
        <path
           d="m 469.75,109 v 5.5 c 0,0 0.25,3.25 -3.23,3.25 -1.08,0 -2.8,-0.5 -3.02,-2.25"
           id="path9975" />
        <path
           d="m 469.75,109 a 3.25,3.25 0 1 0 -6.5,0 3.25,3.25 0 1 0 6.5,0"
           id="path9977" />
      </g>
      <path
         id="use603"
         d="m 404.637,24.045 c 0,0 1.25,-1 1.25,-2.386 0,-0.812 -0.722,-2.159 -2.387,-2.159 -1.665,0 -2.386,1.348 -2.386,2.159 0,1.386 1.25,2.386 1.25,2.386 -1.389,-1.081 -3.864,-0.343 -3.864,1.818 0,1.082 0.884,2.273 2.273,2.273 1.666,0 2.386,-1.818 2.386,-1.818 0,0 0.211,2.072 -1.023,3.182 h 2.727 c -1.234,-1.109 -1.022,-3.182 -1.022,-3.182 0,0 0.721,1.818 2.387,1.818 1.389,0 2.272,-1.191 2.272,-2.273 0,-2.161 -2.476,-2.899 -3.863,-1.818 z" />
      <path
         id="use605"
         d="m 464.363,98.955 c 0,0 -1.25,1 -1.25,2.386 0,0.812 0.722,2.159 2.387,2.159 1.665,0 2.386,-1.348 2.386,-2.159 0,-1.386 -1.25,-2.386 -1.25,-2.386 1.389,1.081 3.864,0.343 3.864,-1.818 0,-1.082 -0.884,-2.273 -2.273,-2.273 -1.666,0 -2.386,1.818 -2.386,1.818 0,0 -0.211,-2.072 1.023,-3.182 h -2.727 c 1.234,1.109 1.022,3.182 1.022,3.182 0,0 -0.721,-1.818 -2.387,-1.818 -1.389,0 -2.272,1.191 -2.272,2.273 0,2.161 2.476,2.899 3.863,1.818 z" />
      <path
         id="use607"
         d="m 420.659,20.636 c 0,0 2.375,-1.9 2.375,-4.534 0,-1.542 -1.369,-4.102 -4.534,-4.102 -3.165,0 -4.534,2.561 -4.534,4.102 0,2.634 2.375,4.534 2.375,4.534 -2.638,-2.055 -7.341,-0.652 -7.341,3.455 0,2.056 1.68,4.318 4.318,4.318 3.165,0 4.534,-3.455 4.534,-3.455 0,0 0.402,3.938 -1.943,6.046 h 5.182 c -2.345,-2.107 -1.943,-6.046 -1.943,-6.046 0,0 1.369,3.455 4.534,3.455 2.639,0 4.318,-2.263 4.318,-4.318 0,-4.107 -4.703,-5.51 -7.341,-3.455 z" />
      <path
         id="use609"
         d="m 420.659,60.636 c 0,0 2.375,-1.9 2.375,-4.534 0,-1.542 -1.369,-4.102 -4.534,-4.102 -3.165,0 -4.534,2.561 -4.534,4.102 0,2.634 2.375,4.534 2.375,4.534 -2.638,-2.055 -7.341,-0.652 -7.341,3.455 0,2.056 1.68,4.318 4.318,4.318 3.165,0 4.534,-3.455 4.534,-3.455 0,0 0.402,3.938 -1.943,6.046 h 5.182 c -2.345,-2.107 -1.943,-6.046 -1.943,-6.046 0,0 1.369,3.455 4.534,3.455 2.639,0 4.318,-2.263 4.318,-4.318 0,-4.107 -4.703,-5.51 -7.341,-3.455 z" />
      <path
         id="use611"
         d="m 416.341,102.364 c 0,0 -2.375,1.9 -2.375,4.534 0,1.542 1.369,4.102 4.534,4.102 3.165,0 4.534,-2.561 4.534,-4.102 0,-2.634 -2.375,-4.534 -2.375,-4.534 2.638,2.055 7.341,0.652 7.341,-3.455 0,-2.056 -1.68,-4.318 -4.318,-4.318 -3.165,0 -4.534,3.455 -4.534,3.455 0,0 -0.402,-3.938 1.943,-6.046 h -5.182 c 2.345,2.107 1.943,6.046 1.943,6.046 0,0 -1.369,-3.455 -4.534,-3.455 -2.639,0 -4.318,2.263 -4.318,4.318 0,4.107 4.703,5.51 7.341,3.455 z" />
      <path
         id="use613"
         d="m 452.659,20.636 c 0,0 2.375,-1.9 2.375,-4.534 0,-1.542 -1.369,-4.102 -4.534,-4.102 -3.165,0 -4.534,2.561 -4.534,4.102 0,2.634 2.375,4.534 2.375,4.534 -2.638,-2.055 -7.341,-0.652 -7.341,3.455 0,2.056 1.68,4.318 4.318,4.318 3.165,0 4.534,-3.455 4.534,-3.455 0,0 0.402,3.938 -1.943,6.046 h 5.182 c -2.345,-2.107 -1.943,-6.046 -1.943,-6.046 0,0 1.369,3.455 4.534,3.455 2.639,0 4.318,-2.263 4.318,-4.318 0,-4.107 -4.703,-5.51 -7.341,-3.455 z" />
      <path
         id="use615"
         d="m 452.659,60.636 c 0,0 2.375,-1.9 2.375,-4.534 0,-1.542 -1.369,-4.102 -4.534,-4.102 -3.165,0 -4.534,2.561 -4.534,4.102 0,2.634 2.375,4.534 2.375,4.534 -2.638,-2.055 -7.341,-0.652 -7.341,3.455 0,2.056 1.68,4.318 4.318,4.318 3.165,0 4.534,-3.455 4.534,-3.455 0,0 0.402,3.938 -1.943,6.046 h 5.182 c -2.345,-2.107 -1.943,-6.046 -1.943,-6.046 0,0 1.369,3.455 4.534,3.455 2.639,0 4.318,-2.263 4.318,-4.318 0,-4.107 -4.703,-5.51 -7.341,-3.455 z" />
      <path
         id="use617"
         d="m 448.341,102.364 c 0,0 -2.375,1.9 -2.375,4.534 0,1.542 1.369,4.102 4.534,4.102 3.165,0 4.534,-2.561 4.534,-4.102 0,-2.634 -2.375,-4.534 -2.375,-4.534 2.638,2.055 7.341,0.652 7.341,-3.455 0,-2.056 -1.68,-4.318 -4.318,-4.318 -3.165,0 -4.534,3.455 -4.534,3.455 0,0 -0.402,-3.938 1.943,-6.046 h -5.182 c 2.345,2.107 1.943,6.046 1.943,6.046 0,0 -1.369,-3.455 -4.534,-3.455 -2.639,0 -4.318,2.263 -4.318,4.318 0,4.107 4.703,5.51 7.341,3.455 z" />
    </g>
    <g
       id="g9907" />
    <path
       id="use597"
       d="m 37.575185,78.621488 c 0,0.73078 -0.592138,1.322917 -1.322917,1.322917 H 18.392893 c -0.730514,0 -1.322916,-0.592137 -1.322916,-1.322917 V 49.120447 c 0,-0.730779 0.592402,-1.322917 1.322916,-1.322917 h 17.859375 c 0.730779,0 1.322917,0.592138 1.322917,1.322917 z"
       fill="#ffffff"
       stroke="#000000"
       stroke-width="0.396875" />
    <g
       id="use599-7"
       fill="none"
       style="stroke:#000000"
       transform="matrix(0.26458333,0,0,0.26458333,-87.374293,47.466801)">
      <path
         d="m 405.75,14 a 3.25,3.25 0 1 0 -6.5,0 3.25,3.25 0 1 0 6.5,0"
         id="path10100" />
      <path
         d="M 399.25,14 V 8.5 c 0,0 -0.25,-3.25 3.23,-3.25 1.08,0 2.8,0.5 3.02,2.25"
         id="path10102" />
    </g>
    <g
       id="use601-6"
       fill="none"
       style="stroke:#000000"
       transform="matrix(0.26458333,0,0,0.26458333,-87.903459,47.731385)">
      <path
         d="m 469.75,109 v 5.5 c 0,0 0.25,3.25 -3.23,3.25 -1.08,0 -2.8,-0.5 -3.02,-2.25"
         id="path10094" />
      <path
         d="m 469.75,109 a 3.25,3.25 0 1 0 -6.5,0 3.25,3.25 0 1 0 6.5,0"
         id="path10096" />
    </g>
    <path
       id="use603-8"
       d="m 19.421329,53.960999 c 0,0 0.330729,-0.264583 0.330729,-0.631296 0,-0.214841 -0.191029,-0.571235 -0.63156,-0.571235 -0.440532,0 -0.631296,0.356658 -0.631296,0.571235 0,0.366713 0.330729,0.631296 0.330729,0.631296 -0.367506,-0.286014 -1.02235,-0.09075 -1.02235,0.481013 0,0.286279 0.233892,0.601398 0.601398,0.601398 0.440796,0 0.631296,-0.481013 0.631296,-0.481013 0,0 0.05583,0.548217 -0.270669,0.841904 h 0.721519 c -0.326496,-0.293423 -0.270404,-0.841904 -0.270404,-0.841904 0,0 0.190764,0.481013 0.63156,0.481013 0.367506,0 0.601133,-0.315119 0.601133,-0.601398 0,-0.571765 -0.655108,-0.767027 -1.022085,-0.481013 z"
       style="stroke-width:0.264583" />
    <path
       id="use605-3"
       d="m 35.223833,73.780936 c 0,0 -0.330729,0.264584 -0.330729,0.631296 0,0.214842 0.191029,0.571236 0.63156,0.571236 0.440531,0 0.631296,-0.356659 0.631296,-0.571236 0,-0.366712 -0.330729,-0.631296 -0.330729,-0.631296 0.367506,0.286015 1.02235,0.09075 1.02235,-0.481012 0,-0.286279 -0.233892,-0.601398 -0.601398,-0.601398 -0.440796,0 -0.631296,0.481013 -0.631296,0.481013 0,0 -0.05583,-0.548217 0.270669,-0.841905 h -0.721519 c 0.326496,0.293423 0.270404,0.841905 0.270404,0.841905 0,0 -0.190764,-0.481013 -0.63156,-0.481013 -0.367506,0 -0.601134,0.315119 -0.601134,0.601398 0,0.571765 0.655109,0.767027 1.022086,0.481012 z"
       style="stroke-width:0.264583" />
    <path
       id="use607-7"
       d="m 23.660483,53.059035 c 0,0 0.628385,-0.502709 0.628385,-1.199621 0,-0.407988 -0.362214,-1.085321 -1.19962,-1.085321 -0.837407,0 -1.199621,0.677598 -1.199621,1.085321 0,0.696912 0.628385,1.199621 0.628385,1.199621 -0.697971,-0.543719 -1.942306,-0.172509 -1.942306,0.914135 0,0.543983 0.4445,1.142471 1.142471,1.142471 0.837406,0 1.199621,-0.914136 1.199621,-0.914136 0,0 0.106362,1.04193 -0.514086,1.599671 h 1.371071 c -0.620448,-0.557477 -0.514085,-1.599671 -0.514085,-1.599671 0,0 0.362214,0.914136 1.19962,0.914136 0.698236,0 1.142471,-0.598752 1.142471,-1.142471 0,-1.086644 -1.244335,-1.457854 -1.942306,-0.914135 z"
       style="stroke-width:0.264583" />
    <path
       id="use609-6"
       d="m 23.660483,63.642368 c 0,0 0.628385,-0.502709 0.628385,-1.199621 0,-0.407988 -0.362214,-1.085321 -1.19962,-1.085321 -0.837407,0 -1.199621,0.677598 -1.199621,1.085321 0,0.696912 0.628385,1.199621 0.628385,1.199621 -0.697971,-0.543719 -1.942306,-0.172509 -1.942306,0.914135 0,0.543984 0.4445,1.142471 1.142471,1.142471 0.837406,0 1.199621,-0.914135 1.199621,-0.914135 0,0 0.106362,1.041929 -0.514086,1.59967 h 1.371071 c -0.620448,-0.557477 -0.514085,-1.59967 -0.514085,-1.59967 0,0 0.362214,0.914135 1.19962,0.914135 0.698236,0 1.142471,-0.598752 1.142471,-1.142471 0,-1.086644 -1.244335,-1.457854 -1.942306,-0.914135 z"
       style="stroke-width:0.264583" />
    <path
       id="use611-8"
       d="m 22.518012,74.682901 c 0,0 -0.628385,0.502708 -0.628385,1.199621 0,0.407987 0.362214,1.085321 1.199621,1.085321 0.837406,0 1.19962,-0.677598 1.19962,-1.085321 0,-0.696913 -0.628385,-1.199621 -0.628385,-1.199621 0.697971,0.543719 1.942306,0.172508 1.942306,-0.914135 0,-0.543984 -0.4445,-1.142471 -1.142471,-1.142471 -0.837406,0 -1.19962,0.914135 -1.19962,0.914135 0,0 -0.106363,-1.041929 0.514085,-1.599671 h -1.371071 c 0.620448,0.557477 0.514086,1.599671 0.514086,1.599671 0,0 -0.362215,-0.914135 -1.199621,-0.914135 -0.698236,0 -1.142471,0.598752 -1.142471,1.142471 0,1.086643 1.244335,1.457854 1.942306,0.914135 z"
       style="stroke-width:0.264583" />
    <path
       id="use613-0"
       d="m 32.12715,53.059035 c 0,0 0.628385,-0.502709 0.628385,-1.199621 0,-0.407988 -0.362215,-1.085321 -1.199621,-1.085321 -0.837406,0 -1.199621,0.677598 -1.199621,1.085321 0,0.696912 0.628386,1.199621 0.628386,1.199621 -0.697971,-0.543719 -1.942306,-0.172509 -1.942306,0.914135 0,0.543983 0.4445,1.142471 1.14247,1.142471 0.837407,0 1.199621,-0.914136 1.199621,-0.914136 0,0 0.106363,1.04193 -0.514085,1.599671 h 1.371071 c -0.620448,-0.557477 -0.514086,-1.599671 -0.514086,-1.599671 0,0 0.362215,0.914136 1.199621,0.914136 0.698235,0 1.142471,-0.598752 1.142471,-1.142471 0,-1.086644 -1.244336,-1.457854 -1.942306,-0.914135 z"
       style="stroke-width:0.264583" />
    <path
       id="use615-0"
       d="m 32.12715,63.642368 c 0,0 0.628385,-0.502709 0.628385,-1.199621 0,-0.407988 -0.362215,-1.085321 -1.199621,-1.085321 -0.837406,0 -1.199621,0.677598 -1.199621,1.085321 0,0.696912 0.628386,1.199621 0.628386,1.199621 -0.697971,-0.543719 -1.942306,-0.172509 -1.942306,0.914135 0,0.543984 0.4445,1.142471 1.14247,1.142471 0.837407,0 1.199621,-0.914135 1.199621,-0.914135 0,0 0.106363,1.041929 -0.514085,1.59967 h 1.371071 c -0.620448,-0.557477 -0.514086,-1.59967 -0.514086,-1.59967 0,0 0.362215,0.914135 1.199621,0.914135 0.698235,0 1.142471,-0.598752 1.142471,-1.142471 0,-1.086644 -1.244336,-1.457854 -1.942306,-0.914135 z"
       style="stroke-width:0.264583" />
    <path
       id="use617-1"
       d="m 30.984679,74.682901 c 0,0 -0.628386,0.502708 -0.628386,1.199621 0,0.407987 0.362215,1.085321 1.199621,1.085321 0.837406,0 1.199621,-0.677598 1.199621,-1.085321 0,-0.696913 -0.628385,-1.199621 -0.628385,-1.199621 0.69797,0.543719 1.942306,0.172508 1.942306,-0.914135 0,-0.543984 -0.4445,-1.142471 -1.142471,-1.142471 -0.837406,0 -1.199621,0.914135 -1.199621,0.914135 0,0 -0.106362,-1.041929 0.514086,-1.599671 h -1.371071 c 0.620448,0.557477 0.514085,1.599671 0.514085,1.599671 0,0 -0.362214,-0.914135 -1.199621,-0.914135 -0.698235,0 -1.14247,0.598752 -1.14247,1.142471 0,1.086643 1.244335,1.457854 1.942306,0.914135 z"
       style="stroke-width:0.264583" />
  </g>
</svg>
