<?xml version="1.0" encoding="UTF-8" standalone="no"?>
<!-- Created with Inkscape (http://www.inkscape.org/) -->

<svg
   width="20.902082mm"
   height="32.543751mm"
   viewBox="0 0 20.902082 32.543751"
   version="1.1"
   id="svg9554"
   sodipodi:docname="6_3.svg"
   inkscape:version="1.2 (dc2aedaf03, 2022-05-15)"
   xmlns:inkscape="http://www.inkscape.org/namespaces/inkscape"
   xmlns:sodipodi="http://sodipodi.sourceforge.net/DTD/sodipodi-0.dtd"
   xmlns="http://www.w3.org/2000/svg"
   xmlns:svg="http://www.w3.org/2000/svg">
  <sodipodi:namedview
     id="namedview9556"
     pagecolor="#ffffff"
     bordercolor="#000000"
     borderopacity="0.25"
     inkscape:showpageshadow="2"
     inkscape:pageopacity="0.0"
     inkscape:pagecheckerboard="0"
     inkscape:deskcolor="#d1d1d1"
     inkscape:document-units="mm"
     showgrid="false"
     inkscape:zoom="0.74564394"
     inkscape:cx="264.20117"
     inkscape:cy="155.57023"
     inkscape:window-width="1920"
     inkscape:window-height="1017"
     inkscape:window-x="1912"
     inkscape:window-y="-8"
     inkscape:window-maximized="1"
     inkscape:current-layer="layer1" />
  <defs
     id="defs9551" />
  <g
     inkscape:label="Livello 1"
     inkscape:groupmode="layer"
     id="layer1"
     transform="translate(-37.097346,35.433161)">
    <path
       id="use663"
       d="m 57.800991,-4.4107658 c 0,0.7307792 -0.592138,1.3229167 -1.322917,1.3229167 H 38.618699 c -0.730514,0 -1.322916,-0.5921375 -1.322916,-1.3229167 V -33.911807 c 0,-0.730779 0.592402,-1.322917 1.322916,-1.322917 h 17.859375 c 0.730779,0 1.322917,0.592138 1.322917,1.322917 z"
       fill="#ffffff"
       stroke="#000000"
       stroke-width="0.396875" />
    <g
       id="use665"
       fill="none"
       style="stroke:#000000"
       transform="matrix(0.26458333,0,0,0.26458333,-67.148487,-35.565453)">
      <path
         d="m 405.75,14 a 3.25,3.25 0 1 0 -6.5,0 3.25,3.25 0 1 0 6.5,0"
         id="path29228" />
      <path
         d="M 399.25,14 V 8.5 c 0,0 -0.25,-3.25 3.23,-3.25 1.08,0 2.8,0.5 3.02,2.25"
         id="path29230" />
    </g>
    <g
       id="use667"
       fill="none"
       style="stroke:#000000"
       transform="matrix(0.26458333,0,0,0.26458333,-67.677653,-35.30087)">
      <path
         d="m 469.75,109 v 5.5 c 0,0 0.25,3.25 -3.23,3.25 -1.08,0 -2.8,-0.5 -3.02,-2.25"
         id="path29222" />
      <path
         d="m 469.75,109 a 3.25,3.25 0 1 0 -6.5,0 3.25,3.25 0 1 0 6.5,0"
         id="path29224" />
    </g>
    <path
       id="use669"
       d="m 40.535341,-28.520922 c -0.03625,-0.562239 -1.153054,-1.620573 -1.189037,-1.885156 -0.03598,0.264583 -1.153054,1.322917 -1.189038,1.885156 -0.02513,0.397669 0.252413,0.56224 0.504561,0.56224 0.360362,0 0.468577,-0.363802 0.50456,-0.463021 0,-0.03307 0.07197,-0.03307 0.07197,0 0.03598,0.09922 -0.238655,0.926042 -0.32438,0.926042 h 0.864659 c -0.08546,0 -0.360098,-0.826823 -0.324379,-0.926042 0,-0.03307 0.07223,-0.03307 0.07223,0 0.03598,0.09922 0.143933,0.463021 0.504296,0.463021 0.252412,0 0.529696,-0.164571 0.50456,-0.56224 z"
       style="stroke-width:0.264583" />
    <path
       id="use671"
       d="m 54.561433,-9.8016511 c 0.03625,0.5622395 1.153054,1.6205729 1.189037,1.8851562 0.03598,-0.2645833 1.153054,-1.3229167 1.189038,-1.8851562 0.02514,-0.3976689 -0.252413,-0.5622399 -0.504561,-0.5622399 -0.360362,0 -0.468577,0.363802 -0.50456,0.4630211 0,0.033073 -0.07197,0.033073 -0.07197,0 -0.03598,-0.099219 0.238654,-0.9260421 0.324379,-0.9260421 h -0.864658 c 0.08546,0 0.360098,0.826823 0.324379,0.9260421 0,0.033073 -0.07223,0.033073 -0.07223,0 -0.03598,-0.099219 -0.143933,-0.4630211 -0.504296,-0.4630211 -0.252412,0 -0.529696,0.164571 -0.50456,0.5622399 z"
       style="stroke-width:0.264583" />
    <path
       id="use673"
       d="m 45.42881,-28.923618 c -0.06403,-1.073414 -2.049727,-3.093772 -2.113756,-3.599127 -0.06403,0.50509 -2.049727,2.525448 -2.113757,3.599127 -0.04471,0.758825 0.448469,1.073415 0.896938,1.073415 0.640556,0 0.832644,-0.694531 0.896673,-0.883973 0,-0.06323 0.128058,-0.06323 0.128058,0 0.06403,0.189442 -0.424127,1.767946 -0.576527,1.767946 h 1.537494 c -0.1524,0 -0.640556,-1.578504 -0.576527,-1.767946 0,-0.06323 0.128323,-0.06323 0.128323,0 0.06403,0.189442 0.256116,0.883973 0.896673,0.883973 0.448204,-2.65e-4 0.941122,-0.31459 0.896408,-1.073415 z"
       style="stroke-width:0.264583" />
    <path
       id="use675"
       d="m 45.42881,-18.340284 c -0.06403,-1.073415 -2.049727,-3.093773 -2.113756,-3.599127 -0.06403,0.505089 -2.049727,2.525447 -2.113757,3.599127 -0.04471,0.758825 0.448469,1.073414 0.896938,1.073414 0.640556,0 0.832644,-0.694531 0.896673,-0.883973 0,-0.06324 0.128058,-0.06324 0.128058,0 0.06403,0.189442 -0.424127,1.767946 -0.576527,1.767946 h 1.537494 c -0.1524,0 -0.640556,-1.578504 -0.576527,-1.767946 0,-0.06324 0.128323,-0.06324 0.128323,0 0.06403,0.189442 0.256116,0.883973 0.896673,0.883973 0.448204,-2.64e-4 0.941122,-0.314589 0.896408,-1.073414 z"
       style="stroke-width:0.264583" />
    <path
       id="use677"
       d="m 41.201297,-9.3989553 c 0.06403,1.0734146 2.049727,3.0937729 2.113757,3.599127 0.06403,-0.5050895 2.049727,-2.5254479 2.113756,-3.599127 0.04471,-0.7588247 -0.448469,-1.0734147 -0.896938,-1.0734147 -0.640556,0 -0.832643,0.6945314 -0.896673,0.883973 0,0.063235 -0.128058,0.063235 -0.128058,0 -0.06403,-0.1894416 0.424127,-1.767946 0.576527,-1.767946 h -1.537494 c 0.1524,0 0.640557,1.5785044 0.576528,1.767946 0,0.063235 -0.128323,0.063235 -0.128323,0 -0.06403,-0.1894416 -0.256117,-0.883973 -0.896673,-0.883973 -0.448204,2.65e-4 -0.941123,0.31459 -0.896409,1.0734147 z"
       style="stroke-width:0.264583" />
    <path
       id="use679"
       d="m 53.895476,-28.923618 c -0.06403,-1.073414 -2.049727,-3.093772 -2.113756,-3.599127 -0.06403,0.50509 -2.049727,2.525448 -2.113756,3.599127 -0.04471,0.758825 0.448469,1.073415 0.896937,1.073415 0.640557,0 0.832644,-0.694531 0.896673,-0.883973 0,-0.06323 0.128059,-0.06323 0.128059,0 0.06403,0.189442 -0.424127,1.767946 -0.576527,1.767946 h 1.537493 c -0.1524,0 -0.640556,-1.578504 -0.576527,-1.767946 0,-0.06323 0.128323,-0.06323 0.128323,0 0.06403,0.189442 0.256117,0.883973 0.896673,0.883973 0.448204,-2.65e-4 0.941123,-0.31459 0.896408,-1.073415 z"
       style="stroke-width:0.264583" />
    <path
       id="use681"
       d="m 53.895476,-18.340284 c -0.06403,-1.073415 -2.049727,-3.093773 -2.113756,-3.599127 -0.06403,0.505089 -2.049727,2.525447 -2.113756,3.599127 -0.04471,0.758825 0.448469,1.073414 0.896937,1.073414 0.640557,0 0.832644,-0.694531 0.896673,-0.883973 0,-0.06324 0.128059,-0.06324 0.128059,0 0.06403,0.189442 -0.424127,1.767946 -0.576527,1.767946 h 1.537493 c -0.1524,0 -0.640556,-1.578504 -0.576527,-1.767946 0,-0.06324 0.128323,-0.06324 0.128323,0 0.06403,0.189442 0.256117,0.883973 0.896673,0.883973 0.448204,-2.64e-4 0.941123,-0.314589 0.896408,-1.073414 z"
       style="stroke-width:0.264583" />
    <path
       id="use683"
       d="m 49.667964,-9.3989553 c 0.06403,1.0734146 2.049727,3.0937729 2.113756,3.599127 0.06403,-0.5050895 2.049727,-2.5254479 2.113756,-3.599127 0.04471,-0.7588247 -0.448468,-1.0734147 -0.896937,-1.0734147 -0.640556,0 -0.832644,0.6945314 -0.896673,0.883973 0,0.063235 -0.128058,0.063235 -0.128058,0 -0.06403,-0.1894416 0.424127,-1.767946 0.576527,-1.767946 h -1.537494 c 0.1524,0 0.640556,1.5785044 0.576527,1.767946 0,0.063235 -0.128323,0.063235 -0.128323,0 -0.06403,-0.1894416 -0.256116,-0.883973 -0.896673,-0.883973 -0.448204,2.65e-4 -0.941123,0.31459 -0.896408,1.0734147 z"
       style="stroke-width:0.264583" />
  </g>
</svg>
