<?xml version="1.0" encoding="UTF-8" standalone="no"?>
<!-- Created with Inkscape (http://www.inkscape.org/) -->

<svg
   width="20.902084mm"
   height="32.543751mm"
   viewBox="0 0 20.902084 32.543751"
   version="1.1"
   id="svg9554"
   sodipodi:docname="7_0.svg"
   inkscape:version="1.2 (dc2aedaf03, 2022-05-15)"
   xmlns:inkscape="http://www.inkscape.org/namespaces/inkscape"
   xmlns:sodipodi="http://sodipodi.sourceforge.net/DTD/sodipodi-0.dtd"
   xmlns="http://www.w3.org/2000/svg"
   xmlns:svg="http://www.w3.org/2000/svg">
  <sodipodi:namedview
     id="namedview9556"
     pagecolor="#ffffff"
     bordercolor="#000000"
     borderopacity="0.25"
     inkscape:showpageshadow="2"
     inkscape:pageopacity="0.0"
     inkscape:pagecheckerboard="0"
     inkscape:deskcolor="#d1d1d1"
     inkscape:document-units="mm"
     showgrid="false"
     inkscape:zoom="0.74564394"
     inkscape:cx="85.831852"
     inkscape:cy="4.023368"
     inkscape:window-width="1920"
     inkscape:window-height="1017"
     inkscape:window-x="1912"
     inkscape:window-y="-8"
     inkscape:window-maximized="1"
     inkscape:current-layer="layer1" />
  <defs
     id="defs9551" />
  <g
     inkscape:label="Livello 1"
     inkscape:groupmode="layer"
     id="layer1"
     transform="translate(-122.61347,-20.276513)">
    <path
       id="use733"
       d="m 143.31712,51.298908 c 0,0.730779 -0.59214,1.322916 -1.32292,1.322916 h -17.85937 c -0.73052,0 -1.32292,-0.592137 -1.32292,-1.322916 V 21.797866 c 0,-0.730779 0.5924,-1.322916 1.32292,-1.322916 h 17.85937 c 0.73078,0 1.32292,0.592137 1.32292,1.322916 z"
       fill="#ffffff"
       stroke="#000000"
       stroke-width="0.396875" />
    <g
       id="use735"
       fill="none"
       style="stroke:#df0000"
       transform="matrix(0.26458333,0,0,0.26458333,-2.5344405,20.144221)">
      <path
         d="M 477.75,7.5 V 5.25 h 6.5 L 485,6 c -2.25,2.75 -4.25,7.75 -4.25,12.5"
         id="path23585" />
    </g>
    <g
       id="use737"
       fill="none"
       style="stroke:#df0000"
       transform="matrix(0.26458333,0,0,0.26458333,-3.0636071,20.408804)">
      <path
         d="m 549.25,115.5 v 2.25 h -6.5 L 542,117 c 2.25,-2.75 4.25,-7.75 4.25,-12.5"
         id="path23581" />
    </g>
    <path
       id="use739"
       d="m 125.40933,25.435887 c -0.4826,0 -0.5469,0.511175 -0.5469,0.511175 0,0 -0.0643,-0.511175 -0.54689,-0.511175 -0.33787,0 -0.64373,0.229129 -0.64373,0.661458 0,0.571236 1.07024,1.571096 1.19062,1.984375 0.12118,-0.413543 1.19063,-1.413139 1.19063,-1.984375 0,-0.432329 -0.3056,-0.661458 -0.64373,-0.661458 z"
       fill="#df0000"
       style="stroke-width:0.264583" />
    <path
       id="use741"
       d="m 140.71971,47.660887 c 0.4826,0 0.54689,-0.511175 0.54689,-0.511175 0,0 0.0643,0.511175 0.54689,0.511175 0.33788,0 0.64373,-0.229129 0.64373,-0.661458 0,-0.571236 -1.07024,-1.571096 -1.19062,-1.984375 -0.12118,0.413543 -1.19063,1.413139 -1.19063,1.984375 0,0.432329 0.3056,0.661458 0.64374,0.661458 z"
       fill="#df0000"
       style="stroke-width:0.264583" />
    <path
       id="use743"
       d="m 129.80379,23.583804 c -0.85804,0 -0.97261,0.919956 -0.97261,0.919956 0,0 -0.11456,-0.919956 -0.97261,-0.919956 -0.6006,0 -1.14405,0.412485 -1.14405,1.190625 0,1.028171 1.90261,2.828131 2.11666,3.571875 0.21511,-0.744538 2.11667,-2.543704 2.11667,-3.571875 0,-0.77814 -0.54345,-1.190625 -1.14406,-1.190625 z"
       fill="#df0000"
       style="stroke-width:0.264583" />
    <path
       id="use745"
       d="m 129.80379,34.167137 c -0.85804,0 -0.97261,0.919956 -0.97261,0.919956 0,0 -0.11456,-0.919956 -0.97261,-0.919956 -0.6006,0 -1.14405,0.412485 -1.14405,1.190625 0,1.028171 1.90261,2.828131 2.11666,3.571875 0.21511,-0.744538 2.11667,-2.543704 2.11667,-3.571875 0,-0.77814 -0.54345,-1.190625 -1.14406,-1.190625 z"
       fill="#df0000"
       style="stroke-width:0.264583" />
    <path
       id="use747"
       d="m 127.85857,49.51297 c 0.85805,0 0.97261,-0.919956 0.97261,-0.919956 0,0 0.11457,0.919956 0.97261,0.919956 0.60061,0 1.14406,-0.412485 1.14406,-1.190625 0,-1.028171 -1.90262,-2.828131 -2.11667,-3.571875 -0.2151,0.744538 -2.11666,2.543704 -2.11666,3.571875 0,0.77814 0.54345,1.190625 1.14405,1.190625 z"
       fill="#df0000"
       style="stroke-width:0.264583" />
    <path
       id="use749"
       d="m 134.03712,28.87547 c -0.85804,0 -0.9726,0.919957 -0.9726,0.919957 0,0 -0.11457,-0.919957 -0.97261,-0.919957 -0.60061,0 -1.14406,0.412486 -1.14406,1.190625 0,1.028171 1.90262,2.828132 2.11667,3.571875 0.2151,-0.744537 2.11666,-2.543704 2.11666,-3.571875 0,-0.778139 -0.54345,-1.190625 -1.14406,-1.190625 z"
       fill="#df0000"
       style="stroke-width:0.264583" />
    <path
       id="use751"
       d="m 138.27046,23.583804 c -0.85805,0 -0.97261,0.919956 -0.97261,0.919956 0,0 -0.11457,-0.919956 -0.97261,-0.919956 -0.6006,0 -1.14406,0.412485 -1.14406,1.190625 0,1.028171 1.90262,2.828131 2.11667,3.571875 0.21511,-0.744538 2.11667,-2.543704 2.11667,-3.571875 0,-0.77814 -0.54346,-1.190625 -1.14406,-1.190625 z"
       fill="#df0000"
       style="stroke-width:0.264583" />
    <path
       id="use753"
       d="m 138.27046,34.167137 c -0.85805,0 -0.97261,0.919956 -0.97261,0.919956 0,0 -0.11457,-0.919956 -0.97261,-0.919956 -0.6006,0 -1.14406,0.412485 -1.14406,1.190625 0,1.028171 1.90262,2.828131 2.11667,3.571875 0.21511,-0.744538 2.11667,-2.543704 2.11667,-3.571875 0,-0.77814 -0.54346,-1.190625 -1.14406,-1.190625 z"
       fill="#df0000"
       style="stroke-width:0.264583" />
    <path
       id="use755"
       d="m 136.32524,49.51297 c 0.85804,0 0.97261,-0.919956 0.97261,-0.919956 0,0 0.11456,0.919956 0.97261,0.919956 0.6006,0 1.14406,-0.412485 1.14406,-1.190625 0,-1.028171 -1.90262,-2.828131 -2.11667,-3.571875 -0.21511,0.744538 -2.11667,2.543704 -2.11667,3.571875 0,0.77814 0.54346,1.190625 1.14406,1.190625 z"
       fill="#df0000"
       style="stroke-width:0.264583" />
  </g>
</svg>
