<?xml version="1.0" encoding="UTF-8" standalone="no"?>
<!-- Created with Inkscape (http://www.inkscape.org/) -->

<svg
   width="20.902075mm"
   height="32.543751mm"
   viewBox="0 0 20.902075 32.543751"
   version="1.1"
   id="svg9554"
   sodipodi:docname="7_1.svg"
   inkscape:version="1.2 (dc2aedaf03, 2022-05-15)"
   xmlns:inkscape="http://www.inkscape.org/namespaces/inkscape"
   xmlns:sodipodi="http://sodipodi.sourceforge.net/DTD/sodipodi-0.dtd"
   xmlns="http://www.w3.org/2000/svg"
   xmlns:svg="http://www.w3.org/2000/svg">
  <sodipodi:namedview
     id="namedview9556"
     pagecolor="#ffffff"
     bordercolor="#000000"
     borderopacity="0.25"
     inkscape:showpageshadow="2"
     inkscape:pageopacity="0.0"
     inkscape:pagecheckerboard="0"
     inkscape:deskcolor="#d1d1d1"
     inkscape:document-units="mm"
     showgrid="false"
     inkscape:zoom="0.74564394"
     inkscape:cx="560.58928"
     inkscape:cy="56.327153"
     inkscape:window-width="1920"
     inkscape:window-height="1017"
     inkscape:window-x="1912"
     inkscape:window-y="-8"
     inkscape:window-maximized="1"
     inkscape:current-layer="layer1" />
  <defs
     id="defs9551" />
  <g
     inkscape:label="Livello 1"
     inkscape:groupmode="layer"
     id="layer1"
     transform="translate(167.28975,-30.566835)">
    <path
       id="use709"
       d="m -146.58611,61.58923 c 0,0.730779 -0.59213,1.322917 -1.32291,1.322917 h -17.85938 c -0.73051,0 -1.32291,-0.592138 -1.32291,-1.322917 V 32.088189 c 0,-0.730779 0.5924,-1.322917 1.32291,-1.322917 h 17.85938 c 0.73078,0 1.32291,0.592138 1.32291,1.322917 z"
       fill="#ffffff"
       stroke="#000000"
       stroke-width="0.396875" />
    <g
       id="use711"
       fill="none"
       style="stroke:#df0000"
       transform="matrix(0.26458333,0,0,0.26458333,-292.43767,30.434543)">
      <path
         d="M 477.75,7.5 V 5.25 h 6.5 L 485,6 c -2.25,2.75 -4.25,7.75 -4.25,12.5"
         id="path15946" />
    </g>
    <g
       id="use713"
       fill="none"
       style="stroke:#df0000"
       transform="matrix(0.26458333,0,0,0.26458333,-292.96683,30.699127)">
      <path
         d="m 549.25,115.5 v 2.25 h -6.5 L 542,117 c 2.25,-2.75 4.25,-7.75 4.25,-12.5"
         id="path15942" />
    </g>
    <path
       id="use715"
       d="m -164.5156,36.354595 c -0.31511,-0.396875 -0.52519,-0.760677 -0.52519,-0.760677 0,0 -0.21008,0.363802 -0.5252,0.760677 -0.31512,0.396875 -0.66543,0.694531 -0.66543,0.694531 0,0 0.35031,0.297657 0.66543,0.694532 0.31512,0.396875 0.5252,0.760677 0.5252,0.760677 0,0 0.21008,-0.363802 0.52519,-0.760677 0.31512,-0.396875 0.66543,-0.694532 0.66543,-0.694532 0,0 -0.35004,-0.297656 -0.66543,-0.694531 z"
       fill="#df0000"
       style="stroke-width:0.264583" />
    <path
       id="use717"
       d="m -148.11143,55.933762 c -0.31512,-0.396875 -0.5252,-0.760677 -0.5252,-0.760677 0,0 -0.21008,0.363802 -0.52519,0.760677 -0.31512,0.396875 -0.66543,0.694531 -0.66543,0.694531 0,0 0.35031,0.297656 0.66543,0.694531 0.31511,0.396875 0.52519,0.760677 0.52519,0.760677 0,0 0.21008,-0.363802 0.5252,-0.760677 0.31512,-0.396875 0.66543,-0.694531 0.66543,-0.694531 0,0 -0.35005,-0.297656 -0.66543,-0.694531 z"
       fill="#df0000"
       style="stroke-width:0.264583" />
    <path
       id="use719"
       d="m -160.13833,34.929549 c -0.56012,-0.757766 -0.93371,-1.452297 -0.93371,-1.452297 0,0 -0.37359,0.694531 -0.93372,1.452297 -0.56012,0.757767 -1.18295,1.325827 -1.18295,1.325827 0,0 0.62256,0.568061 1.18295,1.326092 0.56039,0.758031 0.93372,1.452033 0.93372,1.452033 0,0 0.37359,-0.694531 0.93371,-1.452033 0.56012,-0.757502 1.18295,-1.326092 1.18295,-1.326092 0,0 -0.62256,-0.568325 -1.18295,-1.325827 z"
       fill="#df0000"
       style="stroke-width:0.264583" />
    <path
       id="use721"
       d="m -160.13833,45.512883 c -0.56012,-0.757767 -0.93371,-1.452298 -0.93371,-1.452298 0,0 -0.37359,0.694531 -0.93372,1.452298 -0.56012,0.757766 -1.18295,1.325827 -1.18295,1.325827 0,0 0.62256,0.56806 1.18295,1.326091 0.56039,0.758032 0.93372,1.452034 0.93372,1.452034 0,0 0.37359,-0.694532 0.93371,-1.452034 0.56012,-0.757502 1.18295,-1.326091 1.18295,-1.326091 0,0 -0.62256,-0.568325 -1.18295,-1.325827 z"
       fill="#df0000"
       style="stroke-width:0.264583" />
    <path
       id="use723"
       d="m -160.13833,56.096216 c -0.56012,-0.757767 -0.93371,-1.452298 -0.93371,-1.452298 0,0 -0.37359,0.694531 -0.93372,1.452298 -0.56012,0.757766 -1.18295,1.325827 -1.18295,1.325827 0,0 0.62256,0.56806 1.18295,1.326092 0.56039,0.758031 0.93372,1.452033 0.93372,1.452033 0,0 0.37359,-0.694531 0.93371,-1.452033 0.56012,-0.757503 1.18295,-1.326092 1.18295,-1.326092 0,0 -0.62256,-0.568325 -1.18295,-1.325827 z"
       fill="#df0000"
       style="stroke-width:0.264583" />
    <path
       id="use725"
       d="m -155.905,40.221216 c -0.56012,-0.757767 -0.93371,-1.452298 -0.93371,-1.452298 0,0 -0.37359,0.694531 -0.93371,1.452298 -0.56013,0.757767 -1.18296,1.325827 -1.18296,1.325827 0,0 0.62257,0.56806 1.18296,1.326092 0.56038,0.758031 0.93371,1.452033 0.93371,1.452033 0,0 0.37359,-0.694531 0.93371,-1.452033 0.56013,-0.757502 1.18296,-1.326092 1.18296,-1.326092 0,0 -0.62257,-0.568325 -1.18296,-1.325827 z"
       fill="#df0000"
       style="stroke-width:0.264583" />
    <path
       id="use727"
       d="m -151.67166,34.929549 c -0.56013,-0.757766 -0.93372,-1.452297 -0.93372,-1.452297 0,0 -0.37359,0.694531 -0.93371,1.452297 -0.56012,0.757767 -1.18295,1.325827 -1.18295,1.325827 0,0 0.62256,0.568061 1.18295,1.326092 0.56039,0.758031 0.93371,1.452033 0.93371,1.452033 0,0 0.37359,-0.694531 0.93372,-1.452033 0.56012,-0.757502 1.18295,-1.326092 1.18295,-1.326092 0,0 -0.62256,-0.568325 -1.18295,-1.325827 z"
       fill="#df0000"
       style="stroke-width:0.264583" />
    <path
       id="use729"
       d="m -151.67166,45.512883 c -0.56013,-0.757767 -0.93372,-1.452298 -0.93372,-1.452298 0,0 -0.37359,0.694531 -0.93371,1.452298 -0.56012,0.757766 -1.18295,1.325827 -1.18295,1.325827 0,0 0.62256,0.56806 1.18295,1.326091 0.56039,0.758032 0.93371,1.452034 0.93371,1.452034 0,0 0.37359,-0.694532 0.93372,-1.452034 0.56012,-0.757502 1.18295,-1.326091 1.18295,-1.326091 0,0 -0.62256,-0.568325 -1.18295,-1.325827 z"
       fill="#df0000"
       style="stroke-width:0.264583" />
    <path
       id="use731"
       d="m -151.67166,56.096216 c -0.56013,-0.757767 -0.93372,-1.452298 -0.93372,-1.452298 0,0 -0.37359,0.694531 -0.93371,1.452298 -0.56012,0.757766 -1.18295,1.325827 -1.18295,1.325827 0,0 0.62256,0.56806 1.18295,1.326092 0.56039,0.758031 0.93371,1.452033 0.93371,1.452033 0,0 0.37359,-0.694531 0.93372,-1.452033 0.56012,-0.757503 1.18295,-1.326092 1.18295,-1.326092 0,0 -0.62256,-0.568325 -1.18295,-1.325827 z"
       fill="#df0000"
       style="stroke-width:0.264583" />
  </g>
</svg>
