<?xml version="1.0" encoding="UTF-8" standalone="no"?>
<!-- Created with Inkscape (http://www.inkscape.org/) -->

<svg
   width="20.902082mm"
   height="32.543751mm"
   viewBox="0 0 20.902082 32.543751"
   version="1.1"
   id="svg9554"
   sodipodi:docname="7_2.svg"
   inkscape:version="1.2 (dc2aedaf03, 2022-05-15)"
   xmlns:inkscape="http://www.inkscape.org/namespaces/inkscape"
   xmlns:sodipodi="http://sodipodi.sourceforge.net/DTD/sodipodi-0.dtd"
   xmlns="http://www.w3.org/2000/svg"
   xmlns:svg="http://www.w3.org/2000/svg">
  <sodipodi:namedview
     id="namedview9556"
     pagecolor="#ffffff"
     bordercolor="#000000"
     borderopacity="0.25"
     inkscape:showpageshadow="2"
     inkscape:pageopacity="0.0"
     inkscape:pagecheckerboard="0"
     inkscape:deskcolor="#d1d1d1"
     inkscape:document-units="mm"
     showgrid="false"
     inkscape:zoom="0.74564394"
     inkscape:cx="399.65456"
     inkscape:cy="223.96749"
     inkscape:window-width="1920"
     inkscape:window-height="1017"
     inkscape:window-x="1912"
     inkscape:window-y="-8"
     inkscape:window-maximized="1"
     inkscape:current-layer="layer1" />
  <defs
     id="defs9551" />
  <g
     inkscape:label="Livello 1"
     inkscape:groupmode="layer"
     id="layer1"
     transform="translate(59.773621,71.981552)">
    <path
       id="use685"
       d="m -39.069976,-40.959157 c 0,0.73078 -0.592138,1.322917 -1.322917,1.322917 h -17.859374 c -0.730515,0 -1.322917,-0.592137 -1.322917,-1.322917 v -29.501041 c 0,-0.730779 0.592402,-1.322917 1.322917,-1.322917 h 17.859374 c 0.730779,0 1.322917,0.592138 1.322917,1.322917 z"
       fill="#ffffff"
       stroke="#000000"
       stroke-width="0.396875" />
    <g
       id="use687"
       fill="none"
       style="stroke:#000000"
       transform="matrix(0.26458333,0,0,0.26458333,-184.92154,-72.113844)">
      <path
         d="M 477.75,7.5 V 5.25 h 6.5 L 485,6 c -2.25,2.75 -4.25,7.75 -4.25,12.5"
         id="path10257" />
    </g>
    <g
       id="use689"
       fill="none"
       style="stroke:#000000"
       transform="matrix(0.26458333,0,0,0.26458333,-185.4507,-71.84926)">
      <path
         d="m 549.25,115.5 v 2.25 h -6.5 L 542,117 c 2.25,-2.75 4.25,-7.75 4.25,-12.5"
         id="path10253" />
    </g>
    <path
       id="use691"
       d="m -57.223832,-65.619646 c 0,0 0.330729,-0.264583 0.330729,-0.631296 0,-0.214841 -0.191029,-0.571235 -0.63156,-0.571235 -0.440532,0 -0.631296,0.356658 -0.631296,0.571235 0,0.366713 0.330729,0.631296 0.330729,0.631296 -0.367506,-0.286014 -1.02235,-0.09075 -1.02235,0.481013 0,0.286279 0.233892,0.601398 0.601398,0.601398 0.440796,0 0.631296,-0.481013 0.631296,-0.481013 0,0 0.05583,0.548217 -0.270669,0.841904 h 0.721519 c -0.326496,-0.293423 -0.270404,-0.841904 -0.270404,-0.841904 0,0 0.190764,0.481013 0.63156,0.481013 0.367506,0 0.601133,-0.315119 0.601133,-0.601398 0,-0.571765 -0.655108,-0.767027 -1.022085,-0.481013 z"
       style="stroke-width:0.264583" />
    <path
       id="use693"
       d="m -41.421328,-45.799709 c 0,0 -0.330729,0.264584 -0.330729,0.631296 0,0.214842 0.191029,0.571236 0.63156,0.571236 0.440531,0 0.631296,-0.356659 0.631296,-0.571236 0,-0.366712 -0.330729,-0.631296 -0.330729,-0.631296 0.367506,0.286015 1.02235,0.09075 1.02235,-0.481012 0,-0.286279 -0.233892,-0.601398 -0.601398,-0.601398 -0.440796,0 -0.631296,0.481013 -0.631296,0.481013 0,0 -0.05583,-0.548217 0.270669,-0.841905 h -0.721519 c 0.326496,0.293423 0.270404,0.841905 0.270404,0.841905 0,0 -0.190764,-0.481013 -0.63156,-0.481013 -0.367506,0 -0.601133,0.315119 -0.601133,0.601398 0,0.571765 0.655108,0.767027 1.022085,0.481012 z"
       style="stroke-width:0.264583" />
    <path
       id="use695"
       d="m -52.984678,-66.52161 c 0,0 0.628385,-0.502709 0.628385,-1.199621 0,-0.407988 -0.362214,-1.085321 -1.19962,-1.085321 -0.837407,0 -1.199621,0.677598 -1.199621,1.085321 0,0.696912 0.628385,1.199621 0.628385,1.199621 -0.697971,-0.543719 -1.942306,-0.172509 -1.942306,0.914135 0,0.543983 0.4445,1.142471 1.142471,1.142471 0.837406,0 1.199621,-0.914136 1.199621,-0.914136 0,0 0.106362,1.04193 -0.514086,1.599671 h 1.371071 c -0.620448,-0.557477 -0.514085,-1.599671 -0.514085,-1.599671 0,0 0.362214,0.914136 1.19962,0.914136 0.698236,0 1.142471,-0.598752 1.142471,-1.142471 0,-1.086644 -1.244335,-1.457854 -1.942306,-0.914135 z"
       style="stroke-width:0.264583" />
    <path
       id="use697"
       d="m -52.984678,-55.938277 c 0,0 0.628385,-0.502709 0.628385,-1.199621 0,-0.407988 -0.362214,-1.085321 -1.19962,-1.085321 -0.837407,0 -1.199621,0.677598 -1.199621,1.085321 0,0.696912 0.628385,1.199621 0.628385,1.199621 -0.697971,-0.543719 -1.942306,-0.172509 -1.942306,0.914135 0,0.543984 0.4445,1.142471 1.142471,1.142471 0.837406,0 1.199621,-0.914135 1.199621,-0.914135 0,0 0.106362,1.041929 -0.514086,1.59967 h 1.371071 c -0.620448,-0.557477 -0.514085,-1.59967 -0.514085,-1.59967 0,0 0.362214,0.914135 1.19962,0.914135 0.698236,0 1.142471,-0.598752 1.142471,-1.142471 0,-1.086644 -1.244335,-1.457854 -1.942306,-0.914135 z"
       style="stroke-width:0.264583" />
    <path
       id="use699"
       d="m -54.127149,-44.897744 c 0,0 -0.628385,0.502708 -0.628385,1.199621 0,0.407987 0.362214,1.085321 1.199621,1.085321 0.837406,0 1.19962,-0.677598 1.19962,-1.085321 0,-0.696913 -0.628385,-1.199621 -0.628385,-1.199621 0.697971,0.543719 1.942306,0.172508 1.942306,-0.914135 0,-0.543984 -0.4445,-1.142471 -1.142471,-1.142471 -0.837406,0 -1.19962,0.914135 -1.19962,0.914135 0,0 -0.106363,-1.041929 0.514085,-1.599671 h -1.371071 c 0.620448,0.557477 0.514086,1.599671 0.514086,1.599671 0,0 -0.362215,-0.914135 -1.199621,-0.914135 -0.698236,0 -1.142471,0.598752 -1.142471,1.142471 0,1.086643 1.244335,1.457854 1.942306,0.914135 z"
       style="stroke-width:0.264583" />
    <path
       id="use701"
       d="m -48.751345,-61.229944 c 0,0 0.628386,-0.502708 0.628386,-1.199621 0,-0.407987 -0.362215,-1.08532 -1.199621,-1.08532 -0.837406,0 -1.199621,0.677597 -1.199621,1.08532 0,0.696913 0.628386,1.199621 0.628386,1.199621 -0.697971,-0.543719 -1.942307,-0.172508 -1.942307,0.914136 0,0.543983 0.4445,1.14247 1.142471,1.14247 0.837406,0 1.199621,-0.914135 1.199621,-0.914135 0,0 0.106362,1.041929 -0.514085,1.599671 h 1.37107 c -0.620448,-0.557477 -0.514085,-1.599671 -0.514085,-1.599671 0,0 0.362215,0.914135 1.199621,0.914135 0.698235,0 1.142471,-0.598752 1.142471,-1.14247 0,-1.086644 -1.244336,-1.457855 -1.942307,-0.914136 z"
       style="stroke-width:0.264583" />
    <path
       id="use703"
       d="m -44.518011,-66.52161 c 0,0 0.628385,-0.502709 0.628385,-1.199621 0,-0.407988 -0.362215,-1.085321 -1.199621,-1.085321 -0.837406,0 -1.199621,0.677598 -1.199621,1.085321 0,0.696912 0.628386,1.199621 0.628386,1.199621 -0.697971,-0.543719 -1.942306,-0.172509 -1.942306,0.914135 0,0.543983 0.4445,1.142471 1.14247,1.142471 0.837407,0 1.199621,-0.914136 1.199621,-0.914136 0,0 0.106363,1.04193 -0.514085,1.599671 h 1.371071 c -0.620448,-0.557477 -0.514086,-1.599671 -0.514086,-1.599671 0,0 0.362215,0.914136 1.199621,0.914136 0.698235,0 1.142471,-0.598752 1.142471,-1.142471 0,-1.086644 -1.244336,-1.457854 -1.942306,-0.914135 z"
       style="stroke-width:0.264583" />
    <path
       id="use705"
       d="m -44.518011,-55.938277 c 0,0 0.628385,-0.502709 0.628385,-1.199621 0,-0.407988 -0.362215,-1.085321 -1.199621,-1.085321 -0.837406,0 -1.199621,0.677598 -1.199621,1.085321 0,0.696912 0.628386,1.199621 0.628386,1.199621 -0.697971,-0.543719 -1.942306,-0.172509 -1.942306,0.914135 0,0.543984 0.4445,1.142471 1.14247,1.142471 0.837407,0 1.199621,-0.914135 1.199621,-0.914135 0,0 0.106363,1.041929 -0.514085,1.59967 h 1.371071 c -0.620448,-0.557477 -0.514086,-1.59967 -0.514086,-1.59967 0,0 0.362215,0.914135 1.199621,0.914135 0.698235,0 1.142471,-0.598752 1.142471,-1.142471 0,-1.086644 -1.244336,-1.457854 -1.942306,-0.914135 z"
       style="stroke-width:0.264583" />
    <path
       id="use707"
       d="m -45.660482,-44.897744 c 0,0 -0.628386,0.502708 -0.628386,1.199621 0,0.407987 0.362215,1.085321 1.199621,1.085321 0.837406,0 1.199621,-0.677598 1.199621,-1.085321 0,-0.696913 -0.628385,-1.199621 -0.628385,-1.199621 0.69797,0.543719 1.942306,0.172508 1.942306,-0.914135 0,-0.543984 -0.4445,-1.142471 -1.142471,-1.142471 -0.837406,0 -1.199621,0.914135 -1.199621,0.914135 0,0 -0.106362,-1.041929 0.514086,-1.599671 h -1.371071 c 0.620448,0.557477 0.514085,1.599671 0.514085,1.599671 0,0 -0.362214,-0.914135 -1.199621,-0.914135 -0.698235,0 -1.14247,0.598752 -1.14247,1.142471 0,1.086643 1.244335,1.457854 1.942306,0.914135 z"
       style="stroke-width:0.264583" />
  </g>
</svg>
