<?xml version="1.0" encoding="UTF-8" standalone="no"?>
<!-- Created with Inkscape (http://www.inkscape.org/) -->

<svg
   width="20.902082mm"
   height="32.543751mm"
   viewBox="0 0 20.902082 32.543751"
   version="1.1"
   id="svg9554"
   sodipodi:docname="7_3.svg"
   inkscape:version="1.2 (dc2aedaf03, 2022-05-15)"
   xmlns:inkscape="http://www.inkscape.org/namespaces/inkscape"
   xmlns:sodipodi="http://sodipodi.sourceforge.net/DTD/sodipodi-0.dtd"
   xmlns="http://www.w3.org/2000/svg"
   xmlns:svg="http://www.w3.org/2000/svg">
  <sodipodi:namedview
     id="namedview9556"
     pagecolor="#ffffff"
     bordercolor="#000000"
     borderopacity="0.25"
     inkscape:showpageshadow="2"
     inkscape:pageopacity="0.0"
     inkscape:pagecheckerboard="0"
     inkscape:deskcolor="#d1d1d1"
     inkscape:document-units="mm"
     showgrid="false"
     inkscape:zoom="0.74564394"
     inkscape:cx="-22.799086"
     inkscape:cy="-17.434595"
     inkscape:window-width="1920"
     inkscape:window-height="1017"
     inkscape:window-x="1912"
     inkscape:window-y="-8"
     inkscape:window-maximized="1"
     inkscape:current-layer="layer1" />
  <defs
     id="defs9551" />
  <g
     inkscape:label="Livello 1"
     inkscape:groupmode="layer"
     id="layer1"
     transform="translate(-75.774765,-45.8249)">
    <path
       id="use757"
       d="m 96.47841,76.847295 c 0,0.730779 -0.592138,1.322917 -1.322917,1.322917 H 77.296119 c -0.730515,0 -1.322917,-0.592138 -1.322917,-1.322917 V 47.346254 c 0,-0.730779 0.592402,-1.322917 1.322917,-1.322917 h 17.859374 c 0.730779,0 1.322917,0.592138 1.322917,1.322917 z"
       fill="#ffffff"
       stroke="#000000"
       stroke-width="0.396875" />
    <g
       id="use759"
       fill="none"
       style="stroke:#000000"
       transform="matrix(0.26458333,0,0,0.26458333,-49.373151,45.692608)">
      <path
         d="M 477.75,7.5 V 5.25 h 6.5 L 485,6 c -2.25,2.75 -4.25,7.75 -4.25,12.5"
         id="path29369" />
    </g>
    <g
       id="use761"
       fill="none"
       style="stroke:#000000"
       transform="matrix(0.26458333,0,0,0.26458333,-49.902317,45.957191)">
      <path
         d="m 549.25,115.5 v 2.25 h -6.5 L 542,117 c 2.25,-2.75 4.25,-7.75 4.25,-12.5"
         id="path29365" />
    </g>
    <path
       id="use763"
       d="m 79.21276,52.737139 c -0.03625,-0.562239 -1.153054,-1.620573 -1.189037,-1.885156 -0.03598,0.264583 -1.153054,1.322917 -1.189038,1.885156 -0.02513,0.397669 0.252413,0.56224 0.504561,0.56224 0.360362,0 0.468577,-0.363802 0.50456,-0.463021 0,-0.03307 0.07197,-0.03307 0.07197,0 0.03598,0.09922 -0.238654,0.926042 -0.324379,0.926042 h 0.864658 c -0.08546,0 -0.360098,-0.826823 -0.324379,-0.926042 0,-0.03307 0.07223,-0.03307 0.07223,0 0.03598,0.09922 0.143933,0.463021 0.504296,0.463021 0.252412,0 0.529696,-0.164571 0.50456,-0.56224 z"
       style="stroke-width:0.264583" />
    <path
       id="use765"
       d="m 93.238852,71.45641 c 0.03625,0.562239 1.153054,1.620573 1.189037,1.885156 0.03598,-0.264583 1.153054,-1.322917 1.189038,-1.885156 0.02513,-0.397669 -0.252413,-0.56224 -0.504561,-0.56224 -0.360362,0 -0.468577,0.363802 -0.50456,0.463021 0,0.03307 -0.07197,0.03307 -0.07197,0 -0.03598,-0.09922 0.238654,-0.926042 0.324379,-0.926042 H 93.99556 c 0.08546,0 0.360098,0.826823 0.324379,0.926042 0,0.03307 -0.07223,0.03307 -0.07223,0 -0.03598,-0.09922 -0.143933,-0.463021 -0.504296,-0.463021 -0.252412,0 -0.529696,0.164571 -0.504561,0.56224 z"
       style="stroke-width:0.264583" />
    <path
       id="use767"
       d="m 84.106229,52.334443 c -0.06403,-1.073414 -2.049727,-3.093772 -2.113756,-3.599127 -0.06403,0.50509 -2.049727,2.525448 -2.113757,3.599127 -0.04471,0.758825 0.448469,1.073415 0.896938,1.073415 0.640556,0 0.832644,-0.694531 0.896673,-0.883973 0,-0.06323 0.128058,-0.06323 0.128058,0 0.06403,0.189442 -0.424127,1.767946 -0.576527,1.767946 h 1.537494 c -0.1524,0 -0.640556,-1.578504 -0.576527,-1.767946 0,-0.06323 0.128323,-0.06323 0.128323,0 0.06403,0.189442 0.256116,0.883973 0.896673,0.883973 0.448204,-2.65e-4 0.941122,-0.31459 0.896408,-1.073415 z"
       style="stroke-width:0.264583" />
    <path
       id="use769"
       d="m 84.106229,62.917777 c -0.06403,-1.073415 -2.049727,-3.093773 -2.113756,-3.599127 -0.06403,0.505089 -2.049727,2.525447 -2.113757,3.599127 -0.04471,0.758825 0.448469,1.073414 0.896938,1.073414 0.640556,0 0.832644,-0.694531 0.896673,-0.883973 0,-0.06324 0.128058,-0.06324 0.128058,0 0.06403,0.189442 -0.424127,1.767946 -0.576527,1.767946 h 1.537494 c -0.1524,0 -0.640556,-1.578504 -0.576527,-1.767946 0,-0.06324 0.128323,-0.06324 0.128323,0 0.06403,0.189442 0.256116,0.883973 0.896673,0.883973 0.448204,-2.64e-4 0.941122,-0.314589 0.896408,-1.073414 z"
       style="stroke-width:0.264583" />
    <path
       id="use771"
       d="m 79.878716,71.859106 c 0.06403,1.073414 2.049728,3.093773 2.113757,3.599127 0.06403,-0.50509 2.049727,-2.525448 2.113756,-3.599127 0.04471,-0.758825 -0.448469,-1.073415 -0.896938,-1.073415 -0.640556,0 -0.832643,0.694531 -0.896672,0.883973 0,0.06324 -0.128059,0.06324 -0.128059,0 -0.06403,-0.189442 0.424127,-1.767946 0.576527,-1.767946 h -1.537493 c 0.1524,0 0.640556,1.578504 0.576527,1.767946 0,0.06324 -0.128323,0.06324 -0.128323,0 -0.06403,-0.189442 -0.256117,-0.883973 -0.896673,-0.883973 -0.448204,2.65e-4 -0.941123,0.31459 -0.896409,1.073415 z"
       style="stroke-width:0.264583" />
    <path
       id="use773"
       d="m 88.339562,57.62611 c -0.06403,-1.073415 -2.049727,-3.093773 -2.113756,-3.599127 -0.06403,0.50509 -2.049727,2.525448 -2.113756,3.599127 -0.04471,0.758825 0.448468,1.073415 0.896937,1.073415 0.640556,0 0.832644,-0.694532 0.896673,-0.883973 0,-0.06324 0.128058,-0.06324 0.128058,0 0.06403,0.189441 -0.424127,1.767946 -0.576527,1.767946 h 1.537494 c -0.1524,0 -0.640556,-1.578505 -0.576527,-1.767946 0,-0.06324 0.128323,-0.06324 0.128323,0 0.06403,0.189441 0.256117,0.883973 0.896673,0.883973 0.448204,-2.65e-4 0.941123,-0.31459 0.896408,-1.073415 z"
       style="stroke-width:0.264583" />
    <path
       id="use775"
       d="m 92.572895,52.334443 c -0.06403,-1.073414 -2.049727,-3.093772 -2.113756,-3.599127 -0.06403,0.50509 -2.049727,2.525448 -2.113756,3.599127 -0.04471,0.758825 0.448469,1.073415 0.896938,1.073415 0.640556,0 0.832643,-0.694531 0.896672,-0.883973 0,-0.06323 0.128059,-0.06323 0.128059,0 0.06403,0.189442 -0.424127,1.767946 -0.576527,1.767946 h 1.537493 c -0.1524,0 -0.640556,-1.578504 -0.576527,-1.767946 0,-0.06323 0.128323,-0.06323 0.128323,0 0.06403,0.189442 0.256117,0.883973 0.896673,0.883973 0.448204,-2.65e-4 0.941123,-0.31459 0.896408,-1.073415 z"
       style="stroke-width:0.264583" />
    <path
       id="use777"
       d="m 92.572895,62.917777 c -0.06403,-1.073415 -2.049727,-3.093773 -2.113756,-3.599127 -0.06403,0.505089 -2.049727,2.525447 -2.113756,3.599127 -0.04471,0.758825 0.448469,1.073414 0.896938,1.073414 0.640556,0 0.832643,-0.694531 0.896672,-0.883973 0,-0.06324 0.128059,-0.06324 0.128059,0 0.06403,0.189442 -0.424127,1.767946 -0.576527,1.767946 h 1.537493 c -0.1524,0 -0.640556,-1.578504 -0.576527,-1.767946 0,-0.06324 0.128323,-0.06324 0.128323,0 0.06403,0.189442 0.256117,0.883973 0.896673,0.883973 0.448204,-2.64e-4 0.941123,-0.314589 0.896408,-1.073414 z"
       style="stroke-width:0.264583" />
    <path
       id="use779"
       d="m 88.345383,71.859106 c 0.06403,1.073414 2.049727,3.093773 2.113756,3.599127 0.06403,-0.50509 2.049727,-2.525448 2.113756,-3.599127 0.04471,-0.758825 -0.448468,-1.073415 -0.896937,-1.073415 -0.640556,0 -0.832644,0.694531 -0.896673,0.883973 0,0.06324 -0.128058,0.06324 -0.128058,0 -0.06403,-0.189442 0.424127,-1.767946 0.576527,-1.767946 H 89.69026 c 0.1524,0 0.640556,1.578504 0.576527,1.767946 0,0.06324 -0.128323,0.06324 -0.128323,0 -0.06403,-0.189442 -0.256116,-0.883973 -0.896673,-0.883973 -0.448204,2.65e-4 -0.941123,0.31459 -0.896408,1.073415 z"
       style="stroke-width:0.264583" />
  </g>
</svg>
