<?xml version="1.0" encoding="UTF-8" standalone="no"?>
<!-- Created with Inkscape (http://www.inkscape.org/) -->

<svg
   width="20.902082mm"
   height="32.543751mm"
   viewBox="0 0 20.902082 32.543751"
   version="1.1"
   id="svg9554"
   sodipodi:docname="8_0.svg"
   inkscape:version="1.2 (dc2aedaf03, 2022-05-15)"
   xmlns:inkscape="http://www.inkscape.org/namespaces/inkscape"
   xmlns:sodipodi="http://sodipodi.sourceforge.net/DTD/sodipodi-0.dtd"
   xmlns="http://www.w3.org/2000/svg"
   xmlns:svg="http://www.w3.org/2000/svg">
  <sodipodi:namedview
     id="namedview9556"
     pagecolor="#ffffff"
     bordercolor="#000000"
     borderopacity="0.25"
     inkscape:showpageshadow="2"
     inkscape:pageopacity="0.0"
     inkscape:pagecheckerboard="0"
     inkscape:deskcolor="#d1d1d1"
     inkscape:document-units="mm"
     showgrid="false"
     inkscape:zoom="0.74564394"
     inkscape:cx="175.68707"
     inkscape:cy="89.85522"
     inkscape:window-width="1920"
     inkscape:window-height="1017"
     inkscape:window-x="1912"
     inkscape:window-y="-8"
     inkscape:window-maximized="1"
     inkscape:current-layer="layer1" />
  <defs
     id="defs9551" />
  <g
     inkscape:label="Livello 1"
     inkscape:groupmode="layer"
     id="layer1"
     transform="translate(23.934908,22.658971)">
    <path
       id="use833"
       d="m -3.2312629,8.3634236 c 0,0.7307792 -0.5921375,1.3229167 -1.3229167,1.3229167 H -22.413554 c -0.730515,0 -1.322917,-0.5921375 -1.322917,-1.3229167 V -21.137618 c 0,-0.730779 0.592402,-1.322916 1.322917,-1.322916 h 17.8593744 c 0.7307792,0 1.3229167,0.592137 1.3229167,1.322916 z"
       fill="#ffffff"
       stroke="#000000"
       stroke-width="0.396875" />
    <g
       id="use835"
       fill="none"
       style="stroke:#df0000"
       transform="matrix(0.26458333,0,0,0.26458333,-169.98491,-22.791263)">
      <path
         d="m 564,14.25 a 3.5,3.5 0 1 0 -7,0 3.5,3.5 0 1 0 7,0"
         id="path23732" />
      <path
         d="m 563.5,7.75 a 3,3 0 1 0 -6,0 3,3 0 1 0 6,0"
         id="path23734" />
    </g>
    <g
       id="use837"
       fill="none"
       style="stroke:#df0000"
       transform="matrix(0.26458333,0,0,0.26458333,-170.51407,-22.52668)">
      <path
         d="m 627.5,115.25 a 3,3 0 1 0 -6,0 3,3 0 1 0 6,0"
         id="path23726" />
      <path
         d="m 628,108.75 a 3.5,3.5 0 1 0 -7,0 3.5,3.5 0 1 0 7,0"
         id="path23728" />
    </g>
    <path
       id="use839"
       d="m -21.139056,-17.499597 c -0.4826,0 -0.546894,0.511175 -0.546894,0.511175 0,0 -0.06429,-0.511175 -0.546894,-0.511175 -0.337873,0 -0.643731,0.229129 -0.643731,0.661458 0,0.571236 1.070239,1.571096 1.190625,1.984375 0.121179,-0.413543 1.190625,-1.413139 1.190625,-1.984375 0,-0.432329 -0.305594,-0.661458 -0.643731,-0.661458 z"
       fill="#df0000"
       style="stroke-width:0.264583" />
    <path
       id="use841"
       d="m -5.8286775,4.7254028 c 0.4826,0 0.5468938,-0.511175 0.5468938,-0.511175 0,0 0.064294,0.511175 0.5468937,0.511175 0.3378729,0 0.6437312,-0.2291291 0.6437312,-0.6614583 0,-0.5712354 -1.0702395,-1.5710958 -1.1906249,-1.984375 -0.1211792,0.4135438 -1.190625,1.4131396 -1.190625,1.984375 0,0.4323292 0.3055937,0.6614583 0.6437312,0.6614583 z"
       fill="#df0000"
       style="stroke-width:0.264583" />
    <path
       id="use843"
       d="m -16.744592,-19.35168 c -0.858044,0 -0.972608,0.919956 -0.972608,0.919956 0,0 -0.114565,-0.919956 -0.972609,-0.919956 -0.600604,0 -1.144058,0.412485 -1.144058,1.190625 0,1.028171 1.902619,2.828131 2.116667,3.571875 0.215106,-0.744538 2.116666,-2.543704 2.116666,-3.571875 0,-0.77814 -0.543454,-1.190625 -1.144058,-1.190625 z"
       fill="#df0000"
       style="stroke-width:0.264583" />
    <path
       id="use845"
       d="m -16.744592,-8.768347 c -0.858044,0 -0.972608,0.9199562 -0.972608,0.9199562 0,0 -0.114565,-0.9199562 -0.972609,-0.9199562 -0.600604,0 -1.144058,0.4124854 -1.144058,1.190625 0,1.0281708 1.902619,2.8281312 2.116667,3.5718749 0.215106,-0.7445374 2.116666,-2.5437041 2.116666,-3.5718749 0,-0.7781396 -0.543454,-1.190625 -1.144058,-1.190625 z"
       fill="#df0000"
       style="stroke-width:0.264583" />
    <path
       id="use847"
       d="m -18.689809,6.5774861 c 0.858044,0 0.972609,-0.9199562 0.972609,-0.9199562 0,0 0.114564,0.9199562 0.972608,0.9199562 0.600604,0 1.144058,-0.4124854 1.144058,-1.1906249 0,-1.0281709 -1.902618,-2.8281313 -2.116666,-3.571875 -0.215107,0.7445375 -2.116667,2.5437041 -2.116667,3.571875 0,0.7781395 0.543454,1.1906249 1.144058,1.1906249 z"
       fill="#df0000"
       style="stroke-width:0.264583" />
    <path
       id="use849"
       d="m -12.511259,-14.060014 c -0.858043,0 -0.972608,0.919957 -0.972608,0.919957 0,0 -0.114565,-0.919957 -0.972608,-0.919957 -0.600604,0 -1.144059,0.412486 -1.144059,1.190625 0,1.028171 1.902619,2.828132 2.116667,3.5718753 0.215106,-0.7445373 2.116667,-2.5437043 2.116667,-3.5718753 0,-0.778139 -0.543454,-1.190625 -1.144059,-1.190625 z"
       fill="#df0000"
       style="stroke-width:0.264583" />
    <path
       id="use851"
       d="m -14.456475,1.2858195 c 0.858043,0 0.972608,-0.91995619 0.972608,-0.91995619 0,0 0.114565,0.91995619 0.972608,0.91995619 0.600605,0 1.144059,-0.41248537 1.144059,-1.19062494 0,-1.02817082 -1.902619,-2.82813126 -2.116667,-3.57187496 -0.215106,0.7445375 -2.116667,2.54370414 -2.116667,3.57187496 0,0.77813957 0.543455,1.19062494 1.144059,1.19062494 z"
       fill="#df0000"
       style="stroke-width:0.264583" />
    <path
       id="use853"
       d="m -8.2779254,-19.35168 c -0.8580437,0 -0.9726083,0.919956 -0.9726083,0.919956 0,0 -0.1145646,-0.919956 -0.9726083,-0.919956 -0.600604,0 -1.144058,0.412485 -1.144058,1.190625 0,1.028171 1.9026184,2.828131 2.1166663,3.571875 0.2151063,-0.744538 2.1166666,-2.543704 2.1166666,-3.571875 0,-0.77814 -0.5434541,-1.190625 -1.1440583,-1.190625 z"
       fill="#df0000"
       style="stroke-width:0.264583" />
    <path
       id="use855"
       d="m -8.2779254,-8.768347 c -0.8580437,0 -0.9726083,0.9199562 -0.9726083,0.9199562 0,0 -0.1145646,-0.9199562 -0.9726083,-0.9199562 -0.600604,0 -1.144058,0.4124854 -1.144058,1.190625 0,1.0281708 1.9026184,2.8281312 2.1166663,3.5718749 0.2151063,-0.7445374 2.1166666,-2.5437041 2.1166666,-3.5718749 0,-0.7781396 -0.5434541,-1.190625 -1.1440583,-1.190625 z"
       fill="#df0000"
       style="stroke-width:0.264583" />
    <path
       id="use857"
       d="m -10.223142,6.5774861 c 0.8580437,0 0.9726083,-0.9199562 0.9726083,-0.9199562 0,0 0.1145646,0.9199562 0.9726083,0.9199562 0.6006042,0 1.1440583,-0.4124854 1.1440583,-1.1906249 0,-1.0281709 -1.9026187,-2.8281313 -2.1166666,-3.571875 -0.2151062,0.7445375 -2.1166663,2.5437041 -2.1166663,3.571875 0,0.7781395 0.543454,1.1906249 1.144058,1.1906249 z"
       fill="#df0000"
       style="stroke-width:0.264583" />
  </g>
</svg>
