<?xml version="1.0" encoding="UTF-8" standalone="no"?>
<!-- Created with Inkscape (http://www.inkscape.org/) -->

<svg
   width="20.902084mm"
   height="32.543743mm"
   viewBox="0 0 20.902084 32.543743"
   version="1.1"
   id="svg9554"
   sodipodi:docname="8_1.svg"
   inkscape:version="1.2 (dc2aedaf03, 2022-05-15)"
   xmlns:inkscape="http://www.inkscape.org/namespaces/inkscape"
   xmlns:sodipodi="http://sodipodi.sourceforge.net/DTD/sodipodi-0.dtd"
   xmlns="http://www.w3.org/2000/svg"
   xmlns:svg="http://www.w3.org/2000/svg">
  <sodipodi:namedview
     id="namedview9556"
     pagecolor="#ffffff"
     bordercolor="#000000"
     borderopacity="0.25"
     inkscape:showpageshadow="2"
     inkscape:pageopacity="0.0"
     inkscape:pagecheckerboard="0"
     inkscape:deskcolor="#d1d1d1"
     inkscape:document-units="mm"
     showgrid="false"
     inkscape:zoom="0.74564394"
     inkscape:cx="240.06096"
     inkscape:cy="-227.99086"
     inkscape:window-width="1920"
     inkscape:window-height="1017"
     inkscape:window-x="1912"
     inkscape:window-y="-8"
     inkscape:window-maximized="1"
     inkscape:current-layer="layer1" />
  <defs
     id="defs9551" />
  <g
     inkscape:label="Livello 1"
     inkscape:groupmode="layer"
     id="layer1"
     transform="translate(-84.645733,-75.276513)">
    <path
       id="use807"
       d="m 105.34938,106.29891 c 0,0.73078 -0.59214,1.32291 -1.32292,1.32291 H 86.167087 c -0.730515,0 -1.322917,-0.59213 -1.322917,-1.32291 V 76.797867 c 0,-0.730779 0.592402,-1.322917 1.322917,-1.322917 h 17.859373 c 0.73078,0 1.32292,0.592138 1.32292,1.322917 z"
       fill="#ffffff"
       stroke="#000000"
       stroke-width="0.396875" />
    <g
       id="use809"
       fill="none"
       style="stroke:#df0000"
       transform="matrix(0.26458333,0,0,0.26458333,-61.404266,75.144221)">
      <path
         d="m 564,14.25 a 3.5,3.5 0 1 0 -7,0 3.5,3.5 0 1 0 7,0"
         id="path16093" />
      <path
         d="m 563.5,7.75 a 3,3 0 1 0 -6,0 3,3 0 1 0 6,0"
         id="path16095" />
    </g>
    <g
       id="use811"
       fill="none"
       style="stroke:#df0000"
       transform="matrix(0.26458333,0,0,0.26458333,-61.933432,75.408804)">
      <path
         d="m 627.5,115.25 a 3,3 0 1 0 -6,0 3,3 0 1 0 6,0"
         id="path16087" />
      <path
         d="m 628,108.75 a 3.5,3.5 0 1 0 -7,0 3.5,3.5 0 1 0 7,0"
         id="path16089" />
    </g>
    <path
       id="use813"
       d="m 87.419889,81.064273 c -0.315119,-0.396875 -0.525198,-0.760677 -0.525198,-0.760677 0,0 -0.210079,0.363802 -0.525198,0.760677 -0.315119,0.396875 -0.665427,0.694531 -0.665427,0.694531 0,0 0.350308,0.297656 0.665427,0.694531 0.315119,0.396875 0.525198,0.760677 0.525198,0.760677 0,0 0.210079,-0.363802 0.525198,-0.760677 0.315118,-0.396875 0.665427,-0.694531 0.665427,-0.694531 0,0 -0.350044,-0.297656 -0.665427,-0.694531 z"
       fill="#df0000"
       style="stroke-width:0.264583" />
    <path
       id="use815"
       d="m 103.82406,100.64344 c -0.31512,-0.39688 -0.5252,-0.760678 -0.5252,-0.760678 0,0 -0.21008,0.363798 -0.5252,0.760678 -0.31512,0.39687 -0.66543,0.69453 -0.66543,0.69453 0,0 0.35031,0.29766 0.66543,0.69453 0.31512,0.39688 0.5252,0.76068 0.5252,0.76068 0,0 0.21008,-0.3638 0.5252,-0.76068 0.31511,-0.39687 0.66542,-0.69453 0.66542,-0.69453 0,0 -0.35004,-0.29766 -0.66542,-0.69453 z"
       fill="#df0000"
       style="stroke-width:0.264583" />
    <path
       id="use817"
       d="m 91.797155,79.639227 c -0.560123,-0.757767 -0.933714,-1.452298 -0.933714,-1.452298 0,0 -0.373592,0.694531 -0.933715,1.452298 -0.560123,0.757767 -1.182952,1.325827 -1.182952,1.325827 0,0 0.622565,0.568061 1.182952,1.326092 0.560388,0.758031 0.933715,1.452033 0.933715,1.452033 0,0 0.373591,-0.694531 0.933714,-1.452033 0.560123,-0.757502 1.182952,-1.326092 1.182952,-1.326092 0,0 -0.622564,-0.568325 -1.182952,-1.325827 z"
       fill="#df0000"
       style="stroke-width:0.264583" />
    <path
       id="use819"
       d="m 91.797155,90.22256 c -0.560123,-0.757766 -0.933714,-1.452298 -0.933714,-1.452298 0,0 -0.373592,0.694532 -0.933715,1.452298 -0.560123,0.757767 -1.182952,1.325827 -1.182952,1.325827 0,0 0.622565,0.568061 1.182952,1.326092 0.560388,0.758031 0.933715,1.452033 0.933715,1.452033 0,0 0.373591,-0.694531 0.933714,-1.452033 0.560123,-0.757502 1.182952,-1.326092 1.182952,-1.326092 0,0 -0.622564,-0.568325 -1.182952,-1.325827 z"
       fill="#df0000"
       style="stroke-width:0.264583" />
    <path
       id="use821"
       d="m 91.797155,100.80589 c -0.560123,-0.75776 -0.933714,-1.452294 -0.933714,-1.452294 0,0 -0.373592,0.694534 -0.933715,1.452294 -0.560123,0.75777 -1.182952,1.32583 -1.182952,1.32583 0,0 0.622565,0.56806 1.182952,1.32609 0.560388,0.75803 0.933715,1.45204 0.933715,1.45204 0,0 0.373591,-0.69454 0.933714,-1.45204 0.560123,-0.7575 1.182952,-1.32609 1.182952,-1.32609 0,0 -0.622564,-0.56832 -1.182952,-1.32583 z"
       fill="#df0000"
       style="stroke-width:0.264583" />
    <path
       id="use823"
       d="m 96.030489,84.930894 c -0.560123,-0.757767 -0.933715,-1.452298 -0.933715,-1.452298 0,0 -0.373592,0.694531 -0.933715,1.452298 -0.560122,0.757766 -1.182952,1.325827 -1.182952,1.325827 0,0 0.622565,0.56806 1.182952,1.326091 0.560388,0.758032 0.933715,1.452034 0.933715,1.452034 0,0 0.373592,-0.694531 0.933715,-1.452034 0.560123,-0.757502 1.182952,-1.326091 1.182952,-1.326091 0,0 -0.622565,-0.568325 -1.182952,-1.325827 z"
       fill="#df0000"
       style="stroke-width:0.264583" />
    <path
       id="use825"
       d="m 96.030489,95.514227 c -0.560123,-0.757767 -0.933715,-1.452298 -0.933715,-1.452298 0,0 -0.373592,0.694531 -0.933715,1.452298 -0.560122,0.757767 -1.182952,1.325827 -1.182952,1.325827 0,0 0.622565,0.56806 1.182952,1.326092 0.560388,0.758031 0.933715,1.452033 0.933715,1.452033 0,0 0.373592,-0.694531 0.933715,-1.452033 0.560123,-0.757502 1.182952,-1.326092 1.182952,-1.326092 0,0 -0.622565,-0.568325 -1.182952,-1.325827 z"
       fill="#df0000"
       style="stroke-width:0.264583" />
    <path
       id="use827"
       d="m 100.26382,79.639227 c -0.560121,-0.757767 -0.933713,-1.452298 -0.933713,-1.452298 0,0 -0.373591,0.694531 -0.933714,1.452298 -0.560123,0.757767 -1.182952,1.325827 -1.182952,1.325827 0,0 0.622564,0.568061 1.182952,1.326092 0.560387,0.758031 0.933714,1.452033 0.933714,1.452033 0,0 0.373592,-0.694531 0.933713,-1.452033 0.56012,-0.757502 1.18295,-1.326092 1.18295,-1.326092 0,0 -0.62256,-0.568325 -1.18295,-1.325827 z"
       fill="#df0000"
       style="stroke-width:0.264583" />
    <path
       id="use829"
       d="m 100.26382,90.22256 c -0.560121,-0.757766 -0.933713,-1.452298 -0.933713,-1.452298 0,0 -0.373591,0.694532 -0.933714,1.452298 -0.560123,0.757767 -1.182952,1.325827 -1.182952,1.325827 0,0 0.622564,0.568061 1.182952,1.326092 0.560387,0.758031 0.933714,1.452033 0.933714,1.452033 0,0 0.373592,-0.694531 0.933713,-1.452033 0.56012,-0.757502 1.18295,-1.326092 1.18295,-1.326092 0,0 -0.62256,-0.568325 -1.18295,-1.325827 z"
       fill="#df0000"
       style="stroke-width:0.264583" />
    <path
       id="use831"
       d="m 100.26382,100.80589 c -0.560121,-0.75776 -0.933713,-1.452294 -0.933713,-1.452294 0,0 -0.373591,0.694534 -0.933714,1.452294 -0.560123,0.75777 -1.182952,1.32583 -1.182952,1.32583 0,0 0.622564,0.56806 1.182952,1.32609 0.560387,0.75803 0.933714,1.45204 0.933714,1.45204 0,0 0.373592,-0.69454 0.933713,-1.45204 0.56012,-0.7575 1.18295,-1.32609 1.18295,-1.32609 0,0 -0.62256,-0.56832 -1.18295,-1.32583 z"
       fill="#df0000"
       style="stroke-width:0.264583" />
  </g>
</svg>
