<?xml version="1.0" encoding="UTF-8" standalone="no"?>
<!-- Created with Inkscape (http://www.inkscape.org/) -->

<svg
   width="20.902082mm"
   height="32.543751mm"
   viewBox="0 0 20.902082 32.543751"
   version="1.1"
   id="svg9554"
   sodipodi:docname="8_2.svg"
   inkscape:version="1.2 (dc2aedaf03, 2022-05-15)"
   xmlns:inkscape="http://www.inkscape.org/namespaces/inkscape"
   xmlns:sodipodi="http://sodipodi.sourceforge.net/DTD/sodipodi-0.dtd"
   xmlns="http://www.w3.org/2000/svg"
   xmlns:svg="http://www.w3.org/2000/svg">
  <sodipodi:namedview
     id="namedview9556"
     pagecolor="#ffffff"
     bordercolor="#000000"
     borderopacity="0.25"
     inkscape:showpageshadow="2"
     inkscape:pageopacity="0.0"
     inkscape:pagecheckerboard="0"
     inkscape:deskcolor="#d1d1d1"
     inkscape:document-units="mm"
     showgrid="false"
     inkscape:zoom="0.74564394"
     inkscape:cx="582.04724"
     inkscape:cy="278.95352"
     inkscape:window-width="1920"
     inkscape:window-height="1017"
     inkscape:window-x="1912"
     inkscape:window-y="-8"
     inkscape:window-maximized="1"
     inkscape:current-layer="layer1" />
  <defs
     id="defs9551" />
  <g
     inkscape:label="Livello 1"
     inkscape:groupmode="layer"
     id="layer1"
     transform="translate(48.418778,14.497681)">
    <path
       id="use781"
       d="m -27.715133,16.524714 c 0,0.73078 -0.592137,1.322917 -1.322917,1.322917 h -17.859374 c -0.730515,0 -1.322917,-0.592137 -1.322917,-1.322917 v -29.501041 c 0,-0.730779 0.592402,-1.322917 1.322917,-1.322917 h 17.859374 c 0.73078,0 1.322917,0.592138 1.322917,1.322917 z"
       fill="#ffffff"
       stroke="#000000"
       stroke-width="0.396875" />
    <g
       id="use783"
       fill="none"
       style="stroke:#000000"
       transform="matrix(0.26458333,0,0,0.26458333,-194.46878,-14.629973)">
      <path
         d="m 564,14.25 a 3.5,3.5 0 1 0 -7,0 3.5,3.5 0 1 0 7,0"
         id="path10404" />
      <path
         d="m 563.5,7.75 a 3,3 0 1 0 -6,0 3,3 0 1 0 6,0"
         id="path10406" />
    </g>
    <g
       id="use785"
       fill="none"
       style="stroke:#000000"
       transform="matrix(0.26458333,0,0,0.26458333,-194.99794,-14.365389)">
      <path
         d="m 627.5,115.25 a 3,3 0 1 0 -6,0 3,3 0 1 0 6,0"
         id="path10398" />
      <path
         d="m 628,108.75 a 3.5,3.5 0 1 0 -7,0 3.5,3.5 0 1 0 7,0"
         id="path10400" />
    </g>
    <path
       id="use787"
       d="m -45.868989,-8.1357748 c 0,0 0.330729,-0.2645834 0.330729,-0.6312959 0,-0.2148416 -0.191029,-0.5712354 -0.63156,-0.5712354 -0.440531,0 -0.631296,0.3566584 -0.631296,0.5712354 0,0.3667125 0.330729,0.6312959 0.330729,0.6312959 -0.367506,-0.2860146 -1.02235,-0.090752 -1.02235,0.4810125 0,0.2862791 0.233892,0.6013979 0.601398,0.6013979 0.440796,0 0.631296,-0.4810125 0.631296,-0.4810125 0,0 0.05583,0.5482166 -0.270669,0.8419041 h 0.721519 c -0.326496,-0.2934229 -0.270404,-0.8419041 -0.270404,-0.8419041 0,0 0.190764,0.4810125 0.63156,0.4810125 0.367506,0 0.601133,-0.3151188 0.601133,-0.6013979 0,-0.5717646 -0.655108,-0.7670271 -1.022085,-0.4810125 z"
       style="stroke-width:0.264583" />
    <path
       id="use789"
       d="m -30.066485,11.684162 c 0,0 -0.330729,0.264584 -0.330729,0.631296 0,0.214842 0.191029,0.571236 0.63156,0.571236 0.440531,0 0.631296,-0.356659 0.631296,-0.571236 0,-0.366712 -0.330729,-0.631296 -0.330729,-0.631296 0.367506,0.286015 1.02235,0.09075 1.02235,-0.481012 0,-0.286279 -0.233892,-0.601398 -0.601398,-0.601398 -0.440796,0 -0.631296,0.481013 -0.631296,0.481013 0,0 -0.05583,-0.548217 0.270669,-0.841905 h -0.721519 c 0.326496,0.293423 0.270404,0.841905 0.270404,0.841905 0,0 -0.190764,-0.481013 -0.63156,-0.481013 -0.367506,0 -0.601133,0.315119 -0.601133,0.601398 0,0.571765 0.655108,0.767027 1.022085,0.481012 z"
       style="stroke-width:0.264583" />
    <path
       id="use791"
       d="m -41.629835,-9.0377394 c 0,0 0.628386,-0.5027083 0.628386,-1.1996206 0,-0.407988 -0.362215,-1.085321 -1.199621,-1.085321 -0.837406,0 -1.199621,0.677598 -1.199621,1.085321 0,0.6969123 0.628385,1.1996206 0.628385,1.1996206 -0.69797,-0.5437187 -1.942306,-0.1725083 -1.942306,0.9141354 0,0.5439833 0.4445,1.1424708 1.142471,1.1424708 0.837406,0 1.199621,-0.9141354 1.199621,-0.9141354 0,0 0.106362,1.0419292 -0.514086,1.5996708 h 1.371071 c -0.620448,-0.557477 -0.514085,-1.5996708 -0.514085,-1.5996708 0,0 0.362214,0.9141354 1.199621,0.9141354 0.698235,0 1.14247,-0.5987521 1.14247,-1.1424708 0,-1.0866437 -1.244335,-1.4578541 -1.942306,-0.9141354 z"
       style="stroke-width:0.264583" />
    <path
       id="use793"
       d="m -41.629835,1.5455938 c 0,0 0.628386,-0.5027083 0.628386,-1.19962082 0,-0.4079875 -0.362215,-1.08532082 -1.199621,-1.08532082 -0.837406,0 -1.199621,0.67759791 -1.199621,1.08532082 0,0.69691252 0.628385,1.19962082 0.628385,1.19962082 -0.69797,-0.5437187 -1.942306,-0.1725083 -1.942306,0.9141354 0,0.5439833 0.4445,1.1424708 1.142471,1.1424708 0.837406,0 1.199621,-0.9141354 1.199621,-0.9141354 0,0 0.106362,1.0419292 -0.514086,1.5996708 h 1.371071 c -0.620448,-0.557477 -0.514085,-1.5996708 -0.514085,-1.5996708 0,0 0.362214,0.9141354 1.199621,0.9141354 0.698235,0 1.14247,-0.5987521 1.14247,-1.1424708 0,-1.0866437 -1.244335,-1.4578541 -1.942306,-0.9141354 z"
       style="stroke-width:0.264583" />
    <path
       id="use795"
       d="m -42.772306,12.586127 c 0,0 -0.628385,0.502708 -0.628385,1.199621 0,0.407987 0.362215,1.085321 1.199621,1.085321 0.837406,0 1.199621,-0.677598 1.199621,-1.085321 0,-0.696913 -0.628386,-1.199621 -0.628386,-1.199621 0.697971,0.543719 1.942306,0.172508 1.942306,-0.914135 0,-0.543984 -0.4445,-1.142471 -1.14247,-1.142471 -0.837407,0 -1.199621,0.914135 -1.199621,0.914135 0,0 -0.106363,-1.041929 0.514085,-1.5996706 h -1.371071 c 0.620448,0.5574766 0.514086,1.5996706 0.514086,1.5996706 0,0 -0.362215,-0.914135 -1.199621,-0.914135 -0.698235,0 -1.142471,0.598752 -1.142471,1.142471 0,1.086643 1.244336,1.457854 1.942306,0.914135 z"
       style="stroke-width:0.264583" />
    <path
       id="use797"
       d="m -37.396502,-3.7460728 c 0,0 0.628386,-0.5027083 0.628386,-1.1996208 0,-0.4079875 -0.362215,-1.0853208 -1.199621,-1.0853208 -0.837406,0 -1.199621,0.6775979 -1.199621,1.0853208 0,0.6969125 0.628386,1.1996208 0.628386,1.1996208 -0.697971,-0.5437187 -1.942307,-0.1725083 -1.942307,0.9141354 0,0.5439833 0.4445,1.1424708 1.142471,1.1424708 0.837406,0 1.199621,-0.9141354 1.199621,-0.9141354 0,0 0.106363,1.0419292 -0.514085,1.5996708 h 1.37107 c -0.620447,-0.557477 -0.514085,-1.5996708 -0.514085,-1.5996708 0,0 0.362215,0.9141354 1.199621,0.9141354 0.698235,0 1.142471,-0.5987521 1.142471,-1.1424708 0,-1.0866437 -1.244336,-1.4578541 -1.942307,-0.9141354 z"
       style="stroke-width:0.264583" />
    <path
       id="use799"
       d="m -38.538972,7.2944604 c 0,0 -0.628386,0.5027083 -0.628386,1.1996208 0,0.4079875 0.362215,1.0853208 1.199621,1.0853208 0.837406,0 1.199621,-0.6775979 1.199621,-1.0853208 0,-0.6969125 -0.628386,-1.1996208 -0.628386,-1.1996208 0.697971,0.5437187 1.942307,0.1725083 1.942307,-0.9141354 0,-0.5439833 -0.4445,-1.1424708 -1.142471,-1.1424708 -0.837406,0 -1.199621,0.9141354 -1.199621,0.9141354 0,0 -0.106362,-1.0419292 0.514085,-1.5996708 h -1.37107 c 0.620448,0.557477 0.514085,1.5996708 0.514085,1.5996708 0,0 -0.362215,-0.9141354 -1.199621,-0.9141354 -0.698235,0 -1.142471,0.598752 -1.142471,1.1424708 0,1.0866437 1.244336,1.4578541 1.942307,0.9141354 z"
       style="stroke-width:0.264583" />
    <path
       id="use801"
       d="m -33.163168,-9.0377394 c 0,0 0.628385,-0.5027083 0.628385,-1.1996206 0,-0.407988 -0.362214,-1.085321 -1.199621,-1.085321 -0.837406,0 -1.199621,0.677598 -1.199621,1.085321 0,0.6969123 0.628386,1.1996206 0.628386,1.1996206 -0.697971,-0.5437187 -1.942306,-0.1725083 -1.942306,0.9141354 0,0.5439833 0.4445,1.1424708 1.14247,1.1424708 0.837407,0 1.199621,-0.9141354 1.199621,-0.9141354 0,0 0.106363,1.0419292 -0.514085,1.5996708 h 1.371071 c -0.620448,-0.557477 -0.514086,-1.5996708 -0.514086,-1.5996708 0,0 0.362215,0.9141354 1.199621,0.9141354 0.698236,0 1.142471,-0.5987521 1.142471,-1.1424708 0,-1.0866437 -1.244335,-1.4578541 -1.942306,-0.9141354 z"
       style="stroke-width:0.264583" />
    <path
       id="use803"
       d="m -33.163168,1.5455938 c 0,0 0.628385,-0.5027083 0.628385,-1.19962082 0,-0.4079875 -0.362214,-1.08532082 -1.199621,-1.08532082 -0.837406,0 -1.199621,0.67759791 -1.199621,1.08532082 0,0.69691252 0.628386,1.19962082 0.628386,1.19962082 -0.697971,-0.5437187 -1.942306,-0.1725083 -1.942306,0.9141354 0,0.5439833 0.4445,1.1424708 1.14247,1.1424708 0.837407,0 1.199621,-0.9141354 1.199621,-0.9141354 0,0 0.106363,1.0419292 -0.514085,1.5996708 h 1.371071 c -0.620448,-0.557477 -0.514086,-1.5996708 -0.514086,-1.5996708 0,0 0.362215,0.9141354 1.199621,0.9141354 0.698236,0 1.142471,-0.5987521 1.142471,-1.1424708 0,-1.0866437 -1.244335,-1.4578541 -1.942306,-0.9141354 z"
       style="stroke-width:0.264583" />
    <path
       id="use805"
       d="m -34.305639,12.586127 c 0,0 -0.628386,0.502708 -0.628386,1.199621 0,0.407987 0.362215,1.085321 1.199621,1.085321 0.837407,0 1.199621,-0.677598 1.199621,-1.085321 0,-0.696913 -0.628385,-1.199621 -0.628385,-1.199621 0.697971,0.543719 1.942306,0.172508 1.942306,-0.914135 0,-0.543984 -0.4445,-1.142471 -1.142471,-1.142471 -0.837406,0 -1.199621,0.914135 -1.199621,0.914135 0,0 -0.106362,-1.041929 0.514086,-1.5996706 h -1.371071 c 0.620448,0.5574766 0.514085,1.5996706 0.514085,1.5996706 0,0 -0.362214,-0.914135 -1.199621,-0.914135 -0.698235,0 -1.14247,0.598752 -1.14247,1.142471 0,1.086643 1.244335,1.457854 1.942306,0.914135 z"
       style="stroke-width:0.264583" />
  </g>
</svg>
