<?xml version="1.0" encoding="UTF-8" standalone="no"?>
<!-- Created with Inkscape (http://www.inkscape.org/) -->

<svg
   width="20.902082mm"
   height="32.543751mm"
   viewBox="0 0 20.902082 32.543751"
   version="1.1"
   id="svg9554"
   sodipodi:docname="8_3.svg"
   inkscape:version="1.2 (dc2aedaf03, 2022-05-15)"
   xmlns:inkscape="http://www.inkscape.org/namespaces/inkscape"
   xmlns:sodipodi="http://sodipodi.sourceforge.net/DTD/sodipodi-0.dtd"
   xmlns="http://www.w3.org/2000/svg"
   xmlns:svg="http://www.w3.org/2000/svg">
  <sodipodi:namedview
     id="namedview9556"
     pagecolor="#ffffff"
     bordercolor="#000000"
     borderopacity="0.25"
     inkscape:showpageshadow="2"
     inkscape:pageopacity="0.0"
     inkscape:pagecheckerboard="0"
     inkscape:deskcolor="#d1d1d1"
     inkscape:document-units="mm"
     showgrid="false"
     inkscape:zoom="0.74564394"
     inkscape:cx="292.36474"
     inkscape:cy="56.327153"
     inkscape:window-width="1920"
     inkscape:window-height="1017"
     inkscape:window-x="1912"
     inkscape:window-y="-8"
     inkscape:window-maximized="1"
     inkscape:current-layer="layer1" />
  <defs
     id="defs9551" />
  <g
     inkscape:label="Livello 1"
     inkscape:groupmode="layer"
     id="layer1"
     transform="translate(83.547818,19.465421)">
    <path
       id="use859"
       d="m -62.844173,11.556974 c 0,0.730779 -0.592137,1.322917 -1.322917,1.322917 h -17.859374 c -0.730515,0 -1.322917,-0.592138 -1.322917,-1.322917 v -29.501041 c 0,-0.730779 0.592402,-1.322917 1.322917,-1.322917 h 17.859374 c 0.73078,0 1.322917,0.592138 1.322917,1.322917 z"
       fill="#ffffff"
       stroke="#000000"
       stroke-width="0.396875" />
    <g
       id="use861"
       fill="none"
       style="stroke:#000000"
       transform="matrix(0.26458333,0,0,0.26458333,-229.59782,-19.597713)">
      <path
         d="m 564,14.25 a 3.5,3.5 0 1 0 -7,0 3.5,3.5 0 1 0 7,0"
         id="path29516" />
      <path
         d="m 563.5,7.75 a 3,3 0 1 0 -6,0 3,3 0 1 0 6,0"
         id="path29518" />
    </g>
    <g
       id="use863"
       fill="none"
       style="stroke:#000000"
       transform="matrix(0.26458333,0,0,0.26458333,-230.12698,-19.33313)">
      <path
         d="m 627.5,115.25 a 3,3 0 1 0 -6,0 3,3 0 1 0 6,0"
         id="path29510" />
      <path
         d="m 628,108.75 a 3.5,3.5 0 1 0 -7,0 3.5,3.5 0 1 0 7,0"
         id="path29512" />
    </g>
    <path
       id="use865"
       d="m -80.109823,-12.553182 c -0.03625,-0.562239 -1.153054,-1.620573 -1.189037,-1.885156 -0.03598,0.264583 -1.153054,1.322917 -1.189038,1.885156 -0.02513,0.397669 0.252413,0.56224 0.504561,0.56224 0.360362,0 0.468577,-0.363802 0.50456,-0.463021 0,-0.03307 0.07197,-0.03307 0.07197,0 0.03598,0.09922 -0.238654,0.926042 -0.324379,0.926042 h 0.864658 c -0.08546,0 -0.360098,-0.826823 -0.324379,-0.926042 0,-0.03307 0.07223,-0.03307 0.07223,0 0.03598,0.09922 0.143933,0.463021 0.504296,0.463021 0.252412,0 0.529696,-0.164571 0.50456,-0.56224 z"
       style="stroke-width:0.264583" />
    <path
       id="use867"
       d="m -66.083731,6.1660889 c 0.03625,0.5622395 1.153054,1.6205729 1.189037,1.8851562 0.03598,-0.2645833 1.153054,-1.3229167 1.189038,-1.8851562 0.02513,-0.3976688 -0.252413,-0.5622396 -0.504561,-0.5622396 -0.360362,0 -0.468577,0.3638021 -0.50456,0.4630208 0,0.033073 -0.07197,0.033073 -0.07197,0 -0.03598,-0.099219 0.238654,-0.9260416 0.324379,-0.9260416 h -0.864658 c 0.08546,0 0.360098,0.8268229 0.324379,0.9260416 0,0.033073 -0.07223,0.033073 -0.07223,0 -0.03598,-0.099219 -0.143933,-0.4630208 -0.504296,-0.4630208 -0.252412,0 -0.529696,0.1645708 -0.50456,0.5622396 z"
       style="stroke-width:0.264583" />
    <path
       id="use869"
       d="m -75.216354,-12.955878 c -0.06403,-1.073414 -2.049727,-3.093772 -2.113756,-3.599127 -0.06403,0.50509 -2.049727,2.525448 -2.113756,3.599127 -0.04471,0.758825 0.448468,1.073415 0.896937,1.073415 0.640556,0 0.832644,-0.694531 0.896673,-0.883973 0,-0.06323 0.128058,-0.06323 0.128058,0 0.06403,0.189442 -0.424127,1.767946 -0.576527,1.767946 h 1.537494 c -0.1524,0 -0.640556,-1.578504 -0.576527,-1.767946 0,-0.06323 0.128323,-0.06323 0.128323,0 0.06403,0.189442 0.256116,0.883973 0.896673,0.883973 0.448204,-2.65e-4 0.941123,-0.31459 0.896408,-1.073415 z"
       style="stroke-width:0.264583" />
    <path
       id="use871"
       d="m -75.216354,-2.3725444 c -0.06403,-1.0734145 -2.049727,-3.0937728 -2.113756,-3.599127 -0.06403,0.5050896 -2.049727,2.5254479 -2.113756,3.599127 -0.04471,0.758825 0.448468,1.0734146 0.896937,1.0734146 0.640556,0 0.832644,-0.6945312 0.896673,-0.8839729 0,-0.063235 0.128058,-0.063235 0.128058,0 0.06403,0.1894417 -0.424127,1.76794581 -0.576527,1.76794581 h 1.537494 c -0.1524,0 -0.640556,-1.57850411 -0.576527,-1.76794581 0,-0.063235 0.128323,-0.063235 0.128323,0 0.06403,0.1894417 0.256116,0.8839729 0.896673,0.8839729 0.448204,-2.646e-4 0.941123,-0.3145896 0.896408,-1.0734146 z"
       style="stroke-width:0.264583" />
    <path
       id="use873"
       d="m -79.443866,6.5687847 c 0.06403,1.0734146 2.049727,3.0937729 2.113756,3.5991273 0.06403,-0.5050898 2.049727,-2.5254482 2.113756,-3.5991273 0.04471,-0.758825 -0.448469,-1.0734146 -0.896938,-1.0734146 -0.640556,0 -0.832643,0.6945313 -0.896672,0.8839729 0,0.063235 -0.128059,0.063235 -0.128059,0 -0.06403,-0.1894416 0.424127,-1.7679458 0.576527,-1.7679458 h -1.537493 c 0.1524,0 0.640556,1.5785042 0.576527,1.7679458 0,0.063235 -0.128323,0.063235 -0.128323,0 -0.06403,-0.1894416 -0.256117,-0.8839729 -0.896673,-0.8839729 -0.448204,2.646e-4 -0.941123,0.3145896 -0.896408,1.0734146 z"
       style="stroke-width:0.264583" />
    <path
       id="use875"
       d="m -70.983021,-7.664211 c -0.06403,-1.0734145 -2.049727,-3.093773 -2.113756,-3.599127 -0.06403,0.50509 -2.049727,2.5254479 -2.113756,3.599127 -0.04471,0.758825 0.448469,1.0734146 0.896937,1.0734146 0.640557,0 0.832644,-0.6945312 0.896673,-0.8839729 0,-0.063235 0.128059,-0.063235 0.128059,0 0.06403,0.1894417 -0.424128,1.7679458 -0.576528,1.7679458 h 1.537494 c -0.1524,0 -0.640556,-1.5785041 -0.576527,-1.7679458 0,-0.063235 0.128323,-0.063235 0.128323,0 0.06403,0.1894417 0.256117,0.8839729 0.896673,0.8839729 0.448204,-2.646e-4 0.941123,-0.3145896 0.896408,-1.0734146 z"
       style="stroke-width:0.264583" />
    <path
       id="use877"
       d="m -75.210533,1.2771181 c 0.06403,1.0734146 2.049727,3.0937729 2.113756,3.599127 0.06403,-0.5050895 2.049727,-2.5254479 2.113756,-3.599127 0.04471,-0.758825 -0.448468,-1.07341458 -0.896937,-1.07341458 -0.640556,0 -0.832644,0.69453124 -0.896673,0.88397288 0,0.063235 -0.128058,0.063235 -0.128058,0 -0.06403,-0.18944164 0.424127,-1.76794578 0.576527,-1.76794578 h -1.537494 c 0.1524,0 0.640556,1.57850414 0.576527,1.76794578 0,0.063235 -0.128323,0.063235 -0.128323,0 -0.06403,-0.18944164 -0.256117,-0.88397288 -0.896673,-0.88397288 -0.448204,2.6459e-4 -0.941123,0.31458958 -0.896408,1.07341458 z"
       style="stroke-width:0.264583" />
    <path
       id="use879"
       d="m -66.749687,-12.955878 c -0.06403,-1.073414 -2.049728,-3.093772 -2.113757,-3.599127 -0.06403,0.50509 -2.049727,2.525448 -2.113756,3.599127 -0.04472,0.758825 0.448469,1.073415 0.896938,1.073415 0.640556,0 0.832643,-0.694531 0.896672,-0.883973 0,-0.06323 0.128059,-0.06323 0.128059,0 0.06403,0.189442 -0.424127,1.767946 -0.576527,1.767946 h 1.537493 c -0.1524,0 -0.640556,-1.578504 -0.576527,-1.767946 0,-0.06323 0.128323,-0.06323 0.128323,0 0.06403,0.189442 0.256117,0.883973 0.896673,0.883973 0.448204,-2.65e-4 0.941123,-0.31459 0.896409,-1.073415 z"
       style="stroke-width:0.264583" />
    <path
       id="use881"
       d="m -66.749687,-2.3725444 c -0.06403,-1.0734145 -2.049728,-3.0937728 -2.113757,-3.599127 -0.06403,0.5050896 -2.049727,2.5254479 -2.113756,3.599127 -0.04472,0.758825 0.448469,1.0734146 0.896938,1.0734146 0.640556,0 0.832643,-0.6945312 0.896672,-0.8839729 0,-0.063235 0.128059,-0.063235 0.128059,0 0.06403,0.1894417 -0.424127,1.76794581 -0.576527,1.76794581 h 1.537493 c -0.1524,0 -0.640556,-1.57850411 -0.576527,-1.76794581 0,-0.063235 0.128323,-0.063235 0.128323,0 0.06403,0.1894417 0.256117,0.8839729 0.896673,0.8839729 0.448204,-2.646e-4 0.941123,-0.3145896 0.896409,-1.0734146 z"
       style="stroke-width:0.264583" />
    <path
       id="use883"
       d="m -70.9772,6.5687847 c 0.06403,1.0734146 2.049727,3.0937729 2.113756,3.5991273 0.06403,-0.5050898 2.049727,-2.5254482 2.113757,-3.5991273 0.04471,-0.758825 -0.448469,-1.0734146 -0.896938,-1.0734146 -0.640556,0 -0.832644,0.6945313 -0.896673,0.8839729 0,0.063235 -0.128058,0.063235 -0.128058,0 -0.06403,-0.1894416 0.424127,-1.7679458 0.576527,-1.7679458 h -1.537494 c 0.1524,0 0.640556,1.5785042 0.576527,1.7679458 0,0.063235 -0.128323,0.063235 -0.128323,0 -0.06403,-0.1894416 -0.256116,-0.8839729 -0.896673,-0.8839729 -0.448204,2.646e-4 -0.941123,0.3145896 -0.896408,1.0734146 z"
       style="stroke-width:0.264583" />
  </g>
</svg>
