<?xml version="1.0" encoding="UTF-8" standalone="no"?>
<!-- Created with Inkscape (http://www.inkscape.org/) -->

<svg
   width="20.902082mm"
   height="32.543751mm"
   viewBox="0 0 20.902082 32.543751"
   version="1.1"
   id="svg9554"
   sodipodi:docname="9_0.svg"
   inkscape:version="1.2 (dc2aedaf03, 2022-05-15)"
   xmlns:inkscape="http://www.inkscape.org/namespaces/inkscape"
   xmlns:sodipodi="http://sodipodi.sourceforge.net/DTD/sodipodi-0.dtd"
   xmlns="http://www.w3.org/2000/svg"
   xmlns:svg="http://www.w3.org/2000/svg">
  <sodipodi:namedview
     id="namedview9556"
     pagecolor="#ffffff"
     bordercolor="#000000"
     borderopacity="0.25"
     inkscape:showpageshadow="2"
     inkscape:pageopacity="0.0"
     inkscape:pagecheckerboard="0"
     inkscape:deskcolor="#d1d1d1"
     inkscape:document-units="mm"
     showgrid="false"
     inkscape:zoom="0.74564394"
     inkscape:cx="139.47676"
     inkscape:cy="258.83668"
     inkscape:window-width="1920"
     inkscape:window-height="1017"
     inkscape:window-x="1912"
     inkscape:window-y="-8"
     inkscape:window-maximized="1"
     inkscape:current-layer="layer1" />
  <defs
     id="defs9551" />
  <g
     inkscape:label="Livello 1"
     inkscape:groupmode="layer"
     id="layer1"
     transform="translate(-9.4199246,44.65897)">
    <path
       id="use941"
       d="m 30.12357,-13.636575 c 0,0.730779 -0.592137,1.322916 -1.322917,1.322916 H 10.941279 c -0.730515,0 -1.3229169,-0.592137 -1.3229169,-1.322916 v -29.501042 c 0,-0.730779 0.5924019,-1.322916 1.3229169,-1.322916 h 17.859374 c 0.73078,0 1.322917,0.592137 1.322917,1.322916 z"
       fill="#ffffff"
       stroke="#000000"
       stroke-width="0.396875" />
    <g
       id="use943"
       fill="none"
       style="stroke:#df0000"
       transform="matrix(0.26458333,0,0,0.26458333,-157.53216,-44.791262)">
      <path
         d="m 642.75,9 v 5.5 c 0,0 0.25,3.25 -3.23,3.25 -1.08,0 -2.8,-0.5 -3.02,-2.25"
         id="path23893" />
      <path
         d="m 642.75,9 a 3.25,3.25 0 1 0 -6.5,0 3.25,3.25 0 1 0 6.5,0"
         id="path23895" />
    </g>
    <g
       id="use945"
       fill="none"
       style="stroke:#df0000"
       transform="matrix(0.26458333,0,0,0.26458333,-158.06132,-44.526679)">
      <path
         d="m 706.75,114 a 3.25,3.25 0 1 0 -6.5,0 3.25,3.25 0 1 0 6.5,0"
         id="path23887" />
      <path
         d="m 700.25,114 v -5.5 c 0,0 -0.25,-3.25 3.23,-3.25 1.08,0 2.8,0.5 3.02,2.25"
         id="path23889" />
    </g>
    <path
       id="use947"
       d="m 12.215777,-39.499596 c -0.4826,0 -0.546894,0.511175 -0.546894,0.511175 0,0 -0.06429,-0.511175 -0.546894,-0.511175 -0.337873,0 -0.643731,0.229129 -0.643731,0.661458 0,0.571236 1.070239,1.571096 1.190625,1.984375 0.121179,-0.413543 1.190625,-1.413139 1.190625,-1.984375 0,-0.432329 -0.305594,-0.661458 -0.643731,-0.661458 z"
       fill="#df0000"
       style="stroke-width:0.264583" />
    <path
       id="use949"
       d="m 27.526156,-17.274596 c 0.4826,0 0.546893,-0.511175 0.546893,-0.511175 0,0 0.06429,0.511175 0.546894,0.511175 0.337873,0 0.643731,-0.229129 0.643731,-0.661458 0,-0.571236 -1.070239,-1.571096 -1.190625,-1.984375 -0.121179,0.413543 -1.190625,1.413139 -1.190625,1.984375 0,0.432329 0.305594,0.661458 0.643732,0.661458 z"
       fill="#df0000"
       style="stroke-width:0.264583" />
    <path
       id="use951"
       d="m 16.610241,-41.351679 c -0.858044,0 -0.972608,0.919956 -0.972608,0.919956 0,0 -0.114565,-0.919956 -0.972609,-0.919956 -0.600604,0 -1.144058,0.412485 -1.144058,1.190625 0,1.028171 1.902619,2.828131 2.116667,3.571875 0.215106,-0.744538 2.116666,-2.543704 2.116666,-3.571875 0,-0.77814 -0.543454,-1.190625 -1.144058,-1.190625 z"
       fill="#df0000"
       style="stroke-width:0.264583" />
    <path
       id="use953"
       d="m 16.610241,-34.274075 c -0.858044,0 -0.972608,0.919956 -0.972608,0.919956 0,0 -0.114565,-0.919956 -0.972609,-0.919956 -0.600604,0 -1.144058,0.412485 -1.144058,1.190625 0,1.028171 1.902619,2.828131 2.116667,3.571875 0.215106,-0.744538 2.116666,-2.543704 2.116666,-3.571875 0,-0.77814 -0.543454,-1.190625 -1.144058,-1.190625 z"
       fill="#df0000"
       style="stroke-width:0.264583" />
    <path
       id="use955"
       d="m 14.665024,-22.500117 c 0.858044,0 0.972609,-0.919956 0.972609,-0.919956 0,0 0.114564,0.919956 0.972608,0.919956 0.600604,0 1.144058,-0.412485 1.144058,-1.190625 0,-1.028171 -1.902618,-2.828131 -2.116666,-3.571875 -0.215106,0.744538 -2.116667,2.543704 -2.116667,3.571875 0,0.77814 0.543454,1.190625 1.144058,1.190625 z"
       fill="#df0000"
       style="stroke-width:0.264583" />
    <path
       id="use957"
       d="m 14.665024,-15.422513 c 0.858044,0 0.972609,-0.919956 0.972609,-0.919956 0,0 0.114564,0.919956 0.972608,0.919956 0.600604,0 1.144058,-0.412485 1.144058,-1.190625 0,-1.028171 -1.902618,-2.828131 -2.116666,-3.571875 -0.215106,0.744538 -2.116667,2.543704 -2.116667,3.571875 0,0.77814 0.543454,1.190625 1.144058,1.190625 z"
       fill="#df0000"
       style="stroke-width:0.264583" />
    <path
       id="use959"
       d="m 20.843574,-30.768346 c -0.858043,0 -0.972608,0.919956 -0.972608,0.919956 0,0 -0.114564,-0.919956 -0.972608,-0.919956 -0.600604,0 -1.144059,0.412485 -1.144059,1.190625 0,1.028171 1.902619,2.828131 2.116667,3.571875 0.215106,-0.744538 2.116667,-2.543704 2.116667,-3.571875 0,-0.77814 -0.543454,-1.190625 -1.144059,-1.190625 z"
       fill="#df0000"
       style="stroke-width:0.264583" />
    <path
       id="use961"
       d="m 25.076908,-41.351679 c -0.858044,0 -0.972609,0.919956 -0.972609,0.919956 0,0 -0.114564,-0.919956 -0.972608,-0.919956 -0.600604,0 -1.144058,0.412485 -1.144058,1.190625 0,1.028171 1.902618,2.828131 2.116666,3.571875 0.215107,-0.744538 2.116667,-2.543704 2.116667,-3.571875 0,-0.77814 -0.543454,-1.190625 -1.144058,-1.190625 z"
       fill="#df0000"
       style="stroke-width:0.264583" />
    <path
       id="use963"
       d="m 25.076908,-34.274075 c -0.858044,0 -0.972609,0.919956 -0.972609,0.919956 0,0 -0.114564,-0.919956 -0.972608,-0.919956 -0.600604,0 -1.144058,0.412485 -1.144058,1.190625 0,1.028171 1.902618,2.828131 2.116666,3.571875 0.215107,-0.744538 2.116667,-2.543704 2.116667,-3.571875 0,-0.77814 -0.543454,-1.190625 -1.144058,-1.190625 z"
       fill="#df0000"
       style="stroke-width:0.264583" />
    <path
       id="use965"
       d="m 23.131691,-22.500117 c 0.858044,0 0.972608,-0.919956 0.972608,-0.919956 0,0 0.114565,0.919956 0.972609,0.919956 0.600604,0 1.144058,-0.412485 1.144058,-1.190625 0,-1.028171 -1.902619,-2.828131 -2.116667,-3.571875 -0.215106,0.744538 -2.116666,2.543704 -2.116666,3.571875 0,0.77814 0.543454,1.190625 1.144058,1.190625 z"
       fill="#df0000"
       style="stroke-width:0.264583" />
    <path
       id="use967"
       d="m 23.131691,-15.422513 c 0.858044,0 0.972608,-0.919956 0.972608,-0.919956 0,0 0.114565,0.919956 0.972609,0.919956 0.600604,0 1.144058,-0.412485 1.144058,-1.190625 0,-1.028171 -1.902619,-2.828131 -2.116667,-3.571875 -0.215106,0.744538 -2.116666,2.543704 -2.116666,3.571875 0,0.77814 0.543454,1.190625 1.144058,1.190625 z"
       fill="#df0000"
       style="stroke-width:0.264583" />
  </g>
</svg>
