<?xml version="1.0" encoding="UTF-8" standalone="no"?>
<!-- Created with Inkscape (http://www.inkscape.org/) -->

<svg
   width="20.902082mm"
   height="32.543743mm"
   viewBox="0 0 20.902082 32.543743"
   version="1.1"
   id="svg9554"
   sodipodi:docname="9_1.svg"
   inkscape:version="1.2 (dc2aedaf03, 2022-05-15)"
   xmlns:inkscape="http://www.inkscape.org/namespaces/inkscape"
   xmlns:sodipodi="http://sodipodi.sourceforge.net/DTD/sodipodi-0.dtd"
   xmlns="http://www.w3.org/2000/svg"
   xmlns:svg="http://www.w3.org/2000/svg">
  <sodipodi:namedview
     id="namedview9556"
     pagecolor="#ffffff"
     bordercolor="#000000"
     borderopacity="0.25"
     inkscape:showpageshadow="2"
     inkscape:pageopacity="0.0"
     inkscape:pagecheckerboard="0"
     inkscape:deskcolor="#d1d1d1"
     inkscape:document-units="mm"
     showgrid="false"
     inkscape:zoom="0.74564394"
     inkscape:cx="-53.644907"
     inkscape:cy="21.457963"
     inkscape:window-width="1920"
     inkscape:window-height="1017"
     inkscape:window-x="1912"
     inkscape:window-y="-8"
     inkscape:window-maximized="1"
     inkscape:current-layer="layer1" />
  <defs
     id="defs9551" />
  <g
     inkscape:label="Livello 1"
     inkscape:groupmode="layer"
     id="layer1"
     transform="translate(-77.548959,-132.76038)">
    <path
       id="use913"
       d="m 98.252604,163.78278 c 0,0.73077 -0.592137,1.32291 -1.322917,1.32291 H 79.070313 c -0.730515,0 -1.322917,-0.59214 -1.322917,-1.32291 v -29.50105 c 0,-0.73078 0.592402,-1.32291 1.322917,-1.32291 h 17.859374 c 0.73078,0 1.322917,0.59213 1.322917,1.32291 z"
       fill="#ffffff"
       stroke="#000000"
       stroke-width="0.396875" />
    <g
       id="use915"
       fill="none"
       style="stroke:#df0000"
       transform="matrix(0.26458333,0,0,0.26458333,-89.403123,132.62809)">
      <path
         d="m 642.75,9 v 5.5 c 0,0 0.25,3.25 -3.23,3.25 -1.08,0 -2.8,-0.5 -3.02,-2.25"
         id="path16254" />
      <path
         d="m 642.75,9 a 3.25,3.25 0 1 0 -6.5,0 3.25,3.25 0 1 0 6.5,0"
         id="path16256" />
    </g>
    <g
       id="use917"
       fill="none"
       style="stroke:#df0000"
       transform="matrix(0.26458333,0,0,0.26458333,-89.932289,132.89267)">
      <path
         d="m 706.75,114 a 3.25,3.25 0 1 0 -6.5,0 3.25,3.25 0 1 0 6.5,0"
         id="path16248" />
      <path
         d="m 700.25,114 v -5.5 c 0,0 -0.25,-3.25 3.23,-3.25 1.08,0 2.8,0.5 3.02,2.25"
         id="path16250" />
    </g>
    <path
       id="use919"
       d="m 80.323115,138.54814 c -0.315119,-0.39688 -0.525198,-0.76068 -0.525198,-0.76068 0,0 -0.210079,0.3638 -0.525198,0.76068 -0.315119,0.39687 -0.665427,0.69453 -0.665427,0.69453 0,0 0.350308,0.29766 0.665427,0.69453 0.315119,0.39688 0.525198,0.76068 0.525198,0.76068 0,0 0.210079,-0.3638 0.525198,-0.76068 0.315119,-0.39687 0.665427,-0.69453 0.665427,-0.69453 0,0 -0.350044,-0.29766 -0.665427,-0.69453 z"
       fill="#df0000"
       style="stroke-width:0.264583" />
    <path
       id="use921"
       d="m 96.727281,158.12731 c -0.315119,-0.39688 -0.525198,-0.76068 -0.525198,-0.76068 0,0 -0.210079,0.3638 -0.525198,0.76068 -0.315118,0.39687 -0.665427,0.69453 -0.665427,0.69453 0,0 0.350309,0.29765 0.665427,0.69453 0.315119,0.39687 0.525198,0.76068 0.525198,0.76068 0,0 0.210079,-0.36381 0.525198,-0.76068 0.315119,-0.39688 0.665427,-0.69453 0.665427,-0.69453 0,0 -0.350043,-0.29766 -0.665427,-0.69453 z"
       fill="#df0000"
       style="stroke-width:0.264583" />
    <path
       id="use923"
       d="m 84.700381,137.12309 c -0.560123,-0.75776 -0.933714,-1.45229 -0.933714,-1.45229 0,0 -0.373592,0.69453 -0.933715,1.45229 -0.560123,0.75777 -1.182952,1.32583 -1.182952,1.32583 0,0 0.622565,0.56806 1.182952,1.32609 0.560388,0.75803 0.933715,1.45204 0.933715,1.45204 0,0 0.373591,-0.69454 0.933714,-1.45204 0.560123,-0.7575 1.182952,-1.32609 1.182952,-1.32609 0,0 -0.622564,-0.56832 -1.182952,-1.32583 z"
       fill="#df0000"
       style="stroke-width:0.264583" />
    <path
       id="use925"
       d="m 84.700381,144.2007 c -0.560123,-0.75777 -0.933714,-1.4523 -0.933714,-1.4523 0,0 -0.373592,0.69453 -0.933715,1.4523 -0.560123,0.75776 -1.182952,1.32583 -1.182952,1.32583 0,0 0.622565,0.56806 1.182952,1.32609 0.560388,0.75803 0.933715,1.45203 0.933715,1.45203 0,0 0.373591,-0.69453 0.933714,-1.45203 0.560123,-0.75751 1.182952,-1.32609 1.182952,-1.32609 0,0 -0.622564,-0.56833 -1.182952,-1.32583 z"
       fill="#df0000"
       style="stroke-width:0.264583" />
    <path
       id="use927"
       d="m 84.700381,151.21216 c -0.560123,-0.75777 -0.933714,-1.4523 -0.933714,-1.4523 0,0 -0.373592,0.69453 -0.933715,1.4523 -0.560123,0.75776 -1.182952,1.32582 -1.182952,1.32582 0,0 0.622565,0.56806 1.182952,1.3261 0.560388,0.75803 0.933715,1.45203 0.933715,1.45203 0,0 0.373591,-0.69453 0.933714,-1.45203 0.560123,-0.75751 1.182952,-1.3261 1.182952,-1.3261 0,0 -0.622564,-0.56832 -1.182952,-1.32582 z"
       fill="#df0000"
       style="stroke-width:0.264583" />
    <path
       id="use929"
       d="m 84.700381,158.28976 c -0.560123,-0.75777 -0.933714,-1.4523 -0.933714,-1.4523 0,0 -0.373592,0.69453 -0.933715,1.4523 -0.560123,0.75777 -1.182952,1.32583 -1.182952,1.32583 0,0 0.622565,0.56806 1.182952,1.32609 0.560388,0.75803 0.933715,1.45203 0.933715,1.45203 0,0 0.373591,-0.69453 0.933714,-1.45203 0.560123,-0.7575 1.182952,-1.32609 1.182952,-1.32609 0,0 -0.622564,-0.56833 -1.182952,-1.32583 z"
       fill="#df0000"
       style="stroke-width:0.264583" />
    <path
       id="use931"
       d="M 88.933715,147.70643 C 88.373592,146.94866 88,146.25413 88,146.25413 c 0,0 -0.373592,0.69453 -0.933714,1.4523 -0.560123,0.75776 -1.182953,1.32582 -1.182953,1.32582 0,0 0.622565,0.56806 1.182953,1.3261 C 87.626673,151.11638 88,151.81038 88,151.81038 c 0,0 0.373592,-0.69453 0.933715,-1.45203 0.560123,-0.75751 1.182952,-1.3261 1.182952,-1.3261 0,0 -0.622565,-0.56832 -1.182952,-1.32582 z"
       fill="#df0000"
       style="stroke-width:0.264583" />
    <path
       id="use933"
       d="m 93.167048,137.12309 c -0.560123,-0.75776 -0.933715,-1.45229 -0.933715,-1.45229 0,0 -0.373591,0.69453 -0.933714,1.45229 -0.560123,0.75777 -1.182952,1.32583 -1.182952,1.32583 0,0 0.622564,0.56806 1.182952,1.32609 0.560387,0.75803 0.933714,1.45204 0.933714,1.45204 0,0 0.373592,-0.69454 0.933715,-1.45204 0.560123,-0.7575 1.182952,-1.32609 1.182952,-1.32609 0,0 -0.622565,-0.56832 -1.182952,-1.32583 z"
       fill="#df0000"
       style="stroke-width:0.264583" />
    <path
       id="use935"
       d="m 93.167048,144.2007 c -0.560123,-0.75777 -0.933715,-1.4523 -0.933715,-1.4523 0,0 -0.373591,0.69453 -0.933714,1.4523 -0.560123,0.75776 -1.182952,1.32583 -1.182952,1.32583 0,0 0.622564,0.56806 1.182952,1.32609 0.560387,0.75803 0.933714,1.45203 0.933714,1.45203 0,0 0.373592,-0.69453 0.933715,-1.45203 0.560123,-0.75751 1.182952,-1.32609 1.182952,-1.32609 0,0 -0.622565,-0.56833 -1.182952,-1.32583 z"
       fill="#df0000"
       style="stroke-width:0.264583" />
    <path
       id="use937"
       d="m 93.167048,151.21216 c -0.560123,-0.75777 -0.933715,-1.4523 -0.933715,-1.4523 0,0 -0.373591,0.69453 -0.933714,1.4523 -0.560123,0.75776 -1.182952,1.32582 -1.182952,1.32582 0,0 0.622564,0.56806 1.182952,1.3261 0.560387,0.75803 0.933714,1.45203 0.933714,1.45203 0,0 0.373592,-0.69453 0.933715,-1.45203 0.560123,-0.75751 1.182952,-1.3261 1.182952,-1.3261 0,0 -0.622565,-0.56832 -1.182952,-1.32582 z"
       fill="#df0000"
       style="stroke-width:0.264583" />
    <path
       id="use939"
       d="m 93.167048,158.28976 c -0.560123,-0.75777 -0.933715,-1.4523 -0.933715,-1.4523 0,0 -0.373591,0.69453 -0.933714,1.4523 -0.560123,0.75777 -1.182952,1.32583 -1.182952,1.32583 0,0 0.622564,0.56806 1.182952,1.32609 0.560387,0.75803 0.933714,1.45203 0.933714,1.45203 0,0 0.373592,-0.69453 0.933715,-1.45203 0.560123,-0.7575 1.182952,-1.32609 1.182952,-1.32609 0,0 -0.622565,-0.56833 -1.182952,-1.32583 z"
       fill="#df0000"
       style="stroke-width:0.264583" />
  </g>
</svg>
