<?xml version="1.0" encoding="UTF-8" standalone="no"?>
<!-- Created with Inkscape (http://www.inkscape.org/) -->

<svg
   width="20.902082mm"
   height="32.543751mm"
   viewBox="0 0 20.902082 32.543751"
   version="1.1"
   id="svg9554"
   sodipodi:docname="9_3.svg"
   inkscape:version="1.2 (dc2aedaf03, 2022-05-15)"
   xmlns:inkscape="http://www.inkscape.org/namespaces/inkscape"
   xmlns:sodipodi="http://sodipodi.sourceforge.net/DTD/sodipodi-0.dtd"
   xmlns="http://www.w3.org/2000/svg"
   xmlns:svg="http://www.w3.org/2000/svg">
  <sodipodi:namedview
     id="namedview9556"
     pagecolor="#ffffff"
     bordercolor="#000000"
     borderopacity="0.25"
     inkscape:showpageshadow="2"
     inkscape:pageopacity="0.0"
     inkscape:pagecheckerboard="0"
     inkscape:deskcolor="#d1d1d1"
     inkscape:document-units="mm"
     showgrid="false"
     inkscape:zoom="0.74564394"
     inkscape:cx="238.71984"
     inkscape:cy="203.85065"
     inkscape:window-width="1920"
     inkscape:window-height="1017"
     inkscape:window-x="1912"
     inkscape:window-y="-8"
     inkscape:window-maximized="1"
     inkscape:current-layer="layer1" />
  <defs
     id="defs9551" />
  <g
     inkscape:label="Livello 1"
     inkscape:groupmode="layer"
     id="layer1"
     transform="translate(-14.032825,38.981551)">
    <path
       id="use969"
       d="m 34.73647,-7.9591558 c 0,0.7307792 -0.592137,1.3229167 -1.322917,1.3229167 H 15.554179 c -0.730515,0 -1.322917,-0.5921375 -1.322917,-1.3229167 V -37.460197 c 0,-0.730779 0.592402,-1.322917 1.322917,-1.322917 h 17.859374 c 0.73078,0 1.322917,0.592138 1.322917,1.322917 z"
       fill="#ffffff"
       stroke="#000000"
       stroke-width="0.396875" />
    <g
       id="use971"
       fill="none"
       style="stroke:#000000"
       transform="matrix(0.26458333,0,0,0.26458333,-152.91926,-39.113843)">
      <path
         d="m 642.75,9 v 5.5 c 0,0 0.25,3.25 -3.23,3.25 -1.08,0 -2.8,-0.5 -3.02,-2.25"
         id="path29677" />
      <path
         d="m 642.75,9 a 3.25,3.25 0 1 0 -6.5,0 3.25,3.25 0 1 0 6.5,0"
         id="path29679" />
    </g>
    <g
       id="use973"
       fill="none"
       style="stroke:#000000"
       transform="matrix(0.26458333,0,0,0.26458333,-153.44842,-38.84926)">
      <path
         d="m 706.75,114 a 3.25,3.25 0 1 0 -6.5,0 3.25,3.25 0 1 0 6.5,0"
         id="path29671" />
      <path
         d="m 700.25,114 v -5.5 c 0,0 -0.25,-3.25 3.23,-3.25 1.08,0 2.8,0.5 3.02,2.25"
         id="path29673" />
    </g>
    <path
       id="use975"
       d="m 17.47082,-32.069312 c -0.03625,-0.562239 -1.153054,-1.620573 -1.189037,-1.885156 -0.03598,0.264583 -1.153054,1.322917 -1.189038,1.885156 -0.02514,0.397669 0.252413,0.56224 0.504561,0.56224 0.360362,0 0.468577,-0.363802 0.50456,-0.463021 0,-0.03307 0.07197,-0.03307 0.07197,0 0.03598,0.09922 -0.238654,0.926042 -0.324379,0.926042 h 0.864658 c -0.08546,0 -0.360098,-0.826823 -0.324379,-0.926042 0,-0.03307 0.07223,-0.03307 0.07223,0 0.03598,0.09922 0.143933,0.463021 0.504296,0.463021 0.252412,0 0.529696,-0.164571 0.50456,-0.56224 z"
       style="stroke-width:0.264583" />
    <path
       id="use977"
       d="m 31.496912,-13.350041 c 0.03625,0.562239 1.153054,1.620573 1.189037,1.885156 0.03598,-0.264583 1.153054,-1.322917 1.189038,-1.885156 0.02514,-0.397669 -0.252413,-0.56224 -0.504561,-0.56224 -0.360362,0 -0.468577,0.363802 -0.50456,0.463021 0,0.03307 -0.07197,0.03307 -0.07197,0 -0.03598,-0.09922 0.238654,-0.926042 0.324379,-0.926042 H 32.25362 c 0.08546,0 0.360098,0.826823 0.324379,0.926042 0,0.03307 -0.07223,0.03307 -0.07223,0 -0.03598,-0.09922 -0.143933,-0.463021 -0.504296,-0.463021 -0.252412,0 -0.529696,0.164571 -0.50456,0.56224 z"
       style="stroke-width:0.264583" />
    <path
       id="use979"
       d="m 22.364289,-32.472008 c -0.06403,-1.073414 -2.049727,-3.093772 -2.113756,-3.599127 -0.06403,0.50509 -2.049727,2.525448 -2.113756,3.599127 -0.04472,0.758825 0.448468,1.073415 0.896937,1.073415 0.640556,0 0.832644,-0.694531 0.896673,-0.883973 0,-0.06323 0.128058,-0.06323 0.128058,0 0.06403,0.189442 -0.424127,1.767946 -0.576527,1.767946 h 1.537494 c -0.1524,0 -0.640556,-1.578504 -0.576527,-1.767946 0,-0.06323 0.128323,-0.06323 0.128323,0 0.06403,0.189442 0.256116,0.883973 0.896673,0.883973 0.448204,-2.65e-4 0.941123,-0.31459 0.896408,-1.073415 z"
       style="stroke-width:0.264583" />
    <path
       id="use981"
       d="m 22.364289,-25.394403 c -0.06403,-1.073415 -2.049727,-3.093773 -2.113756,-3.599128 -0.06403,0.50509 -2.049727,2.525448 -2.113756,3.599128 -0.04472,0.758825 0.448468,1.073414 0.896937,1.073414 0.640556,0 0.832644,-0.694531 0.896673,-0.883973 0,-0.06324 0.128058,-0.06324 0.128058,0 0.06403,0.189442 -0.424127,1.767946 -0.576527,1.767946 h 1.537494 c -0.1524,0 -0.640556,-1.578504 -0.576527,-1.767946 0,-0.06324 0.128323,-0.06324 0.128323,0 0.06403,0.189442 0.256116,0.883973 0.896673,0.883973 0.448204,-2.64e-4 0.941123,-0.314589 0.896408,-1.073414 z"
       style="stroke-width:0.264583" />
    <path
       id="use983"
       d="m 18.136777,-20.024949 c 0.06403,1.073414 2.049727,3.093772 2.113756,3.599127 0.06403,-0.50509 2.049727,-2.525448 2.113756,-3.599127 0.04472,-0.758825 -0.448469,-1.073415 -0.896937,-1.073415 -0.640557,0 -0.832644,0.694531 -0.896673,0.883973 0,0.06323 -0.128059,0.06323 -0.128059,0 -0.06403,-0.189442 0.424127,-1.767946 0.576527,-1.767946 h -1.537493 c 0.1524,0 0.640556,1.578504 0.576527,1.767946 0,0.06323 -0.128323,0.06323 -0.128323,0 -0.06403,-0.189442 -0.256117,-0.883973 -0.896673,-0.883973 -0.448204,2.65e-4 -0.941123,0.31459 -0.896408,1.073415 z"
       style="stroke-width:0.264583" />
    <path
       id="use985"
       d="m 18.136777,-12.947345 c 0.06403,1.073414 2.049727,3.0937726 2.113756,3.5991267 0.06403,-0.5050895 2.049727,-2.5254477 2.113756,-3.5991267 0.04472,-0.758825 -0.448469,-1.073415 -0.896937,-1.073415 -0.640557,0 -0.832644,0.694531 -0.896673,0.883973 0,0.06324 -0.128059,0.06324 -0.128059,0 -0.06403,-0.189442 0.424127,-1.767946 0.576527,-1.767946 h -1.537493 c 0.1524,0 0.640556,1.578504 0.576527,1.767946 0,0.06324 -0.128323,0.06324 -0.128323,0 -0.06403,-0.189442 -0.256117,-0.883973 -0.896673,-0.883973 -0.448204,2.65e-4 -0.941123,0.31459 -0.896408,1.073415 z"
       style="stroke-width:0.264583" />
    <path
       id="use987"
       d="m 26.597622,-21.888674 c -0.06403,-1.073415 -2.049727,-3.093773 -2.113756,-3.599127 -0.06403,0.505089 -2.049727,2.525447 -2.113756,3.599127 -0.04472,0.758825 0.448469,1.073414 0.896937,1.073414 0.640557,0 0.832644,-0.694531 0.896673,-0.883973 0,-0.06323 0.128059,-0.06323 0.128059,0 0.06403,0.189442 -0.424127,1.767946 -0.576527,1.767946 h 1.537493 c -0.1524,0 -0.640556,-1.578504 -0.576527,-1.767946 0,-0.06323 0.128323,-0.06323 0.128323,0 0.06403,0.189442 0.256117,0.883973 0.896673,0.883973 0.448204,-2.64e-4 0.941123,-0.314589 0.896408,-1.073414 z"
       style="stroke-width:0.264583" />
    <path
       id="use989"
       d="m 30.830956,-32.472008 c -0.06403,-1.073414 -2.049727,-3.093772 -2.113757,-3.599127 -0.06403,0.50509 -2.049727,2.525448 -2.113756,3.599127 -0.04471,0.758825 0.448469,1.073415 0.896938,1.073415 0.640556,0 0.832643,-0.694531 0.896673,-0.883973 0,-0.06323 0.128058,-0.06323 0.128058,0 0.06403,0.189442 -0.424127,1.767946 -0.576527,1.767946 h 1.537494 c -0.1524,0 -0.640557,-1.578504 -0.576528,-1.767946 0,-0.06323 0.128323,-0.06323 0.128323,0 0.06403,0.189442 0.256117,0.883973 0.896673,0.883973 0.448204,-2.65e-4 0.941123,-0.31459 0.896409,-1.073415 z"
       style="stroke-width:0.264583" />
    <path
       id="use991"
       d="m 30.830956,-25.394403 c -0.06403,-1.073415 -2.049727,-3.093773 -2.113757,-3.599128 -0.06403,0.50509 -2.049727,2.525448 -2.113756,3.599128 -0.04471,0.758825 0.448469,1.073414 0.896938,1.073414 0.640556,0 0.832643,-0.694531 0.896673,-0.883973 0,-0.06324 0.128058,-0.06324 0.128058,0 0.06403,0.189442 -0.424127,1.767946 -0.576527,1.767946 h 1.537494 c -0.1524,0 -0.640557,-1.578504 -0.576528,-1.767946 0,-0.06324 0.128323,-0.06324 0.128323,0 0.06403,0.189442 0.256117,0.883973 0.896673,0.883973 0.448204,-2.64e-4 0.941123,-0.314589 0.896409,-1.073414 z"
       style="stroke-width:0.264583" />
    <path
       id="use993"
       d="m 26.603443,-20.024949 c 0.06403,1.073414 2.049727,3.093772 2.113756,3.599127 0.06403,-0.50509 2.049727,-2.525448 2.113757,-3.599127 0.04471,-0.758825 -0.448469,-1.073415 -0.896938,-1.073415 -0.640556,0 -0.832644,0.694531 -0.896673,0.883973 0,0.06323 -0.128058,0.06323 -0.128058,0 -0.06403,-0.189442 0.424127,-1.767946 0.576527,-1.767946 H 27.94832 c 0.1524,0 0.640556,1.578504 0.576527,1.767946 0,0.06323 -0.128323,0.06323 -0.128323,0 -0.06403,-0.189442 -0.256116,-0.883973 -0.896673,-0.883973 -0.448204,2.65e-4 -0.941122,0.31459 -0.896408,1.073415 z"
       style="stroke-width:0.264583" />
    <path
       id="use995"
       d="m 26.603443,-12.947345 c 0.06403,1.073414 2.049727,3.0937726 2.113756,3.5991267 0.06403,-0.5050895 2.049727,-2.5254477 2.113757,-3.5991267 0.04471,-0.758825 -0.448469,-1.073415 -0.896938,-1.073415 -0.640556,0 -0.832644,0.694531 -0.896673,0.883973 0,0.06324 -0.128058,0.06324 -0.128058,0 -0.06403,-0.189442 0.424127,-1.767946 0.576527,-1.767946 H 27.94832 c 0.1524,0 0.640556,1.578504 0.576527,1.767946 0,0.06324 -0.128323,0.06324 -0.128323,0 -0.06403,-0.189442 -0.256116,-0.883973 -0.896673,-0.883973 -0.448204,2.65e-4 -0.941122,0.31459 -0.896408,1.073415 z"
       style="stroke-width:0.264583" />
  </g>
</svg>
